<?xml version="1.0" encoding="utf-8"?>
<!-- Generator: Adobe Illustrator 21.0.0, SVG Export Plug-In . SVG Version: 6.00 Build 0)  -->
<svg version="1.1" id="Layer_1" xmlns="http://www.w3.org/2000/svg" xmlns:xlink="http://www.w3.org/1999/xlink" x="0px" y="0px"
	 viewBox="0 0 463.7 796.3" style="enable-background:new 0 0 463.7 796.3;" xml:space="preserve" preserveAspectRatio="none">
<style type="text/css">
	.st0{fill:#FCFCF4;}
	.st1{fill:#323349;}
	.st2{fill:#FEFEFE;}
	.st3{fill:#65666D;}
	.st4{fill:#717279;}
	.st5{fill:#3C3D50;}
	.st6{fill:#64656C;}
	.st7{fill:#696A71;}
	.st8{fill:#6D6E75;}
	.st9{fill:#6C6D74;}
	.st10{fill:#75767C;}
	.st11{fill:#707178;}
	.st12{fill:#73747B;}
	.st13{fill:#696A72;}
	.st14{fill:#6A6B73;}
	.st15{fill:#72727A;}
	.st16{fill:#717179;}
	.st17{fill:#61626B;}
	.st18{fill:#393A4F;}
	.st19{fill:#33344A;}
	.st20{fill:#64656D;}
	.st21{fill:#34354A;}
	.st22{fill:#34354B;}
</style>
<g>
	<path class="st0" d="M464.2,27.7c0,156.8,0,313.6,0,470.4c-0.7,0.6-1.6,0.7-2.5,0.6c-9.6-1.5-19.1-2.9-28.6-4.6
		c-0.5-0.1-0.9-0.2-1.4-0.5c-1.3-1.8-1.2-3.9-1.3-6c-0.1-7.8-0.1-15.5,0-23.3c0-0.6,0-1.1,0.1-1.7c2.1-7,0.5-13.9-0.3-20.9
		c-1-7.9-2.5-15.6-4-23.4c-2.3-11.9-7.6-22.5-15.3-31.8c-1.1-1.3-2.4-2.1-3.9-2.7c-12.6-5.6-24.8-11.8-36.8-18.6
		c-4.2-2.4-6.9-6.2-10-9.5c-1.9-2-2.8-4.1-1.7-6.9c0.9-2.3,0.4-5.2,3.2-6.6c0.8-0.4,1-1.2,1-2c-0.1-2.5,0.7-4.9,1.6-7.2
		c1.5-3.6,2-7.4,1.8-11.3c-0.1-2.1-0.8-3.7-2.5-4.9c-2.3-1.7-2.5-2.6-1.1-5c0.4-0.8,0.7-1.5,0.1-2.2c-1-1.1-1.2-2.4-1.1-3.8
		c0.1-0.6-0.1-1.3-0.3-1.9c-1.1-2.7-3.2-4.8-5.2-6.8c-1.1-1.1-2.9-1.3-4.5-0.9c-1.4,0.3-2.5,0-3.3-1.2c-0.8-1.2-2.1-1.5-3.4-1.6
		c-2-0.1-2.9-2-4.3-2.6c-1.1-0.5-2.9,0.5-4.5-0.5c-2.7-1.8-5.6-0.5-8.3,0.3c-2.1,0.6-4.3,1.3-6.5,1.7c-2.2,0.4-4.1,1.4-5.1,3.5
		c-0.9,1.7-2.6,2.4-4.3,2.8c-2.7,0.5-4.2,2.2-5.1,4.6c-1.2,3-1.9,6-2.4,9.2c-0.7,4.3-1.4,8.5-1.8,12.8c-0.2,1.9-0.1,3.8,0.5,5.7
		c0.9,2.8,1.4,5.8,1.3,8.7c-0.1,2.3,0.4,4.3,2.2,5.9c0.8,0.7,1.1,1.5,1.2,2.5c0,1.9,0,3.8,0.6,5.7c0.1,0.4,0.2,0.8-0.1,1.2
		c-1.7,2.6-2.6,6-6.2,6.9c-1,0.3-1.9,0.8-2.9,1c-7.7,1.3-14.7,4.8-21.8,7.8c-1.3,0.6-2.7,1.1-3.9,1.9c-4.3,2.9-9,5.1-13.6,7.5
		c-1.1,0.6-2.1,1.2-3,2c-0.8,0.7-1.4,1.4-1.2,2.5c0.3,1.6-0.5,2.7-1.4,3.9c-3.1,3.8-6.8,7.2-9.1,11.7c-3,5.8-5.3,12-7.2,18.2
		c-0.1,0.5-0.2,0.9-0.2,1.4c0.1,6.6-0.6,13.3-0.4,19.9c0.1,5.5,0.3,11,0.4,16.5c0,2-0.4,4-0.6,6c-0.1,0.6-0.2,1.3-0.9,1.6
		c-2.9,0.5-5.7-0.4-8.5-0.7c-22.2-2.9-44.2-7-66.3-10.4c-4.4-0.7-5.2-1.7-5.3-6.1c0-0.2,0-0.5,0-0.7c-0.5-2.6-1-5,2.9-5.3
		c1.1-0.1,1.9-1.4,2.5-2.4c1.5-2.4,0.8-3.9-2.1-4c-4.4-0.2-5.2-1.1-5.2-5.6c0-7.4-0.4-14.9,0.1-22.3c0.6-10.6-0.1-21.3,0.5-31.9
		c0.6-11.4,0.2-22.8,0.4-34.3c0-0.8,0-1.6,0.1-2.4c0.5-4.1,1.9-5.3,6.1-5.4c1.4,0,2.9,0.1,4.3-0.4c3.5-0.4,6.9-0.2,10.4-0.2
		c9.2,0.4,18.4-0.5,27.6-0.6c2.3,0,2.9-0.8,2.9-3.5c0.1-6.9-0.2-13.8,0.1-20.6c0.5-10.2,0.3-20.5,0.5-30.7c0-2.8,0.6-5.6,1.2-8.3
		c0.3-1.7-0.1-2.7-1.9-3.3c-3-1-3.5-2.3-2.6-5.6c0.4-1.2,1.1-2.3,1.7-3.4c0.7-1,1.6-1.9,1.8-3.2c0.8-2.1,2.1-4,3.1-6
		c0.8-1,1.6-2,1.8-3.4c0.2-0.7,0.7-1.4,1.1-2.1c1.1-1.7,2.3-3.2,2.7-5.2c0.6-1.3,1.2-2.7,2-3.9c1-0.9,1.5-2.1,1.8-3.3
		c0.1-0.2,0.2-0.4,0.3-0.6c1.6-2.1,3-4.4,3.6-7c0.5-1.4,1.2-2.7,1.9-3.9c0.6-0.9,1.3-1.7,1.4-2.8c0.3-1,0.9-1.9,1.5-2.8
		c0.7-0.8,1.3-1.6,1.4-2.6c0.1-0.2,0.2-0.4,0.3-0.6c0.8-0.9,1.4-2,1.6-3.3c0.4-1,0.9-2,1.5-2.9c1.3-1.2,1.8-2.7,2.2-4.3
		c0.4-1.1,0.9-2.1,1.7-3c1.8-1.5,2.4-3.3,1.8-5.5c-0.2-0.5-0.1-1.1,0-1.7c0.1-0.2,0.2-0.4,0.4-0.6c2-1.1,4.2-1,6.3-1.1
		c3.5-0.1,7-0.5,10.5-0.6c2.7-0.1,3.2-0.6,2.9-3.1c-0.2-2,0.3-3.8,1-5.6c0.6-1.4,0.2-2-1.2-2.5c-25.3-9.2-49.5-20.8-74.3-31.3
		c-25.6-10.8-51.2-21.9-76.9-32.5c-11.8-4.9-23.5-10.1-34.9-15.9c-2.4-1.3-4.8-1.5-7.4-0.8c-12.2,3.3-24.3,6.8-36.6,9.8
		c-1.7,0.4-3.4,0.9-5.2,1.1c-2.8,0.4-3.8-0.5-4-3.3c-0.1-2.2,0-4.5,0.6-6.7c0.3-1.2,0.5-2.5-0.9-3.2c-1.7-0.9-3.4-0.8-5.1,0
		c-1.3,0.6-1,1.9-0.8,3c0.5,2,0.7,4.1,1,6.2c0.4,3.3-0.2,6.4-2.9,8.7c-3,1.3-6.3,1.5-9.4,2.3c-0.7,0.2-1.6,0.3-1.9-0.8
		c0-26.8,0-53.6,0-80.4c0-3.2,0.2-3.4,3.4-3.4c0.5,0,1,0,1.4,0c151.5,0,303,0,454.5,0C461.2,26.9,462.8,26.6,464.2,27.7z"/>
	<path class="st1" d="M236.2,463.5c0.5-6.8,0.2-13.6,0.2-20.4c0-7.5,0-15,0-22.6c0-2.4,1-4.8,1.8-6.9c1.8-4.4,3.3-9,5.5-13.2
		c2.6-5,6.6-8.8,10.2-13c0.9-1,1.5-2,0.5-3.1c-0.8-1,0-1.4,0.5-1.9c2.3-2.1,5-3.5,7.7-4.7c2.8-1.3,5.5-3,8.2-4.4
		c8.5-4.4,16.9-8.9,26.5-10.6c2-0.4,4-1.2,5.9-2c1.6-0.7,1.7-2.8,2.9-4c1.3-1.3,1.7-2.7,0.8-4.4c-0.2-0.5-0.2-1.1-0.2-1.7
		c0.2-2.3-0.1-4.3-2.1-5.9c-1-0.8-1.3-2.3-1.3-3.7c0-3.8-0.1-7.5-1.8-11c-0.2-0.5-0.2-1.1-0.1-1.7c0.6-5.2,0.8-10.3,2.1-15.5
		c0.7-2.6,0.9-5.5,1.8-8.2c0.5-1.5,1.1-3,2.1-4.3c0.2-0.3,0.5-0.8,0.8-0.9c6.4-0.9,9.1-8.8,16.5-8.5c2.2,0.1,4.7-1.5,7.2-2
		c1.8-0.4,3.4-0.2,4.7,0.9c1.8,1.5,2.8,1.2,3.5-1.1c0.3,0.3,0.6,0.5,0.7,0.8c1.1,2.7,3.3,3.5,5.9,3.5c1,0,1.8,0.6,2,1.5
		c0.3,1.5,1.2,1.4,2.3,1.2c4.1-0.7,5.4-0.1,7.5,3.4c0.4,0.6,0.9,0.9,1.3,1.3c1.4,1.2,2.3,2.7,2.5,4.5c0.2,1.6-0.7,3.5,1.4,4.7
		c0.7,0.4,0.2,1.9-0.6,2.8c-1.3,1.6-1.1,2.7,0.7,3.7c1.9,1.1,2.7,2.8,3,4.9c0.5,4.4-0.3,8.6-1.9,12.6c-1,2.3-1.6,4.7-1.4,7.2
		c0,0.9,0,1.9-0.9,2c-2.6,0.2-2.3,2.4-2.8,4c-0.5,1.6-0.3,3.4-1.3,4.8c-0.5,0.7,0.2,1,0.5,1.4c4.4,5.3,9,10.3,15.4,13.7
		c11,6,22.2,11.5,33.7,16.7c1.5,0.7,2.7,1.6,3.7,2.9c5.6,7,9.9,14.6,12.9,23.1c3.4,9.8,4.2,20.1,6.1,30.2c0.9,4.6,1.1,9.4,1.9,14
		c0.5,2.5-0.7,4.7-0.9,7c-0.8,10.9-0.5,21.7,0.1,32.6c1.3,2.3,0.9,4.9,1,7.3c0.2,4.9,0.7,9.9,0.7,14.8c0,1.9-0.5,3.4-1.8,4.8
		c-3.2,3.8-5,8.4-7.1,12.7c-5.8,11.8-10.5,24-15.4,36.2c-0.6,1.4-0.9,2.9-1.1,4.4c-0.6,4.7-1.2,9.4-1.1,14.1
		c0.1,3.6-0.7,7.2-0.5,10.8c0.6,9.3,0.5,18.7,2,28c0.5,2.9,1.3,5.6,1.9,8.4c2.5,11.3,3.6,22.7,4.8,34.2c1.1,10.7,1.6,21.5,4.4,32
		c3.1,11.3,4.3,22.9,5.5,34.5c0.2,2.1,1,3,3,3.2c1.2,0.1,2.4,0.3,3.6,0.2c4.5-0.6,8.9-0.4,13.4-0.5c2.5,0,2.8-0.4,2.5-2.8
		c-0.7-7.2-0.4-14.3,0.4-21.5c0.5-4.2,0.4-8.5,0-12.7c-0.1-1.4-0.3-2.7-0.2-4.1c0.1-2.2,0-4.3,0-6.5c-0.1-2.3,0.8-4.5,1-6.8
		c0.7-6.8,0.3-13.7,0.3-20.5c0-1.4-0.5-2.7-1.4-3.7c-1-1-0.9-1.9,0.3-2.8c1-0.6,1.1-1.7,1.3-2.7c0.3-1.4,1.1-2.2,2.5-2.1
		c3.7,0.4,7.5,0.4,11.2,0c0.5,0,0.9,0.2,1.3,0.5c0,1.1,0,2.2,0,3.4c-2.6-0.7-5.3-1.1-7.9-0.4c-2.9,0.7-3.7,1.7-3.1,4.6
		c0.9,4.1,0.8,8.2,0.2,12.3c0,1.5-0.1,3.1,0.1,4.6c0.9,4.8,1,9.6-0.5,14.4c-1.4,4.4-0.8,8.9-0.3,13.3c0.4,3.8,0.4,7.5,0,11.2
		c-0.3,2.3-0.3,4.6-0.1,6.9c0.5,3.9,0.5,7.8,0,11.7c-0.4,3,0.2,3.5,3.2,3.5c2.1,0,4.2,0,6.2,0.4c0.9,0.2,1.7,0.4,2.2,1.3
		c0,1.6,0,3.2,0,4.8c-2.8-2.4-6.5-1.2-9.6-2.3c-1.4-0.5-2.1,1-2.1,2.3c0,5.1-0.3,4.5-2.9,8.6c1.3,0.5,2.5,0.3,3.7,0.1
		c1.3-0.2,2.5-0.4,3.8,0c1.7,0.5,2.5,1.6,2.3,3.4c-0.1,1.7-1.3,2.1-2.7,2c-2.1,0-4,0.9-6,1.5c-2.9,0.9-6.2-2.1-5.5-5.1
		c0.5-2.4,1.5-4.5,2-6.9c0.1-0.7,0.3-1.4,0.3-2.1c0.3-3.4-0.4-4.1-3.7-4.2c-5-0.2-10-0.7-15.1-0.9c-3.1-0.1-3.3,0.2-2.9,3.3
		c0.3,2.5,0.4,5,0.4,7.4c-0.1,8.3,2.9,16.2,3.4,24.4c0.4,5.8,0.3,11.5,0.1,17.3c0,1.2-0.1,2.6-1.4,3.4c-0.6,0.2-1.3,0.1-1.9,0.1
		c-20.4,0-40.8,0-61.2,0c-0.6,0-1.3,0-1.9-0.1c-1.2-0.6-1.1-1.9-1.2-2.9c-1-11.7-3.3-23.3-6.1-34.7c-2.3-9.6-4.9-19.1-7.8-28.5
		c-1.1-3.7-1.7-7.5-2.4-11.3c-1.6-8.3-3.1-16.7-5.7-24.8c-0.9-2.7-1.9-5.4-3.4-7.9c-0.7-1.1-1.4-2.4-2.9-1.9
		c-1.4,0.4-1.3,1.9-1.3,3.1c0,9.2-0.1,18.4,0,27.6c0.1,4.1-0.5,8.1-0.5,12.2c-0.1,3.3,0.8,6.5,0.5,9.8c0,1.7-0.1,3.5,0,5.2
		c0.1,0.7,0,1.5-0.2,2.1c-1.1,4-0.8,8.1-0.1,12.1c0.6,3.6,0.7,7.1,0.1,10.7c-0.6,3.6-0.5,7.4-0.1,11c0.5,4.8,0.3,9.6,0.3,14.4
		c0,1.3-0.1,2.6-1.2,3.5c-3.7,0.5-7.5,0.2-11.2,0.1c-1.4-0.9-0.4-2-0.6-3c-0.4,0.9,0.2,2.4-1.2,3.1c-6.3,0.2-12.6,0.1-18.9,0.1
		c-16,0-31.9,0-47.9,0c-1,0-2.1,0.1-3.1-0.2c-1-0.8-0.9-2-0.9-3.1c-0.2-11.4,0.3-22.8,1.3-34.2c0.6-6.8,0.8-13.6,1-20.3
		c0.6-17.2,1-34.3,1.1-51.5c0-5.2,1.1-10.5,1.5-15.7c0.6-7.5,1.1-15,1.7-22.5c1.8-21.9,1.2-43.9,1.5-65.9c0.1-5.4,0.3-10.9,0.4-16.3
		c0-2.3-0.5-4.4-1.5-6.4c-5.8-11.8-11.8-23.6-16.3-36c-1-2.9-1.9-5.8-2.7-8.7c-0.7-2.6-0.6-5.1,0.3-7.8c1.3-3.7,1.4-7.6,0.8-11.4
		c-1-7-1.3-14-1.3-21c0-3.1,0-6.2,0-9.4C235.4,465.6,235.4,464.5,236.2,463.5z"/>
	<path class="st2" d="M248.2,796.6c23.5,0,47,0,70.5,0c0.3-0.2,0.7-0.2,1,0c3.8,0,7.6,0,11.5,0c1-0.7,2.1-0.7,3.2-0.7
		c8.4,0,16.9,0,25.3,0c1.1,0,2.2,0,3.2,0.7c15.5,0,31,0.1,46.5,0.1c6.4,0,12.8,0,19.2-0.1c0.7-0.6,1.6-0.7,2.5-0.7
		c5.5,0,10.9-0.1,16.4,0.1c1,0,2.1-0.1,3.1,0c0.3,0,0.6,0,0.9,0c3.1-0.1,6.2-0.1,9.3,0c1.2,0.2,2.4-0.2,3.4,0.7
		c-0.2,0.3,0.5,1-0.5,1c-0.6,0-1.1,0-1.7,0c-153.3,0-306.5,0-459.8,0.1c-2.1,0-2.3-0.6-2.3-2.4C0,531.1,0,266.9,0,2.7
		c0-1.8,0.2-2.4,2.3-2.4c153.3,0.1,306.5,0.1,459.8,0c1.8,0,2.2,0.4,2.2,2.2c-0.1,8.4,0,16.8,0,25.2c-153.5,0-306.9,0-460.4,0
		c-3.3,0-3.3,0-3.3,3.2c0,26.8,0,53.6,0,80.4c1.1,1.4,0.6,3,0.7,4.6c0,0.7,0,1.4,0,2.1c0.1,0.6-0.1,1.2,0,1.8
		c0.1,8.2,0.1,16.3,0,24.5c0.1,3.7,0.1,7.4,0,11.2c0.2,6.3,0.1,12.6,0.1,18.9c0,13.2,0.1,26.3,0,39.5c-0.2,6.8,0.2,13.5,0,20.3
		c0,1.5,0,3-0.1,4.5c0.1,2.4,0.1,4.9,0,7.3c0.1,1.5,0.1,3.1,0,4.6c0.1,0.7,0.1,1.4,0.1,2.2c0,57.5,0,115,0,172.6
		c0,0.6,0,1.1-0.1,1.7c0.1,3,0.1,5.9,0.1,8.9c0,72.1,0,144.2,0,216.2c0,1.4,0.1,2.7-0.1,4.1c0,0.6,0,1.3,0,1.9c0.1,28,0.2,56,0,84
		c0,0.2,0,0.3,0,0.5c0.1,0.6,0,1.2,0,1.9c0.1,6,0.1,12.1,0,18.1c0.1,5.6,0.1,11.1,0,16.7c0.2,4.6,0,9.2,0.1,13.8
		c0,2.5,0.2,2.7,2.7,2.8c2.5,0.1,5.1-0.1,7.6,0.1c7.5-0.1,14.9-0.1,22.4,0c4-0.1,8.1-0.1,12.1,0c10.4-0.1,20.8-0.1,31.2,0
		c3.7-0.2,7.5-0.1,11.3-0.1c17.6,0,35.1,0,52.7,0c1,0,2.1-0.1,3.1,0.1c2.6-0.1,5.3,0,7.9,0c13.8-0.1,27.7-0.1,41.5,0
		c2.6-0.1,5.3-0.1,7.9,0c14.7-0.2,29.3-0.1,44-0.1C246.6,795.9,247.5,796,248.2,796.6z"/>
	<path class="st3" d="M464.2,652.7c-4.1,0.6-8.2,0.9-12.3,0.1c-1.2-0.2-2.2,0.2-2,1.6c0.3,2.1-0.8,3.1-2.9,3.8
		c2.8,1.8,2.9,4.4,2.9,7.2c-0.1,6.2,0,12.4-0.3,18.6c-0.1,2.2-1.2,4.4-1.2,6.8c-0.3,2.2-0.3,4.4,0,6.7c0.6,5.3,1,10.7,0.4,16
		c-0.7,6-0.9,12.1-0.8,18.1c0,1.9,0.3,3.8,0.5,5.7c0.1,1.4-0.3,2-1.9,2c-5.2-0.1-10.4-0.2-15.5,0.4c-1.8,0.2-3.5-0.4-5.2-0.5
		c-1.2,0-1.3-0.9-1.4-1.8c-0.8-10.2-2.3-20.4-4.3-30.5c-0.8-3.9-1.5-7.8-2.7-11.6c-1.5-5.2-1.7-10.5-2.2-15.8
		c-0.7-7.6-1.4-15.2-2.3-22.8c-0.9-7.3-1.6-14.7-3.5-21.9c-2.6-9.8-2.9-19.8-3.5-29.8c-0.4-7.7,0.4-15.3,0.3-22.9
		c-0.1-8.4,3.3-15.9,6.3-23.6c4.4-11.1,9.3-22.1,14.7-32.8c1.2-2.4,2.4-4.9,4.5-6.7c0.9-0.8,0.8-1.8,0.8-2.9
		c-0.3-6.8-0.6-13.5-1-20.3c0-0.8,0-1.6,0-2.4c9.9,1.5,19.8,3.1,29.8,4.6c0.9,0.1,1.9,0.2,2.8,0.3
		C464.2,549.6,464.2,601.2,464.2,652.7z"/>
	<path class="st3" d="M447.9,796.6c-6.4,0-12.8,0-19.2,0c0.8-5.2,0.5-10.5,0.4-15.8c-0.1-6.1-0.8-12.2-2.5-18.2
		c-0.4-1.5-0.7-3.1-0.7-4.7c-0.1-4.9-0.4-9.9-1-14.8c-0.2-2,0.3-2.9,2.5-2.7c6.4,0.4,12.7,0.7,19.1,1c0.8,0,1.2,0.4,1.5,1.2
		c0.9,2.6,0.2,5-0.4,7.5c-0.3,1.2-0.7,2.3-1.1,3.4c-1,3-0.4,4.9,1.9,6.6c0.6,0.4,1.2,0,1.8-0.2c2.4-0.9,4.7-2.1,7.4-1.7
		c0.7,0.1,1.3-0.2,1.3-1c0-1.1,0.3-2.3-1.1-2.9c-1.4-0.6-2.8-0.4-4.2-0.2c-1.8,0.3-3.6,0.6-5.3-0.3c-0.1-0.6,0.2-0.8,0.6-1.1
		c2.5-2,3.1-4.6,2.9-7.7c-0.2-3.2,0.9-3.9,4.1-3.2c2,0.5,3.9,1.4,6.2,0.4c1.5-0.7,1.2,1.9,2.2,2.6c0,0.6,0,1.3,0,1.9
		c-0.7,1.4-2.2,1-3.4,1.5c-0.5,0.2-1.2,0.2-1.3,0.8c-0.1,0.6,0.5,0.8,0.8,1c2.5,1.9,3.4,4.4,3.4,7.5c0.1,6.3,0.2,12.6,0.2,18.9
		c0,1.2,0.1,2.5-1.2,3.1c-1.5,0.6-2.4-0.3-3.3-1.3c-0.6-0.6-1.1-1.4-2.6-1.6c2.2,3,2.7,6.6,5.8,8.4c0.5,0.3,1.1,0.6,1.2,1.1
		c0.3,2.9,0.3,5.9-0.7,8.7c-0.4,1-1.5,1.1-2.3,1.6c-3.2,0-6.4,0-9.6,0c-0.9-1-0.6-2.2-0.7-3.3c-0.1-1.9,0.2-3.9-0.2-5.8
		c-0.4-2.4,0.3-4.8,0.6-7.1c0.3-2.7,0.3-5.3-1.4-8c-0.5,1.6-0.3,3-0.5,4.4c-0.2,1.7-0.8,3.2-1.5,4.7c-0.7,1.6,2,2.6,1.7,4.4
		C448.6,789.4,449,793.1,447.9,796.6z"/>
	<path class="st3" d="M452.7,672.4c0.7-4.4,0.6-8.8-0.5-13.2c-0.5-1.9,0.4-3.3,2.3-3.8c3.3-0.8,6.6-1.9,9.6,0.7c0,0.5,0,1,0,1.4
		c-0.5,1.3-1.7,1.5-3.1,1.8c1.3,1.8,2.7,3.4,3.1,5.4c0,5.9,0,11.8,0,17.8c-0.4,5.6-0.4,11.2,0,16.8c0,9,0,17.9,0,26.9
		c-0.4,3.8-0.4,7.7,0,11.5c0,0.8,0,1.6,0,2.4c-3.2-1.1-6.6-1-9.9-0.9c-1.9,0.1-2.7-0.8-2.6-2.5c0.1-1.7,0.4-3.5,0.4-5.2
		c0.1-3.3,0-6.5-0.4-9.8c-0.4-3.7,0.6-7.3,0.5-11c-0.1-3.7-0.4-7.5-0.9-11.2c-0.4-2.4-0.1-4.9,0.7-7.1c1.7-5.1,1.7-10.1,0.8-15.2
		C453.1,675.5,453.1,674,452.7,672.4z"/>
	<path class="st1" d="M460.9,796.6c3.2-2.5,2.8-6.1,2.8-9.6c0-0.5-0.3-1-0.8-1.1c-2.5-0.6-3.4-2.8-4.3-4.8c-0.5-1.2-1.3-2.2-2.1-3.2
		c-0.5-0.7-0.8-1.5,0-2.1c0.7-0.6,1.4-0.1,1.9,0.4c0.7,0.7,1.4,1.3,1.9,2.1c0.5,0.8,1.1,1.1,2,0.9c0.8-0.3,1.4-0.9,1.4-1.8
		c0-5.1,0.3-10.2-0.2-15.3c-0.1-1.4-0.3-2.7-0.2-4c0.2-3.7-1.2-6.5-4.5-8.3c-0.4-0.2-0.9-0.3-1-0.9c1.8-1.7,4.3-1.4,6.4-2.2
		c0,16.6,0,33.3,0,49.9C463.1,796.7,462,796.6,460.9,796.6z"/>
	<path class="st1" d="M464.2,664.7c-1.3-1.8-2.4-3.9-4.1-5.4c1.3-1.2,3.1-0.5,4.1-1.8C464.2,659.9,464.2,662.3,464.2,664.7z"/>
	<path class="st4" d="M464.2,699.2c-0.6-0.5-0.5-1.1-0.5-1.8c0-4.4,0-8.9,0-13.3c0-0.6-0.1-1.3,0.5-1.8
		C464.2,688,464.2,693.6,464.2,699.2z"/>
	<path class="st5" d="M464.2,737.6c-0.8-3.8-0.8-7.7,0-11.5C464.2,730,464.2,733.8,464.2,737.6z"/>
	<path class="st6" d="M248.2,796.6c-15.5,0-31.1,0-46.6,0c-0.6-0.6-0.7-1.4-0.7-2.2c0-4.2-0.2-8.4,0.1-12.6c0.5-1.6,0.6-3.3,0.1-5
		c-0.2-6.4-0.7-12.8,0.5-19.1c0.5-3,0-5.9-0.4-8.8c-0.4-2.3,0-4.5,0.6-6.6c0.6-2,1.7-3.4,3.7-4c-2.4-1.2-3.5-3.3-3.5-5.8
		c0-6-0.4-12-1.3-17.9c-0.3-2,0.4-3.8,1.5-5.4c0.7-1.1,1.2-2.2,1-3.6c-1.9-11.6-1.1-23.3-1.2-34.9c0-3,0.6-6,0.5-9.1
		c0-1.2,0.4-2.2,1.6-2.7c1.2-0.2,2.5,0.1,3.7,0c0.7-0.1,1.5,0.2,1.7-0.8c0.1-1.8,1.2-2.2,2.7-2.4c2.7-0.4,5.4-0.2,8.1,0
		c3.5,0.2,7-0.4,10.5-0.2c2.9,0.1,5.9-0.3,8.7,0.8c-1.4-1.2-3.1-1.3-4.9-1.2c-6.4,0.6-12.8,0.2-19.1,0.5c-6.4,0.3-12.8-1-19.1-0.5
		c-7.4,0.6-14.9,0.3-22.3,0.4c-12.9,0.2-25.7,0.7-38.6,0.5c-1.4,0-2.7,0.1-4.1-0.2c-2.3-0.6-4.6-0.5-6.9-0.1
		c-5.1,0.3-10.2,0.6-15.3,1c-1,0.1-1.9-0.2-2.8-0.5c-2.1-0.8-4.1-1.3-6.3-0.4c-0.3,0.1-0.7,0.2-0.9,0c-3-1.4-5.9-0.3-8.9,0.3
		c-2,0.4-4.1,0.5-6.1-0.4c-2.8-1.2-4.1-3.1-4-6.2c0-1.3,0.6-2.3,1.8-2.9c2.3-1.2,2.9-3.2,2.9-5.6c0-0.8,0.3-1.7-0.9-1.9
		c-1.1-0.2-2.1,0-2.5,1.2c-0.3,1-0.5,2-0.6,3.1c-0.1,1.1-0.7,1.9-1.6,2.5c-2.2,1.4-3.3,1-4.2-1.5c-0.1-1.4,0.8-2.8-0.4-4.1
		c-3.4,2.1-4.6,5.8-3.1,9.3c0.2,0.5,0.5,1,0.7,1.5c0.2,0.5,0.5,1.1,0.1,1.6c-0.4,0.5-1,0.2-1.6,0.1c-0.5-0.1-0.9-0.4-1.3-0.6
		c-1.1-0.6-2-0.4-2.6,0.8c-1.1,2.5-3.3,3.2-5.7,3.2c-4.3,0.2-8.7,0.6-12.9-0.1c-4.6-0.9-9.1-1.4-13.7,0c-1.5,0.5-2.7-0.5-3.6-1.8
		c-1.9-3-1.7-6.3-1.2-9.5c0.4-2.4,1.2-4.7,1.2-7.1c0-1.3,0.9-2.2,1.6-3.1c1.9-2.3,1.9-3.3-0.3-5.2c-1.3-1.2-2.1-2.8-3-4.5
		c-1.3,2.2-1.7,4.3-0.9,6.5c0.6,1.7,0.6,3.3,0,4.9c-1.1,3-1.1,6.1-0.2,9.2c0.4,1.3,0.7,2.6,0.7,4c0.1,4.4-2.3,7.4-6.7,7.7
		c-3.7,0.2-7.5,0.3-11.3-0.1c-1.8-0.5-3.7-0.4-5.5,0.1c-1.7,0.1-3.4,0.6-5-0.5c0-0.6-0.1-1.1-0.1-1.7c0-75.5,0-150.9,0-226.4
		c0-0.5,0-1,0.1-1.4c2.1-0.7,4.1,0,6.1,0.4c18.3,3.1,36.9,4.7,55.1,8.5c1.6,0.3,3.3,0.6,4.7,1.6c1.6,1.1,2.8,0.9,3.5-1.1
		c0.4-0.9,0.3-1.9,0.3-2.8c0-18.1,0-36.1,0-54.2c0-1,0-1.9-0.2-2.8c-0.3-1.3-0.2-2.5-0.3-3.8c0-6.5,0.5-13.1,0-19.6
		c-0.1-1.9-0.2-3.8-0.4-5.7c-0.4-3.8,1.4-5.5,5.2-5c1.6,0.2,3.1,0.8,4.6,1.2c5.5,1.3,11,2.1,16.6,2.6c2.4,0.2,4.9,0.2,6,3
		c0.3,0.7,1.1,1,1.8,0.9c6.6-0.3,13,1.5,19.5,2.2c2.1,0.2,4.1,0.6,6.2,0.9c1,0.1,1.4-0.1,1.1-1.3c-0.9-3.1-0.1-4.9,2.9-6.4
		c2.5-1.3,5.2-2,7.8-3.1c4.9-1.9,9.4-4.4,12.4-9c0.5-0.8,1.2-1.7,2.2-1.8c3.2-0.4,6.4-0.4,9.5,0.9c-1.5,0.6-3.2,0.2-4.7,0.3
		c-3.7,0.2-4.7,1.1-4.8,5c-0.1,5.8-0.1,11.7-0.2,17.5c-0.2,15.3-0.4,30.7-0.6,46c-0.1,9.2-0.3,18.4-0.5,27.6
		c-0.1,3.9,0.7,4.5,4.4,4.4c1.3,0,2.9-0.7,3.7,0.9c0.8,1.6,0.2,3.1-0.8,4.5c-2.1,2.9-3.1,3.5-6.2,3.1c1.1,2,1.2,4,1,6.1
		c-0.2,2.3,0.8,3.4,3,3.8c6.5,1.1,13.1,2.1,19.6,3.2c12.6,2,25.2,4.1,37.8,6c6.4,1,12.8,1.8,19.2,2.7c0,5.4,0,10.7,0.1,16.1
		c0.1,5.8,0.5,11.6,1.2,17.4c0.6,4.4,0.6,9-1.5,13.4c-1,2-0.1,4.3,0.4,6.3c1.9,7.2,4.6,14.1,7.8,20.8c3.9,8.3,7.9,16.6,11.9,24.9
		c0.3,0.6,0.7,1.2,0.7,1.8c0,5.4,0,10.9-0.1,16.3c0,1-0.2,2-0.2,3.1c0,13,0.2,26.1-0.1,39.1c-0.3,10.5-0.5,21-1.7,31.5
		c-0.6,5.1-0.6,10.3-1.1,15.5c-0.5,5.3-0.6,10.6-1.6,15.9c-0.2,0.8-0.2,1.7-0.2,2.6c0,7.7,0.1,15.4-0.1,23
		c-0.2,10.1-0.5,20.2-1,30.4c-0.4,8.3-0.8,16.5-1.5,24.8C248.3,776.4,248.1,786.5,248.2,796.6z"/>
	<path class="st1" d="M165.3,332.6c-2.5-0.4-5.1,0.1-7.6-0.6c-1.5-0.4-2.7,0.4-3.4,1.7c-2.8,5-7.5,7.4-12.6,9.4
		c-1.8,0.7-3.7,1.3-5.6,2.1c-5.5,2.1-6.2,3.5-3.9,8.9c-3.5,0.4-6.8-0.6-10.1-1.1c-4.8-0.6-9.5-1.5-14.3-2.2
		c-1.2-0.2-2.4-0.2-3.6,0.2c-1.4,0.5-2.8-0.2-3-1.2c-0.5-3.3-3.2-2.6-5-2.8c-7-0.5-13.8-1.8-20.6-3.6c-4.6-1.2-6.3,0.4-5.3,4.9
		c0.2,1,0.2,2.1,0.2,3.1c0.5,8.3-0.2,16.5,0,24.8c0.3,0.6,0.2,1.3,0.2,1.9c0,19,0,38.1,0,57.1c0,0.6,0.1,1.3-0.2,1.9
		c-0.7,1.1-1.1,3.3-3,1.9c-3.1-2.4-6.8-2.5-10.3-3.2c-9.8-2.1-19.9-3.1-29.8-4.4c-7.8-1-15.6-2.4-23.5-3.7c-1.2-0.2-2.4,0.2-3.5-0.6
		c0-0.9-0.1-1.8-0.1-2.6c0-45.8,0-91.7,0-137.5c0-12.2,0-24.3,0.1-36.5c1.2-1.3,2.7-1.3,4.2-1.1c2.3,0.3,4.6,0.6,6.9,0.8
		c1.8,0,3.5,0.1,5.3-0.1c12.7-0.6,25.4-1,38.1-1.5c8.3-0.4,16.6-0.6,24.9-1c13.7-0.6,27.5-1,41.2-0.9c1.8,0,3.5,0,5.2,0.7
		c2.1,0.8,2.7,1.9,1.6,3.9c-1.2,2.2-1.4,4.5-1.4,7c-0.1,6-0.5,12-0.9,17.9c-0.2,1.8-0.1,3.5-0.1,5.3c0.1,9,0,18,0,27.1
		c0,4.2,0.4,4.6,4.4,5.5c19.1,4.1,38.2,8.6,57.3,12.8c0.5,0.1,0.9,0.2,1.4,0.4c1.1,0.4,2,1.1,1.8,2.5c-0.2,1.3-1.2,1.8-2.3,2
		c-0.8,0.1-1.6,0.1-2.4,0.1c-3.4-0.2-6.7,0.2-10,0.7C172.2,332.5,168.8,332.6,165.3,332.6z"/>
	<path class="st1" d="M0.6,246.1c0-2.4,0-4.8,0-7.2c2.8-2.5,3.1-5.6,2.4-9.2c-1.1-5.2-2-10.5-2.4-15.8c0-19.5,0-39,0-58.5
		c2.5-1.4,5.3-1.1,7.9-1.2c12.8-0.4,25.7-1.3,38.5-1.6c13.4-0.3,26.8-1.1,40.2-1.4c5.3-0.1,10.5-0.3,15.8-0.4c2.5,0.2,5,0.1,7.5,0.1
		c7.9-0.4,15.8-0.6,23.7-1.3c9.5-0.8,18.6,1.3,27.5,4.3c20,6.6,40.1,13.3,60.2,19.7c4.6,1.5,9.3,3,13.9,4.6c4.4,1.6,5.7,5.3,3.3,9.4
		l0,0c-0.8,1-1.9,1.4-3,1.9c-1.7,0.7-1.8,1.5-0.6,2.9c0.8,0.9,2.1,1.4,1.6,2.9c-0.5,0.9-1,1.9-1.6,2.8c-1.5,1.1-2.3,2.5-2.3,4.4
		c-0.5,0.9-1,1.9-1.5,2.8c-0.9,1-1.3,2.2-1.8,3.5l0,0c-0.9,0.7-1.1,1.9-1.5,2.9c-0.5,0.9-1,1.9-1.5,2.8c-0.9,0.8-1,1.9-1.4,2.9
		c-0.7,1.3-1.3,2.5-2,3.8c-2.2,1.9-3,4.6-3.8,7.3c0,0.1-0.1,0.3-0.1,0.4c-1.3,0.8-1.3,2.2-1.8,3.4c-0.7,1.3-1.3,2.5-2,3.8
		c-1.5,1.5-2.2,3.4-2.7,5.4c-0.3,0.6-0.7,1.2-1,1.9c-1.2,0.9-1.3,2.3-1.8,3.5c-1,2-2.1,4-3.1,6.1c-0.8,0.9-1.3,1.9-1.7,3
		c-0.5,0.9-1,1.9-1.5,2.8c-1.5,2.5-3.8,2.8-6.3,2.3c-6.4-1.3-12.7-3.3-19-4.9c-16.4-4.1-32.5-9.2-49.2-12.1c-9.3-1.6-18.6-1.8-28-1
		c-4.6,0.4-9.3,0.3-13.9,0.4c-6.5,0.2-13.1,0.4-19.6,0.7c-9.7,0.5-19.3,1-29,1.1c-7.9,0.1-15.5,2.4-23.4,2.1
		c-4.3-0.2-8.6-0.7-12.9-0.5C2,246.9,1.2,246.7,0.6,246.1z"/>
	<path class="st3" d="M0.6,246.1c4.7,0,9.4,0,14.1,0.5c5.5,0.5,10.9-0.9,16.3-1.6c3.6-0.5,7.3-0.5,11-0.6c6.5-0.2,13.1-0.5,19.6-0.7
		c9-0.3,18-0.6,27-1c10-0.4,19.9-1.2,29.9-0.8c9.6,0.4,19,2.5,28.4,4.9c16.3,4.3,32.6,8.6,48.9,13c3,0.8,5.8,0.9,8.3-1.2
		c-0.1,0.4-0.1,0.8-0.2,1.2c-0.8,2.8-0.3,3.9,2.7,4.4c2.2,0.3,2.7,1.5,2.3,3.3c-1.6,6.2-1.4,12.5-1.4,18.8c0,10.9-0.3,21.7-0.4,32.6
		c0,3.3,0.1,6.5,0.1,9.8c0,2-0.9,3.4-3.1,3.4c-9.4-0.2-18.8,1.2-28.2,0.4c3.3-1.1,6.6-1.6,10-1.4c0.7,0.1,1.4,0,2.2,0
		c1.1,0,2-0.5,2.1-1.5c0.1-1.1-0.8-1.6-1.8-1.8c-5.7-1.2-11.3-2.5-17-3.8c-11.1-2.5-22.2-4.9-33.2-7.4c-3.4-0.8-6.8-1.5-10.2-2.2
		c-2.1-0.4-2.9-1.6-2.9-3.7c0-9.7,0-19.3,0.1-29c0.3-1.7,0.3-3.5,0-5.2c0.3-7.2,1-14.5,1-21.7c0-1.4,0.7-2.8,1.7-3.9
		c1-1.2,0.5-2.1-0.8-2.5c-1.4-0.4-2.7-0.7-4.2-0.7c-7.1,0-14.2-0.2-21.4,0.1c-10.2,0.4-20.4,0.6-30.6,1c-7.4,0.3-14.8,0.6-22.2,0.9
		c-8.8,0.4-17.5,0.9-26.3,1c-1.7,0-3.5,0.6-5.2,0.4c-1.7-0.3-3.5-0.3-5.2,0c-1.8-0.2-3.7-0.1-5.4-0.5c-1.9-0.5-3.7-0.3-5.6,0.1
		C0.6,249,0.6,247.6,0.6,246.1z"/>
	<path class="st3" d="M239.1,187.6c0.1-0.5,0.1-0.9,0.2-1.4c1-4.2-0.1-6.2-4.1-7.5c-22.8-7.5-45.6-15-68.4-22.4
		c-6.3-2.1-12.6-4.4-19.3-5.4c-5.1-0.7-10.1-1.2-15.2-0.4c-2.2,0.4-4.5,0.4-6.7,0.4c-4.9,0.1-9.9,0.7-14.8,0.6
		c-2.5-0.4-5.1-0.3-7.6,0c-8.4,0.2-16.8,0.2-25.1,0.6c-9.1,0.4-18.2,0.7-27.2,1c-8.1,0.3-16.2,0.5-24.4,1c-8.7,0.5-17.3,0.9-26,1.4
		c0-3.7,0-7.4,0-11.1c1.1-1.4,2.9-1.2,4.4-1.7c4.8-1.4,9.5-1.8,14.3,0c3.2,1.2,6.5-0.3,9.7-0.5c2.2-0.2,4.5-0.4,6.7-0.4
		c17.6,0.1,35.2-0.9,52.7-1.2c12.5-0.2,25-1.2,37.6-1.8c7-0.3,14-1.1,21.6-0.7c-2.4-1.1-4.3-1.8-6.2-2.6c-5.9-2.8-11.2-6.9-17.3-9.4
		c-4.7-1.9-8.9-4.7-13.1-7.5c-3.4-2.3-7.1-3.7-11.3-3.4c-1.4,0.1-2.7-0.4-3.9-1.1c-8.8-4.9-18.1-8.9-26.3-14.8c-1.8-1.3-3.8-1.5-6-1
		c-2.6,0.6-5.2,0.9-7.8,0c-1-0.4-2.1-0.1-3.1,0.2c-7.3,2-14.6,3.8-21.6,6.6c-3.7,1.5-7.6,1.8-11.5,2.2c-2.4,0.2-3.2-0.9-2.5-3.3
		c0.3-0.9,0.7-1.8,0.5-2.8c-0.2-0.7-0.6-1.5-1.4-1.4c-0.9,0.1-0.6,1-0.6,1.6c-0.1,1.8,0.1,3.5-0.1,5.3c-0.3,2.2-1.7,3.1-3.8,2.5
		c-0.1-0.1-0.1-0.2-0.2-0.4c2.1-2.4,2.6-5.2,2.2-8.3c-0.4-2.4-0.7-4.7-1.2-7.1c-0.3-1.7,0.3-2.6,1.9-3c1.1-0.3,2.2-0.4,3.3-0.3
		c3.3,0.4,4,1.4,3.1,4.6c-0.6,2-0.6,4.1-0.6,6.2c0,3.1,0.6,3.7,3.8,2.9c5.3-1.3,10.6-2.5,15.8-3.9c8.7-2.3,17.4-4.7,26.1-7.1
		c1.9-0.5,3.8-0.6,5.6,0.3c22.8,11.7,46.8,20.7,70.4,30.9c34.2,14.7,68.5,29.4,102.8,44.1c5,2.1,10.1,4,15.2,5.8
		c1.6,0.6,1.7,1.1,1,2.5c-1.1,2-1.4,4.2-1.1,6.5c0.4,2.6-0.2,3.2-3,3.3c-5.3,0.3-10.7,0.6-16,0.9
		C240.1,187.1,239.5,187.2,239.1,187.6z"/>
	<path class="st6" d="M0.6,116.1c0-1.6,0-3.2,0-4.7c3.7-0.8,7.3-1.7,11-2.5c0,0,0.1,0.2,0.1,0.2c0.5,4.3-0.7,5.6-4.8,5.1
		c-2-0.3-2.7,0.5-2.8,2.4c-0.2,2.9-1.1,3.6-3.5,2.9c0-0.5,0-1,0-1.5C1,117.3,1.2,116.7,0.6,116.1z"/>
	<path class="st3" d="M237.2,195.3c-0.4-1.2-1.4-1.8-2.3-2.6c-1.7-1.6-1.4-2.9,0.7-3.7c1.2-0.5,2.3-0.9,3.5-1.4
		c0.1,0.9,0.3,1.9,0.4,2.8C239.8,192.5,239.2,194.2,237.2,195.3z"/>
	<path class="st7" d="M219.9,228.4c-0.1-3.1,0.6-5.8,3.8-7.3C223.3,224,221.9,226.4,219.9,228.4z"/>
	<path class="st8" d="M233.3,202.4c-0.9-2.7-0.4-3.6,2.3-4.4C235.5,199.9,234.8,201.4,233.3,202.4z"/>
	<path class="st9" d="M213.2,241.4c-0.2-2.4,0.2-4.4,2.7-5.4C215.9,238.2,214.6,239.8,213.2,241.4z"/>
	<path class="st7" d="M210.4,246.7c0.1-1.4-0.9-3.4,1.8-3.5C212.4,244.8,211.4,245.8,210.4,246.7z"/>
	<path class="st10" d="M217.9,232.2c-0.1-1.5-0.7-3.3,1.8-3.4C219.8,230.3,219.1,231.4,217.9,232.2z"/>
	<path class="st11" d="M230,208.7c-0.2-1.5-0.3-3,1.8-3.5C231.9,206.8,231.2,207.9,230,208.7z"/>
	<path class="st12" d="M205.5,255.8c-0.2-1.4-0.1-2.7,1.7-3C207.3,254.1,206.5,255,205.5,255.8z"/>
	<path class="st13" d="M228.5,211.6c-0.6-1.5-0.1-2.5,1.5-2.9C230.2,210,229.6,210.9,228.5,211.6z"/>
	<path class="st14" d="M225.6,217.3c0.1-1.1-0.6-2.7,1.4-2.9C227.4,215.8,226.4,216.5,225.6,217.3z"/>
	<path class="st3" d="M362.9,796.6c-10.6,0-21.2,0-31.7,0c1-5.2,0.7-10.5,0.3-15.7c-0.4-5.5-0.3-10.9,0.3-16.4
		c0.4-3.1-0.2-6-0.7-8.9c-0.6-3.8-0.5-7.4,0.5-11.1c0.1-0.5,0.1-1.1,0.1-1.7c0.3-1.7,0.3-3.5,0-5.2c0.1-3.7-0.8-7.4-0.5-11.2
		c1-13.1,0.3-26.2,0.5-39.3c0-1.6,0.5-2.8,2-3.2c1.4-0.4,2.3,0.5,3.1,1.7c3.4,5.2,4.9,11.1,6.4,16.9c1.9,7.6,3.1,15.3,4.6,22.9
		c1.2,6.1,3.3,12,5,18c3.8,13.6,7.1,27.4,9.2,41.5C362.5,788.8,362.6,792.7,362.9,796.6z"/>
	<path class="st15" d="M448.3,697.3c-0.7-2.2-0.7-4.4,0-6.7C448.3,692.9,448.3,695.1,448.3,697.3z"/>
	<path class="st16" d="M331.8,737.7c0.7,1.7,0.7,3.5,0,5.2C331.8,741.1,331.8,739.4,331.8,737.7z"/>
	<path class="st17" d="M319.7,796.6c-0.3,0-0.7,0-1,0c0.2-1.1,0.4-2.1,0.6-3.2c0.1,0,0.3,0,0.4,0
		C319.7,794.5,319.7,795.5,319.7,796.6z"/>
	<path class="st16" d="M452.7,672.4c0.7,1.6,0.7,3.2,0,4.7C452.7,675.5,452.7,674,452.7,672.4z"/>
	<path class="st3" d="M194,796.6c-13.9,0-27.9,0-41.8,0c-1.4-0.7-1.6-1.9-1.5-3.3c0.1-1.7,0.5-3.3,1.3-4.8c0.6-1.1,1-2.1,0.4-3.4
		c-0.6-1.3-0.1-2.6,0.9-3.5c2.7-2.3,4.5-5.4,6.9-8c1-1.1,2.1-1.8,3.6-1.5c1.2,0.3,2-0.2,2.8-1c1.1-1,2.3-2,4.1-1.7
		c-1.6-2.6-2.8-3-4.9-1.6c-2.7,1.8-5.4,1.8-8.1,0.2c-1.4-0.9-2.7-1.4-4.4-0.4c-1.3,0.8-1.9-0.4-2-1.5c-0.2-1.8,0.8-3.1,1.9-4.2
		c1.3-1.3,2-2.6,0.9-4.5c-0.7-1.2-0.3-2.4,0.6-3.3c2.9-2.9,3.5-6.5,3.6-10.3c0-0.9,0-1.8,0.1-2.6c0.2-1.7,1.1-2.7,2.8-2.8
		c3.2-0.2,6.4-0.3,9.6,0.1c0.8,0.1,1.6,0.3,2.3,0.7c2.2,1.3,2.3,3.2,0.3,4.8c-0.4,0.3-1,0.5-1.3,1.1c0.5,0.4,1.2,0.1,1.8,0.5
		c1.4,0.9,2.3,0.4,2.4-1.3c0-0.2,0-0.5-0.1-0.7c-0.6-4.1,0.5-5.2,4.7-5c0.9,0.1,1.7,0.3,2.6,0.1c0.2,0,0.3-0.2,0.3-0.5
		c-1.9,0-3.9-0.4-5.8-0.3c-6.7,0.3-13.2-0.9-19.9-1.1c-3.2-0.1-4.8-1.5-5-4.6c-0.1-2-0.5-3.9-1.2-5.9c-0.3-1-0.6-2-0.7-3
		c-0.1-0.9,0.5-1.9-0.4-2.8c0.1,3.6-1.7,7-0.9,10.7c0.8,3.9-1,6.3-5.1,6c-2.9-0.2-5.9-0.7-8.8-0.7c-5.5,0-11,0-16.4-1.1
		c-2.3-0.5-3.6,1.3-5.3,2.7c1.1,0.4,2,0.2,2.9,0.2c9,0,18.1,0,27.1,0c1.8,0,3.5,0.2,5,1.3c1.5,1.1,1.8,2.2,0.4,3.6
		c-1.7,1.7-1.9,3.6-1.3,5.7c1.3,4.1,1.4,8.5,2.7,12.6c0.9,2.9-0.6,5.7-1.5,8.4c-0.4,1.1-0.8,2.1,0.5,2.9c0.7,0.4,0.6,1.3,0.4,2
		c-0.9,2.9-0.8,5.9-0.5,8.8c0.5,5.4-0.9,9.8-5.5,12.9c-22.4,0-44.8,0-67.2,0c-1.4-2.8-1-5.9-1.1-8.9c-0.6-8.3,0.4-16.6,1.1-24.8
		c0.4-4-0.1-8,0.4-11.9c0.6-2.2,0.5-4.4,0.2-6.6c0.4-5.3,3-7.4,8.2-6.7c1.5,0.2,3,0.3,4.5,0.1c1.4-0.3,2.8-0.2,4.4-0.1
		c-2.3-0.5-4.5-0.4-6.7,0c-2.7,0.5-5.2-0.8-7.8-1c-1.1-0.1-1.4-1.2-1.5-2.2c-0.2-3.6-0.9-7.3-0.2-11c0.8-4.2,0.6-8.4,0.6-12.6
		c0-1.7-0.1-3.4,0.2-5c0.5-1.7,0.5-3.3,0-5c-0.7-5.5,0.1-11,0.9-16.5c0.3-2.5,0.3-4.9,0.4-7.4c0.1-3.6,4.1-5.9,7.3-4.4
		c1,0.5,1,1.3,0.9,2.2c0.2-0.3,0,0.1,0.1,0c1.1-2.2,2.8-2.8,5-1.7c0.9,0.4,1.7,0.8,2.5-0.2c0.8-1,0.6-1.6-0.1-2.5
		c-0.7-0.8,0.2-8.9,0.9-9.7c0.7-0.9,1.7-1.1,2.8-1c0.8,0.2,1.6,0.2,2.4,0.2c14.3,0,28.5,0,42.8,0c0.8,0,1.6,0,2.4-0.2
		c2.9-0.1,3.4,0.3,3.5,3.1c0,0.4,0,0.8,0.1,1.2c0.3,1.1,0.8,2.5,2,2.3c1.1-0.1,0.4-1.6,0.6-2.5c0.2-1.1-0.9-2.3-0.2-3.2
		c0.9-1.1,2.5-1,3.8-1.3c2.7-0.8,5.3-1,7.9,0.4c1,0.6,2.2,0.2,3.3,0c6.6-1.1,13.3-1.6,20-1.1c1.9,0.5,3.9,0.4,5.8,0
		c2.7,0.4,2.9,0.6,2.2,3.1c-0.2,0.8-0.1,1.4,0.4,2c0.7,0.9,1,1.9,0.8,2.9c-0.6,3.6-0.3,7.1,0,10.7c0.1,1.5,0.1,3-0.2,4.5
		c-0.4,5.4-0.5,10.7,0.1,16.1c0.4,3.6-0.3,7.1-0.4,10.6c-0.1,2.1-0.2,4.3-0.5,6.4c-0.5,1.9-0.6,3.8-0.1,5.6c0.1,4.8-0.1,9.6-1,14.3
		c-0.4,2.3-2.1,3.2-4.3,3.5c-0.3,0.1,0.1,0.6,0,0.3c0-0.1,0-0.1,0.1-0.1c2.4-0.3,4.1,1.1,4.4,3.8c0.3,2.7-0.3,5.4-0.6,8.1
		c-0.5,4.1-0.5,8.2,0,12.3c0.4,3.7,0.1,4.3-2.8,5.4c1.7,0.2,2,1.3,2.3,2.5c0.8,2.7,0.7,5.5,0.3,8.3c-0.7,4.8-0.5,9.7-0.6,14.6
		C194.7,794.3,194.9,795.6,194,796.6z"/>
	<path class="st1" d="M196.3,715.1c0.3-5.8,0.6-11.6,1-17.4c-0.3-5.4-0.3-10.8,0-16.2c0.2-3.1-0.1-6.2-0.4-9.3
		c-0.2-1.9,0.2-3.8,0.4-5.7c0.2-1.2,0.2-2.6-1.2-3.1c-1.4-0.5-1.2-1-0.3-1.8c0.5-0.5,1.3-1,0.9-1.8c-0.4-0.9-1.4-1-2.3-0.9
		c-1.9,0.3-3.8,0.3-5.7,0c-7.2-0.1-14.5-0.1-21.6,1.6c-0.4,0.1-0.9,0.3-1.1,0.1c-3.5-2.8-7.1-1.2-10.7-0.4c-0.4,0.1-0.8,0.1-1.5,0.1
		c1.9,1.9,0.3,4.1,1,6.1c0.3,0.8-0.8,1-1.6,0.8c-1.4-0.4-2.9-3-2.6-4.6c0.3-1.9,0.1-3.3-2.4-2.9c-0.5,0.3-1.1,0.2-1.6,0.2
		c-15,0-30.1,0-45.1,0c-0.6,0-1.1,0.1-1.7-0.2c-1.9,0.1-2.6,1.1-2.5,3c0.1,1.9,0.2,3.7-0.6,5.6c-0.8,1.8,1.3,1.9,2.3,2.7
		c-0.9,0.9-2.1,1.3-2.2,2.7c0,0.8-0.6,0.9-1.2,0.6c-1.4-0.7-2.5-2.2-4.3-1.5c-1.6,0.7-1.7,2.6-2.4,3.9c-1-0.5-0.8-1.4-0.6-1.9
		c1-2.4-0.5-2.3-2.1-2.3c-3.7,0-4.8,1-4.7,4.6c0.1,4.8-0.8,9.5-1.3,14.2c-0.3,3-0.1,6.1-0.1,9.1c0.3,1.6,0.3,3.2,0,4.7
		c0,3.9-0.1,7.8,0,11.7c0,2.6-0.4,5.2-0.8,7.8c-0.6,3.4,0.6,6.8,0.4,10.2c0,0.8,0.9,0.8,1.6,1c4.6,1.2,9.2-0.1,13.8,0.5
		c0.8,0.1,1.8,0.1,1.7,1.2c-0.2,1.2-1.2,0.6-1.9,0.4c-0.8-0.1-1.6-0.3-2.4-0.2c-2.3,0.5-4.5,0.2-6.8,0c-5.1-0.4-6.2,0.6-7.4,6.2
		c0.3,2.1,0.3,4.1,0,6.2c0.2,7.3-0.2,14.5-1.1,21.7c-0.9,8.1-0.1,16.2,0,24.3c-10.4,0-20.8,0-31.2,0c-0.7-0.7-0.3-1.5-0.1-2.2
		c0.3-0.8,0.7-1.6,1.1-2.4c1.9-3.5,1.7-6.5-1-9.6c-2.5-2.8-2.1-5.4,0.6-8.1c1.8-1.8,3.4-3.7,4.3-6.2c0.6-1.8,2.3-3.1,3.9-4.1
		c1.9-1.3,4.2-0.1,5,2.4c0.3,1,0.3,2,0.3,3.1c0,1,0,1.9,0,3.3c1.1-3,0.7-5.7,0.3-8.4c-0.3-1.9-0.4-3.7,0.5-5.4
		c0.6-1.2,0.3-1.8-1-2.3c-2-0.7-2.2-1.6-1.1-3.4c0.6-1,1.5-1.8,2.4-2.7c1-1,1.4-2.1,1.4-3.4c-0.1-1.5-0.5-2.5-2.3-2.2
		c-1.1,0.2-2.2-0.1-3.3-0.3c-3.5-0.7-6.9-1-10.1,1.2c-1.2,0.8-2.6,0.7-4,0.3c-0.9-0.3-1.8-0.6-2.8-0.8c-4.8-1.1-9,1.9-8.7,6.7
		c0.5,7.6-0.3,15.2,1.2,22.7c0.2,1.2-1,2.7,0.5,3.4c1,0.5,2.4,0.1,3.6,0.1c0.2,0,0.3,0,0.5,0c1.3,0.1,2.9,0.1,2.9,1.8
		c0.1,1.9-1.6,1.9-3,2c-4.4,0.3-5.6,2.3-3.3,6.1c1.8,2.9,2.1,5.6,0.2,8.5c-7.5,0-15,0-22.5,0c-1.3-2.4-0.8-5-0.8-7.5
		c0-2.2,0.1-4.5,0.4-6.7c0.3-2.3-1.1-4-3.9-5.1c-2.5-1-3.4-0.7-5.1,1.4c-0.4,0.5-0.7,1.2-1.5,0.6c0-5.6,0-11.2,0-16.8
		c1.3-2.1,3.6-2.2,5.7-2.5c1.3-0.2,2.7,0,4.1-0.1c2.5-0.1,3.1-0.8,2.9-3.3c-0.2-1.7-0.5-3.3-0.4-5c0.1-0.8-0.1-2,1-2.2
		c1-0.2,1.2,0.9,1.5,1.6c0.7,2.1,1.7,4,3.4,5.4c1.1,1,1,2-0.4,2.6c-1.3,0.6-1.8,1.5-1.5,2.9c0.3,1.4,1.2,1.7,2.4,1.8
		c1.9,0.2,3.2,1.2,4.1,2.9c0.3,0.6,0.7,1.5,1.5,1.3c1-0.2,0.7-1.3,0.7-2c0-2.2,0.1-4.5-0.3-6.7c-0.5-2.8,0.2-5.4,1.5-7.8
		c0.9-1.7,0.8-3.2-0.4-4.7c-0.3-0.4-0.6-0.8-1.2-0.6c-0.5,0.1-0.7,0.6-0.8,1.1c-0.3,1,0.1,1.9,0.5,2.8c0.5,1.2,0.7,2.5-0.7,3.1
		c-1.5,0.6-2.1-0.6-2.6-1.8c-0.4-1-0.8-2.1-0.8-3.2c0-1.7-0.8-2.7-2.5-3c-3.3-0.1-6.6-0.1-9.9,0c-1.9,0.1-3.8,0-5.6,0
		c-0.9,0-1.7-0.1-2.4-0.8c0-0.5,0-0.9,0-1.4c0.5-1.1,1.4-1.2,2.4-1.2c4.8,0.2,9.5-0.8,14.2-0.5c1.9,0.2,3.7,0.1,5.6,0.1
		c0.8-0.2,1.8,0.2,2.7-0.6c-1.9-1-3.8-1.6-5.8-1.6c-2.8,0.1-4.3-1.4-5.4-3.6c-2.3-4.9-2.7-9.8-0.4-14.8c0.8-1.6,1.6-3.1,2.2-4.8
		c1.3-3.4,1.8-6.8,0.5-10.3c-0.4-1.1-0.7-2.2-0.5-3.3c0.6-3.3,0.3-6.7,0.4-10.1c0.1-4.2,2.1-5.8,6.2-5c4.9,0.9,4.9,0.9,4.8-4.1
		c-0.1-6.7,0.5-13.4-0.5-20.1c0-0.2,0-0.3-0.1-0.5c-0.5-3.6-0.7-3.7-4.4-3.9c-4.7,0-9.3-0.1-14,0c-2.7-0.2-5.5,0.8-8.1-0.8
		c0-0.5,0-0.9,0-1.4c1.7,0,3.5,0,5.2-0.1c1.7-0.3,3.5-0.3,5.2,0c3.4,0,6.7,0,10.1,0c5.6,0,8.4-3.5,7-8.9c-1.1-4.2-1.8-8.4,0.1-12.6
		c0.3-0.7,0.4-1.7,0-2.3c-1.9-3.4-0.2-6.4,1.1-10.1c1.2,3.3,2.7,5.7,5.2,7.7c1.4,1.1,0.5,3.1-0.6,4c-1.8,1.6-2.1,3.4-2.3,5.7
		c-0.3,3.2-1.6,6.3-1.4,9.6c0.1,2,1,3.5,1.9,5.1c0.6,1.1,1.8,1.1,2.8,0.8c4.1-1.3,8-1.2,12.3-0.2c4.8,1.1,10,0.4,15,0.2
		c1.8-0.1,3.7-0.7,4.2-3.2c0.3-1.5,1.5-1.9,3-1c0.8,0.5,1.7,0.9,2.7,1.5c0.2-1.1-0.5-1.6-0.8-2.2c-2.2-3.8-0.4-9.8,3.4-11.7
		c0.3-0.2,0.6,0.1,0.8,0.4c0.3,1.6,0.3,3.1,0,4.7c0.4,1,0.7,2.7,1.9,2.2c1.1-0.4,3-0.8,2.8-2.9c-0.1-0.9,0.4-1.9,0.4-2.8
		c0-1.6,0.9-2,2.2-2.1c2.9-0.2,2.8-0.1,2.7,2.8c-0.1,2.9-0.9,4.9-3.7,6.3c-2,0.9-1.2,5.4,0.9,6.8c2.3,1.5,4.8,1.7,7.3,1.2
		c3.1-0.6,6.1-2.3,9.2-0.2c0.1,0.1,0.4,0.1,0.4,0.1c2.8-2.2,5.4,0.2,8.1,0.4c2.7,0.2,5.4,0.2,8-0.2c2.9-0.4,5.7-0.3,8.6-0.5
		c2.2-0.3,4.4-0.3,6.6,0c9.7,0,19.4,0.4,29-0.1c10.4-0.5,20.7-0.1,31.1-0.4c2.9-0.1,5.7-0.7,8.6-0.5c4.2,0.3,8.4,0.9,12.6,0.9
		c7,0.1,14-0.3,21-0.9c2.2-0.2,4.5-0.3,6.6,0.8c0.8,0.4,1.7,0.8,1.2,2c-0.6,1.4-1.4,0.5-2.1,0.1c-1.2-0.7-2.5-1.1-3.9-1
		c-3.7,0.2-7.3-0.2-11,0.4c-1.9,0.3-4,0-5.9-0.5c-2.2-0.6-4.3-0.1-6.4,0.2c-1.8,0.3-2.7,1.1-1.1,2.7c-2.1,0.5-4.1,0.4-6.2,0.1
		c-1.3,0.5-1.4,1.5-1.5,2.7c-0.6,10-0.5,20.1-0.4,30.2c0,4.5,0.3,9,1.3,13.5c0.2,1.1,0.3,2.3-0.5,3.2c-2.2,2.4-2.4,5.2-1.8,8.2
		c0.9,4.8,1.1,9.6,1,14.5c-0.1,3.8,0.6,5,4.1,7.2c-4.6,1.2-5.4,5.1-4.9,8.4c1,6,0.1,11.9-0.2,17.8c-0.2,4.2,0,8.3,0,12.5
		c0.3,1.4,0.3,2.8,0,4.2c0,5.1,0,10.2-0.1,15.3c-2.5,0-5.1,0-7.6,0c0-6.9-0.3-13.8,0.9-20.7c0.4-2.2-0.5-4.4-0.9-6.6
		c-0.3-1.3-1-0.9-1.8-0.6c-0.5,0.2-1.2,0.3-1.4-0.4c-0.2-0.8,0.5-1,1-1c3.3-0.1,3.4-2.3,3.1-4.7c-0.3-4.1-0.3-8.3,0-12.4
		c0.2-2.1,0.3-4.3,0.5-6.4c0.4-4-1.5-5.1-4.8-5.3c0-0.1,0-0.3,0.1-0.4c4.1-0.6,5.1-3.6,5.1-7.1c-0.1-3.6,0.8-7.1,0.5-10.7
		C196,718.6,196,716.9,196.3,715.1z"/>
	<path class="st1" d="M0.6,119.4c2.2,0.1,2.9-1.1,2.8-3.1c0-3.1,0.5-3.5,3.5-2.8c3,0.6,3.9,0,4.1-3c0-0.6,0.1-1.1,0.6-1.5
		c2.1,0.4,3.2-0.6,3.3-2.6c0.1-2.2,0-4.5,0-6.7c0-1.2,0.4-1.4,1.5-0.9c2.2,1,2.8,2.5,1.8,5.1c-0.3,0.8-1.2,1.5-0.5,2.4
		c0.7,0.9,1.7,0.4,2.6,0.4c8.3-0.1,15.4-4.4,23.2-6.3c3.1-0.7,6.2-1.6,9.2-2.5c1.6-0.4,3-0.5,4.6,0.2c2.1,0.9,4.4,0,6.6-0.5
		c2.1-0.5,4.2-0.3,5.9,1c5.6,4.4,12.1,7.1,18.2,10.5c2.2,1.3,4.6,2.2,6.7,3.6c2.4,1.6,5,1.7,7.7,1.8c2.9,0.1,5.6,1,7.8,2.7
		c5.8,4.3,12.2,7.2,18.6,10.3c4.8,2.4,9.1,5.7,14,7.7c1.8,0.7,3.5,1.4,5.3,2.2c0.4,0.2,1,0.4,0.9,1c-0.1,0.5-0.7,0.6-1.2,0.6
		c-1.5-0.1-3-0.5-4.5-0.4c-8.4,0.4-16.9,0.5-25.3,1.4c-0.9,0.1-1.8,0.1-2.6,0c-8.6-0.1-17.2,0.7-25.7,1.3
		c-5.2,0.4-10.4,0.1-15.6,0.1c-14.1,0-28.2,1.4-42.4,1c-1.8,0-3.6,0.4-5.4,0.7c-3.1,0.5-6.1,0.9-9.1-0.4c-3-1.3-6.1-0.8-9.2-0.2
		c-2.5,0.5-5,1.2-7.4,1.7C0.6,136,0.6,127.7,0.6,119.4z"/>
	<path class="st3" d="M23,658c4.6-0.3,4,0.3,4.8,4.6c0.9,4.7,0.4,9.4,0.5,14.1c0.1,3,0,5.9,0,8.9c0,3.2-0.9,3.8-4,2.9
		c-1.3-0.4-2.6-0.7-4-0.6c-1.9,0.2-3,1.2-3,3c-0.2,4.1,0.3,8.1-0.5,12.2c-0.1,0.6,0.1,1.3,0.3,1.8c1.9,4.6,0.9,8.9-1.1,13.1
		c-1.1,2.4-2.4,4.6-2.8,7.3c-0.6,4.3,0.4,8.2,2.7,11.7c0.7,1,1.5,1.6,3,1.3c2.7-0.4,5.1,1,7.5,1.8c0.9,0.3,0.6,0.8,0.1,1.2
		c-1.1,0.9-2.4,0.7-3.7,0.6c-1.9-0.3-3.8-0.3-5.7,0c-4.9-0.1-9.8,0.8-14.7,0.6c-0.7,0-1.4,0.1-2,0.5c0-15.2-0.1-30.3-0.1-45.5
		c0-13.2,0-26.3,0.1-39.5c2.7,0,5.4,0,8.1,0.1C13.5,658.3,18.3,658.3,23,658z"/>
	<path class="st3" d="M34.1,796.6c1-3.5,0.4-6.6-1.6-9.8c-1.7-2.7,0.3-5.3,3.6-5.5c0.6,0,1.3,0,1.9,0c0.8,0,1.8,0,1.8-1.1
		c0-1.2-1-1.3-1.9-1.3c-1.1,0-2.2,0-3.4,0c-1,0-2,0.1-3.4,0.2c1.9-2.8,0.2-5.5,0.2-8.2c0-6.5-0.4-12.9-0.5-19.4
		c-0.1-4.9,4.9-8.6,9.5-6.9c3.2,1.1,5.9,1.2,9-0.7c2.6-1.6,5.7-0.2,8.6,0.1c0.7,0.1,1.4,0.2,2.1,0.3c1,0.1,2.2-1.3,2.9,0.4
		c0.7,1.8,1.1,3.7-0.3,5.4c-1,1.2-2.2,2.1-3.1,3.3c-0.8,1.1-1.6,2.4,1,2.6c1.7,0.1,2.8,0.7,1.3,2.9c-1.9,2.8-0.2,6.1-0.2,9.1
		c0,2.3-0.1,4.5-2.1,6.2c0-1.9,0-3.8,0-5.6c0-1.1-0.1-2.1-0.6-3c-0.8-1.7-2.8-2.1-4.1-0.8c-1.7,1.7-3.7,3.2-4.1,6
		c-0.3,1.7-2.1,2.5-3.3,3.7c-3,3.1-3.2,5-0.3,8.2c2.2,2.5,2.8,5.1,1.2,8.3c-0.9,1.8-2.1,3.6-2.3,5.7
		C42.1,796.6,38.1,796.6,34.1,796.6z"/>
	<path class="st1" d="M144.5,796.6c-0.2-1.1,0.5-1.8,1.4-2.3c2.4-1.6,3.5-3.8,3.4-6.7c0-3,0-6.1,0-9.1c0-1.3,0.2-2.6,0.7-3.7
		c0.5-1.1,0-1.9-1-1.9c-1.7,0-0.8-1-0.6-1.5c2.7-5,2.5-10.1,0.8-15.4c-0.8-2.5-0.9-5.3-1.7-7.9c-0.6-2-0.1-4,1.8-5.3
		c1.5-1,0.9-1.8-0.2-2.5c-1.2-0.8-2.5-1.2-4.1-1.2c-9.8,0-19.7,0-29.5,0c-1.1,0-2.2,0.2-3.2-1.2c1.7-0.2,2.7-1.2,3.6-2.2
		c1.7-1.8,3.8-1,5.6-0.7c3.4,0.5,6.6,1.3,10.1,0.9c4-0.4,7.9,0.2,11.9,0.8c3.2,0.5,5.2-0.3,5.9-2.6c0.2-0.6,0.3-1.1,0.1-1.6
		c-1.8-4,0.9-8,0.4-12c-0.1-0.7,0.6-1.4,1.5-1.2c0.8,0.1,1,0.9,0.8,1.5c-1.3,4.4,2,8.1,1.6,12.4c-0.1,1.7,1.3,3.1,3.5,3.2
		c7.8,0.4,15.6,0.9,23.3,1.4c0.8,0,1.6-0.1,2.4-0.3c1-0.2,2.1-0.1,2.2,1.1c0.2,1.4-1.1,1.1-1.9,1.1c-1.8,0-3.6-0.5-5.4,0
		c-1.5,0.4-2,1.1-1.6,2.6c0.9,3.3,0.9,3.3-2,6.2c-0.5-0.2-0.6-0.6-0.5-1c0.4-1.5-0.3-1.7-1.5-1.3c-0.5,0.2-1.1,0.9-1.5-0.1
		c-0.3-0.7,0.2-1.2,0.7-1.6c0.3-0.2,0.7-0.4,1.1-0.5c0.8-0.4,1.9-0.8,1.6-2c-0.2-1.1-1-1.9-2-2.1c-3.9-1-7.8-0.5-11.7-0.4
		c-1.3,0-1.6,1.3-1.6,2.5c0,2.1,0.1,4.1-0.3,6.2c-0.5,2.6-1.4,4.9-3.4,6.7c-1,0.9-1.6,1.9-0.4,3.1c1.5,1.6,0.9,2.8-0.4,4.1
		c-1.3,1.2-2.6,2.4-2.6,4.4c0,0.5,0,1,0.4,1.3c0.6,0.4,0.9-0.2,1.2-0.5c1.1-1.3,2.2-1,3.4-0.2c3.3,2.3,6.5,2.9,9.7-0.2
		c1.1-1,2.1-0.2,3,0.3c1.1,0.7,2.2,1.3,2.4,2.8c0.1,0.7-0.4,1.3-1,0.9c-2.3-1.6-3.1,0.6-4.3,1.6c-0.9,0.8-1.3,1.7-2.6,0.7
		c-0.9-0.6-2-0.3-2.8,0.6c-1.5,1.8-2.9,3.6-4.3,5.4c-0.6,0.8-1.1,1.6-1.9,2.1c-1.9,1.3-3.3,2.7-1.2,5c0.7,0.8-0.3,1.2-0.6,1.8
		c-1.7,2.8-2.9,5.6-1,8.7C149.6,796.6,147.1,796.6,144.5,796.6z"/>
	<path class="st3" d="M0.6,744.3c2.7,0,5.4,0,8.1,0.1c3.5,0.3,7,0.3,10.5,0c1.8,0.5,2.7,1.6,2.5,3.5c-0.1,1.2,0.4,2.2,0.7,3.2
		c0.3,0.9,0.4,2.2,1.8,1.7c1.3-0.5,1-1.7,0.3-2.6c-1.2-1.5-0.8-3-0.1-4.5c0.4-0.9,0.9-1.1,1.9-0.5c2.3,1.6,2.8,4,1.4,6.5
		c-1.4,2.6-1.8,5.3-1.3,8.3c0.4,2.5,0.2,5.1,0.2,7.6c0,0.8-0.3,1.4-1.2,1.6c-0.8,0.1-1.5-0.2-1.7-0.9c-1-2.7-2.7-4.1-5.8-3.9
		c-2.2,0.1-1.2-2.2-1.8-3.4c-0.5-1.1,0.3-2,1.5-2.3c1.9-0.4,2.1-1,0.5-2.1c-2.4-1.7-2.6-4.6-4-7.3c-0.7,2.1-0.5,3.9-0.2,5.6
		c0.2,0.9,0.2,1.7,0.3,2.6c0.1,2.2-0.9,3.1-3,3c-3.6-0.2-7.2-0.1-10.4,1.9C0.6,756.5,0.6,750.4,0.6,744.3z"/>
	<path class="st3" d="M0.6,779.4c0.2-0.1,0.5-0.1,0.6-0.2c2-3.3,2.9-3.7,6-2.6c3.7,1.4,4.7,3.3,4.5,6.7c-0.3,4.4-0.1,8.9-0.1,13.3
		c-3.2,0-6.4,0-9.6,0.1c-1.2,0-1.5-0.4-1.5-1.5C0.6,789.9,0.6,784.6,0.6,779.4z"/>
	<path class="st1" d="M447.9,796.6c0-3.3-0.1-6.5,0.7-9.7c0.4-1.7-0.5-3.2-2.1-4.2c-1.1-0.7-1.4-1.2,0.1-1.9c2-0.9,1.4-3,1.6-4.6
		c0.2-1.7,0-3.5,0.9-5.3c2.8,2.9,2.8,6.2,2.3,9.8c-0.3,2.1-0.5,4.2-0.7,6.4c0.3,3.2,0.4,6.3-0.1,9.5
		C449.8,796.6,448.8,796.6,447.9,796.6z"/>
	<path class="st3" d="M0.6,213.9c1.7,6.2,2.4,12.5,3.6,18.8c0.5,2.7-1.2,5.3-3.6,6.2C0.6,230.6,0.6,222.3,0.6,213.9z"/>
	<path class="st15" d="M450.7,796.6c0-3.2,0-6.3,0.1-9.5c1,3.1,0.2,6.3,0.4,9.5C451.1,796.6,450.9,796.6,450.7,796.6z"/>
	<path class="st18" d="M0.6,116.1c1.7,0.6,0.8,1.2,0,1.9C0.6,117.3,0.6,116.7,0.6,116.1z"/>
	<path class="st1" d="M427.6,654.8c2.4-3.1,2.5-3.1,5.6-1.5c2.1,1.1,4.2,0.6,6.2,0c1.7-0.4,3.3-0.6,4.9,0.1c0.5,0.2,1.1,0.6,1,1.2
		c-0.1,0.6-0.7,0.5-1.2,0.5C438.6,655,433.1,656.4,427.6,654.8z"/>
	<path class="st1" d="M438.5,762c-0.3-0.5-0.6-0.8-0.7-1.2c-0.4-1.4-2.5-2.8-1-4.2c1.7-1.7,4.9-1.1,6.8,0.5c1.5,1.2,1.4,3.9,4,4
		c0.4,0,0.1,0.8-0.1,1.3c-0.6,1.6-1.2,3.1-1.9,4.6c-1.2,2.6-1.9,5.2-1.7,8.1c0.1,0.9,0.3,2.2-1.3,1.9c-1.2-0.2-1.1-1.1-0.8-2
		c0.6-2.2,0-4.3-0.5-6.3c-0.5-2.1-0.3-4.3-0.2-6.4c0-0.6,0.7-1.3,0-1.7c-0.8-0.5-1.3,0.3-1.8,0.8C439.3,761.4,439,761.6,438.5,762z"
		/>
	<path class="st1" d="M7.3,492.5c2-0.4,3.4,0.4,4.9,0.4c1.9,0,3.1-0.4,3.3-2.5c0.1-1.5,0.9-1.8,2.2-0.9c1.4,0.9,2.3,2.2,3.1,3.6
		c1.7,2.8,3.3,3.4,5.1,1.9c1.1-0.8,2.2-1.7,0.1-2.8c-0.4-0.2-1-0.6-0.7-1.1c0.2-0.3,0.8-0.5,1.2-0.6c2.2-0.1,7.3,4.4,7.4,6.6
		c0,1.1-0.5,2.1-1.4,2.6c-1.6,0.9-1.6,2-0.9,3.4c0.4,0.7,0.7,1.5,0.1,2.2c-0.6,0.7-1.3,0.3-2,0.1c-3.2-0.7-6.5-0.7-9.5-1.9
		c-0.7-0.3-1.6-0.5-2.2-0.9c-1.9-1.7-3.9-2.7-6.6-2.1c-1.6,0.3-1.9-0.9-1.6-2.4c0.4-1.9-0.5-3.1-2.4-3.3c-1.1-0.1-2.6,0-2.5-1.5
		C5.1,491.5,6.8,492.8,7.3,492.5z"/>
	<path class="st15" d="M70.6,437.1c0-20.3,0-40.6,0-60.9c0.7,0.7,0.4,1.7,0.4,2.5c0,18.6,0,37.2,0,55.9
		C71.1,435.5,71.4,436.4,70.6,437.1z"/>
	<path class="st19" d="M7.1,498.6c-0.1,0.7-0.5,0.9-1.1,1c-0.5,0-1-0.1-1-0.7c0-0.6,0.3-1.1,1-1.1C6.5,497.6,6.9,497.9,7.1,498.6z"
		/>
	<path class="st16" d="M131,655c-2.2,0-4.4,0-6.6,0C126.6,654.4,128.8,654.3,131,655z"/>
	<path class="st16" d="M204.6,659c2.1,0,4.1-0.1,6.2-0.1C208.7,659.8,206.6,659.6,204.6,659z"/>
	<path class="st16" d="M11,656.5c-1.7,0-3.5,0-5.2,0C7.6,655.8,9.3,655.8,11,656.5z"/>
	<path class="st15" d="M75.5,644c0-1.6,0-3.1,0-4.7C76.1,640.9,76.1,642.4,75.5,644z"/>
	<path class="st16" d="M201.7,781.3c0-1.4,0-2.8,0-4.2C202.4,778.4,202.4,779.9,201.7,781.3z"/>
	<path class="st3" d="M37.5,416.3c-0.7-4,3.6-6,7.4-6.5c1-0.1,2.2,0.5,2.8-0.7c0.4-0.8,0.1-1.6-0.5-2.2c-0.9-0.9-2.1-1.2-3.3-0.7
		c-0.7,0.2-1.3,0.5-2,0.9c-0.8,0.4-1.7,0.6-2.5,0c-0.7-0.6-0.5-1.5-0.4-2.2c0.1-1,0.8-1.6,1.8-1.7c2.4-0.1,4.7-0.5,7.1,0
		c2.1,0.4,3,1.9,3.1,3.8c0.1,4.5-0.1,8.9,1.9,13.1c0.3,0.7-0.1,2-1,1.6c-3.1-1.6-6.1,0-9.2-0.2C38.8,421.1,37.5,420,37.5,416.3z"/>
	<path class="st16" d="M11.6,250.9c1.7-0.7,3.5-0.7,5.2,0C15.1,250.9,13.3,250.9,11.6,250.9z"/>
	<path class="st16" d="M124.9,276.4c0.7,1.7,0.7,3.5,0,5.2C124.9,279.9,124.9,278.1,124.9,276.4z"/>
	<path class="st3" d="M220.5,200c0.8,0,1.6,0,2.4,0c3.5,0,3.9,0.8,2.3,3.9c-8.5,15.8-17.1,31.6-25.6,47.4c-0.3,0.6-0.8,1.2-1.2,1.8
		c-0.6,0.8-1.5,0.9-2.4,0.6c-1-0.3-0.9-1.1-1-2c-0.1-1.8,0.6-3.4,1.2-5.1c5-13.4,10.1-26.8,15.1-40.3C213.5,200.5,214,200,220.5,200
		z"/>
	<path class="st3" d="M78.3,217.3c-5.8-0.2-11.6,0.3-17.5,0.6c-2.4,0.1-3.6-0.9-4-3.1c-0.3-1.6-0.6-3.3-0.6-5
		c-0.1-2,1.6-3.4,3.8-3.5c1.9-0.1,3.8-0.1,5.8,0c5.3,0.2,10.5-0.9,15.7-1c2.2-0.1,3.3,0.7,3.7,2.8c0.3,1.6,0.9,3.2,1.2,4.9
		c0.4,2.9-0.8,4.3-3.8,4.4C81.1,216.9,79.7,217,78.3,217.3z"/>
	<path class="st3" d="M185.3,244.4c0.4-10.2,2.6-20.2,6.2-29.7c1.2-3.3,3-3.8,6.5-2.3c3.4,1.4,3.8,2.5,2.5,5.9
		c-3.9,10-7.7,20.1-11,30.3c-0.4,1.2-1.1,2.3-2.5,2.1c-1.4-0.2-1.8-1.3-1.7-2.7C185.4,246.9,185.3,245.6,185.3,244.4z"/>
	<path class="st3" d="M32.7,228.9c0-0.5,0-1,0-1.5c0.3-1.6,0.3-3.1,0-4.7c0.1-3.9-0.5-7.8,0.4-11.7c0.5-2.2,1.8-3,3.9-3.2
		c0.2,0,0.5,0,0.7,0c7.2-0.1,7.2-0.1,5.8,7c-1.2,5.8-2.1,11.7-3.1,17.6c-0.3,2-1,3.7-3.4,4c-1.8,0.3-3.3,0-4.2-1.8
		C33,232.7,33.1,230.8,32.7,228.9z"/>
	<path class="st3" d="M143,157.8c0.2,0,0.8,0.1,1.4,0.4c8.8,4.3,18.2,6.8,27.3,10.1c4.4,1.6,8.6,3.8,12.9,5.7
		c0.8,0.3,1.9,0.7,1.4,1.8c-0.4,1-1.5,1.4-2.6,1c-13.4-4.5-27.4-7.3-40.6-12.3c-1.7-0.6-3.6-1.1-3.5-3.6
		C139.3,158.7,140.2,157.7,143,157.8z"/>
	<path class="st3" d="M46.1,180.3c-0.1,2.3,0,5.1,0.7,7.8c0.4,1.5-0.4,2.3-1.8,1.5c-1.7-0.9-3.2-0.6-4.7,0.3c-1.9,1.2-4,1.3-6,0.8
		c-2.4-0.6-4.5-2.9-4.5-5c0-3.7,0.9-6.1,3.6-7.2c1.7-0.7,3.5-1.2,5.3-1.1c1.3,0.1,2.7,0.3,3.3-1.2c0.4-1,0.3-2.2-0.5-2.9
		c-1-0.9-2.3-1.3-3.7-0.9c-1.3,0.4-2.6,0.8-3.9,1.3c-1.3,0.5-2,0-2.3-1.2c-0.4-1.3,0.4-1.8,1.3-2.1c2.9-0.8,5.8-1.5,8.9-0.6
		c2.4,0.7,4.1,2.6,4.2,5.2C46.2,176.6,46.1,178.2,46.1,180.3z"/>
	<path class="st3" d="M157.4,242.8c-0.9-0.2-2.2-0.4-3.4-0.8c-1.6-0.6-2.3-1.7-1.6-3.4c1.7-4.5,3.4-9,5.3-13.3
		c1.2-2.7,6.1-4.2,9-3.2c1.4,0.5,1.9,1.2,1.3,2.7c-1.9,5-3.7,10-5.5,15C161.7,242,159.9,242.7,157.4,242.8z"/>
	<path class="st3" d="M108,204.4c3.6,0.5,4.1,1.2,3.5,4.8c-0.3,1.7-0.6,3.3-1,4.9c-0.4,1.3-1.4,2.3-2.6,2.2
		c-2.8-0.2-5.7,0.5-8.4-0.5c-3.7-1.4-5.6-5.9-3.9-9.4c1-2,2.9-2,4.8-1.9C102.9,204.7,105.5,204.7,108,204.4z"/>
	<path class="st3" d="M67.4,236.1c-1.5,0-3,0-4.5,0c-1.9,0.1-3-0.8-3.3-2.7c-0.1-0.5-0.3-1.1-0.4-1.6c-0.5-3.7,0.8-5.4,4.5-5.3
		c3.7,0.1,7.3-0.7,10.9-0.5c2.4,0.1,2.9,0.7,2.5,3.1c-0.1,0.9-0.1,1.7-0.2,2.6c-0.1,2.8-1.4,4.2-4.2,4.4
		C70.9,236.1,69.1,236,67.4,236.1C67.4,236.1,67.4,236.1,67.4,236.1z"/>
	<path class="st3" d="M131.5,210.5c0-5.2,1.5-6.7,6.7-7.1c1.2-0.1,2.4-0.4,3.5-0.5c1.9-0.2,2.8,0.7,2.8,2.7
		c-0.1,5.5-6.4,10.4-11.6,8.8C130.8,213.7,131.8,211.7,131.5,210.5z"/>
	<path class="st3" d="M153,214c-0.4,0-0.9,0-1.5,0c-2.2-0.1-3.1-1.1-2.6-3.2c0.3-1.6,0.8-3.2,1.3-4.8c1.4-4.2,6-5.9,9.9-3.8
		c0.9,0.5,0.9,1.3,0.7,2.1c-0.8,2.7-1.5,5.5-2.7,8.1C157,214.5,155,213.9,153,214z"/>
	<path class="st3" d="M130.9,237c-2.9,0-4-1.2-3.6-3.9c0.3-2,0.5-4.1,1-6.1c0.8-3.2,5.1-4.9,7.8-3.3c1.2,0.7,0.9,1.9,0.6,2.8
		c-1,3-2.1,5.9-3.1,8.8C133.1,236.6,132.1,237.2,130.9,237z"/>
	<path class="st3" d="M88.8,230.9c0.4,3.7-0.1,4.6-4.1,4.7c-5.8,0.1-6-0.1-6-3.1c0-5.4,1.4-7.4,5.5-7.4
		C87.8,225,88.8,226.2,88.8,230.9z"/>
	<path class="st3" d="M166.8,213.5c-1,0-1.8,0-2.7,0c-1-0.1-1.6-0.8-1.3-1.6c0.5-1.3,0.3-2.7,0.6-4c0.9-3.9,6.5-5.5,9.5-2.9
		c1.7,1.5,1.8,4.4,0.1,6.3C171.3,213.1,169.2,213.8,166.8,213.5z"/>
	<path class="st3" d="M102.6,224c4.3,0,4.7,0.5,4.1,4.5c-0.2,1.1,0,2.2-0.1,3.4c-0.1,2.5-1,3.6-3.1,3.7c-3.4,0.2-4.8-0.6-5.1-3.3
		c-0.2-2.1-0.3-4.2,0-6.2C98.9,223.5,101.3,224.3,102.6,224z"/>
	<path class="st3" d="M150.9,222.6c2.3,0,2.9,0.7,2.4,2.7c-1,4.1-2,8.2-4.3,11.8c-0.4,0.7-0.9,1.3-1.5,1.9c-0.3,0.3-0.7,0.5-1.1,0.3
		c-0.6-0.2-0.5-0.8-0.4-1.2c0.8-4.5,1.6-9,2.4-13.5C148.7,223.2,149.5,222.4,150.9,222.6z"/>
	<path class="st3" d="M52.6,236c-1.2-0.1-2.6,0.4-3.5-1.2c-0.7-1.3-0.1-5.7,0.9-6.9c1.3-1.6,3.1-1.2,4.7-0.9
		c1.7,0.3,2.8,3.4,2.4,6.7c-0.2,1.8-1.6,2.4-3.3,2.3C53.4,236,53.1,236,52.6,236z"/>
	<path class="st3" d="M145.9,225.7c-0.4,1.5-0.8,2.7-1.1,4.1c-0.5,2-0.7,4-0.8,6.1c-0.1,2.6-2.4,3.8-4.6,2.5
		c-0.7-0.4-1.2-0.9-0.9-1.7c1.2-3.8,1.9-7.7,4.3-11.1c0.6-0.8,1.2-1.3,2.2-1C145.6,224.8,145.9,225.2,145.9,225.7z"/>
	<path class="st3" d="M13,216.4c0,1.6,0,3.2,0,4.8c0,1-0.4,1.6-1.3,1.7c-0.8,0.1-1.3-0.5-1.5-1.2c-0.7-3.2-1.4-6.5-1.9-9.7
		c-0.2-1.5,0.7-2.6,2.3-2.7c1.7-0.1,2.4,0.8,2.4,2.5C13,213.3,13,214.8,13,216.4C13,216.4,13,216.4,13,216.4z"/>
	<path class="st3" d="M27.4,219.6c-2.3-0.9-2.8-2.6-2.9-4.5c0-1.5,0.1-3-0.5-4.5c-0.6-1.3-0.1-2.1,1.1-2.3c1.4-0.3,2.2,0.5,2.2,1.8
		C27.4,213.2,27.4,216.2,27.4,219.6z"/>
	<path class="st20" d="M123.1,205.4c-0.1,3.1-0.6,5.4-1.2,7.7c-0.2,0.9-0.7,1.8-1.7,1.7c-1.2-0.1-1.3-1.1-1.1-2
		c0.4-2.4,0.8-4.8,1.3-7.2c0.2-0.9,0.7-1.4,1.7-1.2C123.1,204.5,123.1,205.4,123.1,205.4z"/>
	<path class="st3" d="M197.3,201.1c2.2-0.2,4.4-0.4,6.6-0.6c1.4-0.1,2.5,0.2,2.5,1.8c0,1.5-1,2.5-2.6,2.5
		C201,204.9,199.2,202.9,197.3,201.1z"/>
	<path class="st3" d="M171.4,232.4c0.2-1.9,1.3-3.9,2.2-5.9c0.2-0.5,0.8-1.2,1.5-0.8c0.6,0.3,1.2,0.9,1,1.7c-0.5,2-1.1,4-1.7,5.9
		c-0.3,0.9-0.9,1.9-2.1,1.6C171.2,234.7,171.4,233.6,171.4,232.4z"/>
	<path class="st3" d="M54.8,216.4c0,0.3-0.1,1.3-1.4,1.3c-1.9,0-1.5-1.5-1.5-2.6c0-0.9-0.1-2.2,1.2-2.1
		C54.6,213.2,54.8,214.5,54.8,216.4z"/>
	<path class="st16" d="M103.3,151.5c2.5-0.7,5.1-0.7,7.6,0C108.4,151.5,105.8,151.5,103.3,151.5z"/>
	<path class="st15" d="M108,204.4c-2.5,0.7-5.1,0.7-7.6,0C102.9,204.4,105.5,204.4,108,204.4z"/>
	<path class="st16" d="M32.7,228.9c0.7,1.9,0.7,3.8,0,5.7C32.7,232.7,32.7,230.8,32.7,228.9z"/>
	<path class="st16" d="M32.7,222.6c0.7,1.6,0.7,3.2,0,4.7C32.7,225.8,32.7,224.2,32.7,222.6z"/>
	<path class="st15" d="M78.3,217.3c1.4-0.7,2.8-0.7,4.3,0C81.1,217.3,79.7,217.3,78.3,217.3z"/>
	<path class="st1" d="M178.1,276.9c0-2.4,0.6-3,2.8-2.4c1.4,0.4,2.8,0.3,4.3,0.4c0.6,0,1.1,0,1.7,0.1c1.2,0.4,2.6,1,2.5,2.2
		c-0.1,1-1.7,0.9-2.6,1c-2.2,0.1-4.2,0.3-6.3,1.2C179,280.1,178.1,279.1,178.1,276.9z"/>
	<path class="st15" d="M99.9,659.9c16.1,0,32.3,0,48.4,0c-0.7,0.7-1.5,0.4-2.3,0.4c-14.6,0-29.2,0-43.9,0
		C101.4,660.3,100.6,660.6,99.9,659.9z"/>
	<path class="st1" d="M100.6,738.5c2.4-1.7,5.2-1.2,7.6-2.3c0.5-0.2,1.1,0.1,1.2,0.8c0.1,0.6,0.1,1.5-0.7,1.5
		C106,738.6,103.3,738.5,100.6,738.5z"/>
	<path class="st16" d="M197.3,681.5c0,5.4,0,10.8,0,16.2c-0.9-1.9-0.4-3.9-0.4-5.8C197,688.4,196.3,685,197.3,681.5z"/>
	<path class="st16" d="M194.9,750.2c0,4.1,0,8.3,0,12.4C194.2,758.4,194.2,754.3,194.9,750.2z"/>
	<path class="st16" d="M78.3,750.6c0-2.1,0-4.1,0-6.2C79,746.5,79,748.5,78.3,750.6z"/>
	<path class="st16" d="M188.7,659c1.9,0,3.8,0,5.7,0C192.5,659.7,190.6,659.6,188.7,659z"/>
	<path class="st16" d="M196.3,715.1c0,1.7,0,3.5,0,5.2C195.6,718.6,195.6,716.9,196.3,715.1z"/>
	<path class="st16" d="M80.2,705.4c0-1.6,0-3.2,0-4.7C80.9,702.3,81,703.9,80.2,705.4z"/>
	<path class="st3" d="M50,741.9c-4.1,0-8.2,0-12.2,0.1c-0.8,0-1.7-0.1-2.4,0.2c-3.9,1.4-5-1.2-4.4-4.8c0.3-1.7,1.2-3.3,2.2-4.8
		c0.7-1.1,1.2-2.2,1.6-3.4c0.6-1.6,0.2-2.9-1.2-3.7c-2.2-1.2-2.8-3.2-2.3-5.3c1.1-4.6,1.1-9.1,0.5-13.7c0.3-1.9,0.3-3.8,0-5.7
		c0.6-4.4,1.2-4.8,5.6-4c1,0.2,1.9,0.2,2.6-0.7c0.8-1.1-0.4-1.5-0.8-2.2c-0.4-0.6-0.6-1.3-1-1.9c-1.1-1.9-2.4-3.4-4.8-3.3
		c-1.6,0.1-2.2-0.6-2.1-2.2c0.3-5.4-0.6-10.8-0.4-16.3c0.1-3.1,0.4-6.2,0.5-9.3c0.1-2.4,1.4-3.3,3.9-2.8c1.8,0.4,3.7,0.4,5.5,0.1
		c1.8-0.3,3.7-0.3,5.5-0.4c2.4-0.1,4.8,0,7.2-0.4c3.4-0.6,6.8,0.4,10.2,0.5c1.9,0.1,2.9,1.2,2.8,3.4c-0.2,2.8,0,5.6-0.1,8.4
		c0,1.4,0.7,2.4,1.9,2.2c2.6-0.4,3.1,1.4,2.9,2.9c-1.1,8.8,0.4,17.7-0.8,26.5c-0.2,1.4,0,2.9-0.1,4.3c-0.2,6.4-0.9,12.8,0.1,19.1
		c0.8,5.1-0.4,10-0.6,14.9c-0.1,3.1-2.4,1.7-3.9,2C60.5,741.6,55.2,741.6,50,741.9z"/>
	<path class="st3" d="M73.5,695.2c0-1.8-0.1-3.7,0-5.5c0-1,0.4-1.9,1.6-2c1.3,0,2,0.6,2.1,1.8c0.3,4.2-0.6,8.4-1,12.6
		c-0.1,0.6-0.6,1-1.2,0.9c-1-0.2-1.5-0.9-1.6-1.8C73.5,699.2,73.5,697.2,73.5,695.2C73.5,695.2,73.5,695.2,73.5,695.2z"/>
	<path class="st3" d="M68.7,779.8c-1.9,0.3-2.1-1.4-2.3-2.4c-0.4-2.2-0.9-4.4-0.3-6.8c0.5-1.8,0.1-3.8,0.2-5.7
		c0-0.8-0.2-1.9,0.9-2.2c1.1-0.3,1.6,0.5,1.9,1.4c-0.4,4.3-0.1,8.6-0.2,12.9C68.9,777.9,69.1,778.9,68.7,779.8z"/>
	<path class="st3" d="M71.9,737.7c0.4-2.4,0.7-4.9,1.1-7.4c0.1-0.8,0.5-1.7,1.5-1.4c0.9,0.2,1.3,1,1.2,2c-0.3,2.3-0.4,4.7-0.8,7.1
		c-0.2,1.1,0,2.7-1.8,2.5C71.3,740.3,72.4,738.7,71.9,737.7z"/>
	<path class="st3" d="M74.3,718.4c-1.4-4.3-0.8-8.4-0.2-12.4C77,707.6,77.7,714.9,74.3,718.4z"/>
	<path class="st15" d="M50,741.9c1-0.8,2.2-0.5,3.2-0.4c4.2,0.2,8.4-0.6,12.6,0.4C60.5,741.9,55.2,741.9,50,741.9z"/>
	<path class="st16" d="M68.7,779.8c0-4.6,0-9.2,0-13.7c0-0.7-0.2-1.4,0.4-2c0,4.7,0,9.5,0.1,14.2C69.2,778.9,69.3,779.5,68.7,779.8z
		"/>
	<path class="st16" d="M23,658c-1.6,0.9-3.4,0.4-5.1,0.4c-3.1-0.1-6.2,0.6-9.2-0.4C13.5,658,18.3,658,23,658z"/>
	<path class="st16" d="M19.2,744.4c-3.5,0.7-7,0.7-10.5,0C12.2,744.4,15.7,744.4,19.2,744.4z"/>
	<path class="st16" d="M31.8,700.7c0.7,1.9,0.7,3.8,0,5.7C31.8,704.5,31.8,702.6,31.8,700.7z"/>
	<path class="st16" d="M17.4,741.9c1.9-0.7,3.8-0.7,5.7,0C21.1,741.9,19.3,741.9,17.4,741.9z"/>
	<path class="st21" d="M58.5,757.3c-0.1,0.4-0.3,0.8-0.8,0.8c-0.5,0-0.5-0.5-0.5-0.9c0-0.4,0.2-0.8,0.7-0.8
		C58.3,756.4,58.6,756.7,58.5,757.3z"/>
	<path class="st22" d="M5.3,757.7c0,0.6-0.1,1-0.6,0.9c-0.5-0.1-0.8-0.5-0.7-1c0-0.3,0.2-0.6,0.6-0.6C5.2,756.9,5.3,757.3,5.3,757.7
		z"/>
	<path class="st1" d="M46,413.1c1.4-0.1,2.1,0.5,2,2.1c-0.1,2.2-1.7,3.8-3.9,3.7c-1.5,0-2.9-0.4-2.9-2.4
		C41.3,414.5,43.2,413.1,46,413.1z"/>
	<path class="st1" d="M34.1,184.2c-0.1-1.8,0.5-2.8,2.4-3c0.8,0,1.6-0.3,2.3-0.5c1.1-0.3,2.3-0.8,3.1,0.2c0.8,1,0.5,2.3,0.2,3.4
		c-0.5,1.9-3.4,3.5-5.7,3C34.8,187.1,33.8,186,34.1,184.2z"/>
</g>
</svg>
