<?xml version="1.0" encoding="utf-8"?>
<!-- Generator: Adobe Illustrator 21.0.0, SVG Export Plug-In . SVG Version: 6.00 Build 0)  -->
<svg version="1.1" id="Layer_1" xmlns="http://www.w3.org/2000/svg" xmlns:xlink="http://www.w3.org/1999/xlink" x="0px" y="0px"
	 viewBox="0 0 737.5 1246.4" style="enable-background:new 0 0 737.5 1246.4;" xml:space="preserve" preserveAspectRatio="none">
<style type="text/css">
	.st0{fill:#86211B;}
	.st1{fill:#221A17;}
	.st2{fill:#D16511;}
	.st3{fill:#AA4A1C;}
	.st4{fill:#BC331A;}
	.st5{fill:#AE401C;}
	.st6{fill:#BE5D19;}
	.st7{fill:#A2231C;}
	.st8{fill:#85211B;}
	.st9{fill:#96221B;}
	.st10{fill:#FEFEFE;}
	.st11{fill:#CD7232;}
	.st12{fill:#87211B;}
	.st13{fill:#B75838;}
	.st14{fill:#893A35;}
	.st15{fill:#803A35;}
	.st16{fill:#93211B;}
	.st17{fill:#251B19;}
	.st18{fill:#9A3C37;}
	.st19{fill:#9B3A35;}
	.st20{fill:#9B3B36;}
	.st21{fill:#7C3833;}
	.st22{fill:#98241D;}
	.st23{fill:#AD241C;}
	.st24{fill:#C84F15;}
	.st25{fill:#BC341A;}
	.st26{fill:#B0241C;}
	.st27{fill:#B92F1B;}
	.st28{fill:#C54717;}
	.st29{fill:#A3231C;}
	.st30{fill:#C95215;}
	.st31{fill:#90211B;}
	.st32{fill:#B0251D;}
	.st33{fill:#AF251D;}
	.st34{fill:#BB341B;}
	.st35{fill:#B14936;}
	.st36{fill:#8C3A35;}
	.st37{fill:#94413B;}
	.st38{fill:#933B35;}
	.st39{fill:#B14835;}
	.st40{fill:#963A34;}
	.st41{fill:#983A34;}
	.st42{fill:#A53C36;}
	.st43{fill:#7C3A35;}
	.st44{fill:#B24835;}
	.st45{fill:#95241D;}
	.st46{fill:#D9AF00;}
	.st47{fill:#CD5B13;}
	.st48{fill:#D16312;}
	.st49{fill:#D06212;}
	.st50{fill:#BD5C19;}
	.st51{fill:#251C18;}
	.st52{fill:#A94A1E;}
	.st53{fill:#D97E2C;}
	.st54{fill:#D16A30;}
	.st55{fill:#DCA823;}
	.st56{fill:#D1692F;}
	.st57{fill:#DCA723;}
	.st58{fill:#D87C2A;}
	.st59{fill:#CA5933;}
	.st60{fill:#CA5832;}
	.st61{fill:#B94437;}
	.st62{fill:#BA6537;}
	.st63{fill:#B94537;}
	.st64{fill:#C16735;}
	.st65{fill:#BA6437;}
	.st66{fill:#C26234;}
	.st67{fill:#B94838;}
	.st68{fill:#BB4C36;}
	.st69{fill:#C24936;}
	.st70{fill:#C14936;}
	.st71{fill:#BD4C37;}
	.st72{fill:#B63E37;}
	.st73{fill:#C14735;}
	.st74{fill:#B63D36;}
	.st75{fill:#C14836;}
	.st76{fill:#B63E36;}
	.st77{fill:#B63F38;}
	.st78{fill:#CD6032;}
	.st79{fill:#CE6032;}
	.st80{fill:#D17330;}
	.st81{fill:#D1722F;}
	.st82{fill:#B94637;}
</style>
<g>
	<path class="st0" d="M737.5,0.7c0,55.4,0,110.7,0,166.1c-0.8,0.8-1.9,0.7-2.9,0.7c-2.2,0.1-4.4-0.2-6.6,0.5
		c-1.9,0.3-3.7,0.2-5.6,0.2c-1.3-0.3-2.6-0.2-3.9,0.2c-8.2,1.1-16.5,2.1-24.7,3.6c-2.7,0.5-5,1.4-7.1,3.1
		c-8.7,7.1-18.9,11.2-29.5,14.5c-9.6,3-19.6,5.1-28.7,9.4c-12.3,5.7-25.3,9.1-38.6,11c-14.5,2.1-27,8.7-39.1,16.4
		c-4,2.6-8,5.3-12.3,7.4c-3.2,1.6-6.6,2.3-10.1,2.8c-7.9,1.1-9.8,5-5.8,12c0.6,1,1.3,1.9,1.8,2.8c1.1,1.9,0.8,3.1-1.2,4.1
		c-2.4,1.1-4.8,1.1-7.2,0.2c-2.9-1-5.9-2-9-2.3c-1.3-0.6-2.4-2-4.7-1.3c1.8,0.5,3.5,0,4.6,1.3c0.1,3.5-3.1,7-5.8,7.4
		c-1.2,0.2-2.4,0.4-3.1-1c-0.4-1.1-0.1-2.2,0.3-3.3c0.5-1.5-0.1-2.3-1.6-2.5c-15.3-2.4-30.2-7.1-45.8-7.3c-0.4,0-0.8-0.1-1.2-0.1
		c-3.1-0.8-6.2-0.4-9.3-0.4c-2.9,0-5.9-0.3-8.8,0.3c-3.4,0.6-6.8,0.4-10.2,0.3c-2.3-0.3-4.6-0.4-6.8,0.3c-1.5,0.3-3.1,0.3-4.6,0.2
		c-1.4-0.2-2.9-0.3-4.3,0.2c-6.9,0.3-13.7,0.9-20.5,1.6c-14.9,1.4-29.7,3.4-44.4,6.1c-31.3,5.7-61.9,14.2-91.6,25.6
		c-12.6,4.9-25.1,10.1-37.1,16.2c-20.4,10.4-39.6,22.6-58.1,35.9c-22,15.8-43.1,32.7-63.6,50.2c-12.7,10.8-24.3,22.7-35.4,35.1
		C36.1,439.2,19.4,461.6,4,485c-0.7,1.1-1.3,2.2-2.3,3.1c-0.8,0.6-1.3,0.6-1.3-0.6c0-161.1,0-322.2,0-483.3c0-4.3-0.5-3.7,3.7-3.7
		c243.3,0,486.7,0,730,0C735.3,0.5,736.4,0.2,737.5,0.7z"/>
	<path class="st1" d="M498.4,259.9c2.3,0.7,4.7-0.1,6.1-2.3c0.9-1.4,1.7-2.9,2.1-4.5l0,0c2.2-0.8,4.2,0,6.2,0.7c2.9,1,5.8,2.5,9,1.4
		c3-1,3.2-1.4,1.4-4c-1.3-1.9-2.6-3.9-3.2-6.1c-1.2-4.3,0.5-7.4,4.8-8.6c1.7-0.5,3.4-0.8,5.2-0.9c5-0.4,9.3-2.8,13.4-5.4
		c6.9-4.4,13.9-8.8,21.1-12.7c8.7-4.6,18-7.2,27.7-8.7c12.8-2,25.1-5.7,37-11c9.7-4.4,20.2-6.4,30.3-9.8c10.2-3.4,20-7.7,28.3-14.8
		c0.9-0.7,1.8-1.3,3-1.5c9.2-1.7,18.3-3.3,27.6-4c1.2-0.5,2.6,0.1,3.9-0.4c1.9,0,3.8-0.1,5.8-0.1c3.2-0.2,6.4-0.4,9.5,0.1
		c0,41.8,0,83.5,0,125.3c-1.8,1.4-4.1,0.2-6,1.1c-9.9,0.6-19.6,2.7-29.3,4.6c-3,0.6-6,1-9,1c-3.1,0-4.8,1.5-5.7,4.5
		c-1,3.7-0.3,7,2.6,9.6c3,2.8,6.5,5,10.1,6.8c2.8,1.5,5.6,0.9,8.1-1c1.4-1,2.5-2.4,4-3.5c2.5-1.8,5.2-2.5,8-0.9
		c2.9,1.7,4.3,4.2,4.1,7.5c-0.1,1.8-0.6,3.4-1.2,5.1c-0.8,2.3-1.5,4.7-1.8,7.2c-0.4,1.4-0.6,2.8-0.1,4.2c0.4,2.8,2.1,4.3,4.6,5.5
		c4.6,2.1,8.4,5.2,11.6,9.1c0,33,0,65.9,0,98.9c-0.6,0.6-1.4,0.8-2.2,0.9c-4.4,1-7.8,3.5-10.6,6.9c-5.6,6.6-8.4,14.6-10.2,22.9
		c-0.8,3.7-1.5,7.5-1.8,11.3c-0.5,2.5-0.5,5.1,0,7.6c0.1,0.6,0.2,1.3,0.3,1.9c1.8,10.3,10.7,12.7,17.9,11c2.1-0.5,3.5-2,4.8-3.7
		c0.5-0.6,0.6-1.7,1.8-1.6c0,23,0,46.1,0,69.1c-1.8,0.6-3.2-0.6-4.7-1.3c-5.9-2.9-12-5.3-18.4-6.9c-5.4-1.4-7.4-0.2-9.2,5.1
		c-2.7,7.7-2.1,15.4-0.6,23.2c2,10.9,5.7,21.1,11.5,30.6c3.5,5.8,7.5,11.2,14,14c0.6,0.3,1.2,0.5,1.8,0.7c1.3,0.4,2.2,0,2.5-1.4
		c0.5-1.6,0.6-3.3,1.2-4.9c0.3-0.9,0.5-2.1,1.9-2.1c0,15.8,0,31.7,0,47.5c-1.2,0.8-2.1-0.2-3-0.7c-9.6-5.8-19.6-10.8-29.5-15.9
		c-3.1-1.6-6.3-2.8-9.6-3.8c-9.5-2.8-18.4-1.6-26.8,3.9c-8.3,5.4-16.9,10.3-26.6,13c-2.9,0.8-5.9,1.5-9,1.4c-1.7,0-3.5-0.1-5.2,0
		c-1.2,0.2-2.4-0.1-3.6-0.6c-5.8-2.4-11-5.9-16.5-8.9c-8.5-4.7-16.9-9.4-25.8-13.3c-3.8-1.7-7.2-4.1-10.6-6.5
		c-3.7-2.6-7.4-5.3-11.6-7.2c-4.5-2.1-9.1-2.9-14-1.6c-1.8,0.5-3.6,0.8-5.3,1.5c-4,1.7-7.9,1.1-11.6-0.6c-12.2-5.6-24.6-4.8-37-1.3
		c-9.6,2.7-18.7,6.5-28.2,9.5c-1.3,0.3-2.7,0.6-3.8,1.4c-6.7,4.3-14.3,5.2-22,5.5c-9.9,0.5-19.5-1.4-29.2-3.1
		c-6.4-1.1-12.9-2.3-19.4-3.2c-2.3-0.4-4-1.8-5.7-3.4c-1.4-1.4-2.8-2.9-4.3-4.2c-1.3-1.1-2.8-1.4-4.1-0.1c-5.1,5.7-11.8,5.6-18.6,5
		c-2.8-0.2-5.5-0.6-8.3-0.4c-4.7,0.3-8.3,2.5-10.9,6.5c-0.5,0.8-1,1.6-1.9,2.2c-2.1,1.3-5.1,0.4-5.9-2.1c-2-5.7-6.2-8-11.9-8.4
		c-3.4-0.2-6.6-1.3-9.6-2.8c-0.5-0.1-1.1-0.3-1.6-0.3c-4-0.4-6.1-2.7-7-6.5c-0.1-0.3,0,0.1-0.1-0.2c-1.3-5.4-1.6-5.6-6.7-3.1
		c-8.4,4.2-17.2,7.3-26.4,9.3c-6.3,1.4-10.7,5.1-13.2,11.1c-1.9,4.6-6.2,5.6-10.3,2.3c-5.4-6.7-12.5-10-20.8-11
		c-4.6-0.6-8.5,0.8-11.5,4.5c-1.4,1.8-3,3.6-4.8,5c-3,2.3-5.9,2.5-9.1,0.6c-5.4-3.2-7.3-8-5.6-14.1c0.8-2.8,2.2-5.5,2.7-8.4
		c0.3-2.1-0.2-4.2,0.1-6.4c0.9-5.1,3.3-9.1,7.2-12.4c2.7-2.3,5.8-4.3,8.4-6.8c1.5-1.4,2.7-2.9,3.8-4.6c1.3-2.2,1.3-2.9-0.7-4.5
		c-4.4-3.6-9.6-5.7-15.2-6.8c-5.7-1.1-11.4-1.6-17.1-2.5c-5.7-1-11-2.8-15.7-6.2c-2.9-2-3-3.6-0.3-5.9c3-2.6,6.3-4.6,10.1-5.9
		c3.6-1.3,7.3-2.4,10.8-4c3.1-0.9,6.3-1,9.4-1.4c7.2-1,12.9-4.3,16.3-10.9c0.3-0.6,0.7-1.3,1.4-1.5c1.7,0.8,0.7,2.6,1.4,3.8
		c0.5,3.7,1.8,7.1,3,10.6c1.8,5.1,2,10.1-0.7,15.1c-1.1,2-0.8,2.8,1.3,3.8c4.2,1.9,8.3,3.8,13.1,2.5c3-0.9,5.6-2.3,8.1-4
		c5.1-3.5,10.4-6.5,16.3-8.5c1.5-0.5,2.9-1.3,4.3-2.1c3.9-2.1,5.2-4.7,4.3-9.1c-0.6-3.1-1.8-6-2.9-8.9c-0.4-1-1.1-2.1-0.1-3.1
		c0.5-0.4,1.1-0.5,1.7-0.8c1.4-0.6,2.1-1.6,2-3.2c-0.2-1.7-1.4-2.2-2.9-2.3c-0.4,0-0.8-0.1-1.2-0.1c-2.7,0.2-5.1-0.6-7-2.5
		c-1.8-1.8-2-3.4-0.8-5.6c0.6-1.1,1.3-2.2,1.7-3.4c0.3-0.9,0.2-1.8-0.7-2.3c-0.8-0.5-1.5-0.1-2.2,0.3c-0.7,0.5-1.1,1.3-1.6,2.1
		c-3,4.6-6.4,5.8-11.7,4.3c-1.9-0.5-3.8-1.3-5.7-1.8c-4.4-1.3-6.3-0.3-7.4,4.1c-0.5,1.7-0.6,3.4,0.1,5c0.6,1.8,2,2.6,3.8,2.6
		c1.1,0,2.2,0,3.3-0.2c3.4-0.4,4.5,0.3,5.8,3.5c0.5,1.3,1,2.5,0.9,3.9c0.1,0.6,0,1.1-0.1,1.6c-0.4,2.1,0.2,3.7,2.2,4.7
		c0.5,0.3,0.9,0.6,1.2,1.1c0.2,1.2-0.7,1.8-1.4,2.3c-3.1,2.1-6.5,2.6-10,0.9c-4.6-2.2-7.1-6.3-9.7-10.3c-3.2-5.1-6.8-9.9-11.6-13.6
		c-3.3-2.6-7-4.4-11.3-5c-1.8-0.5-3.6-0.5-5.4,0c-5.1,0.7-9.3,3.3-13.3,6.4c-0.8,0.6-1.4,1.3-2.3,1.7c-5.2,1.5-9.8,4.2-14.5,6.8
		c-4.1,2.4-8.4,4.3-13.3,4.1c-2.3-0.1-4.4-0.7-6.5-1.5c-3-1.1-4.2-0.8-6.4,1.5c-0.5,0.5-1,1-1.3,1.7c-2.2,5.1-7.8,6.6-13.3,4.7
		c-4.8-2.7-6.8-6.8-6.1-12.2c0.2-1.2,0.2-2.4,0.6-3.5c3.6-10.2,5.2-20.9,7.6-31.5c1.5-6.4,3.6-12.4,7.6-17.7
		c2.6-3.4,5.8-6.2,9.7-7.6c8.3-2.8,13.2-9,17.3-16.1c3.1-5.3,6.1-10.5,9.8-15.3c4.9-6.3,11-11.1,18.1-14.7c1.7-0.9,3.5-1.6,5.1-2.7
		c2.4-1.7,3.4-4,2.6-6.9c-0.4-1.6-0.7-3.1-0.5-4.7c0.4-2.1,1.5-3.2,3.6-2.9c4.5,0.7,8.7-0.4,12.9-1.8c3.8-1.3,7.5-2.8,11.5-3.3
		c3.2-0.5,6.2,0,9.1,1.2c5.5,2.3,11.6,0.9,15.8-3.4c0.8-0.9,0.8-1.7,0.4-2.6c-0.5-1.2-1-2.4-1-3.7c-0.1-2.1,0.8-3.4,2.9-3.7
		c1.7-0.3,3.5-0.2,5.3-0.3c1.1-0.1,1.7,0.7,2.4,1.4c2.8,3.2,2.7,3.1,6.6,1.8c4.8-1.6,9.8-1.1,14.7-0.4c5.7,0.8,11.3,2.2,17,2.8
		c3,0.3,5.9-0.2,8.8-0.2c0.9-0.1,1.7,0,2.6,0c1.7,0,2.5-0.8,2.4-2.5c-0.1-1.7-1-2.5-2.6-2.4c-1.1,0-2.2,0.3-3.3,0.3
		c-1.9,0.7-3.7,1.3-5.7,1.7c-2,0.4-2.9-0.2-2.6-2.2c0.4-2.7,0.7-5.5,1.9-8.1c1.1-1.3,2.4-2.4,4.1-2.8c0.8-0.1,1.6,0.2,2.3,0.6
		c2.7,1.2,5.4,1.4,8.4,0.9c3.8-0.6,7.8-0.6,11.7-1.3c5.9-1.1,7.6-3.5,6.5-9.3c-0.3-1.7-0.8-3.4-1.4-5.1c-0.9-2.6-0.4-4.9,1.7-6.7
		c2.5-2.2,4.3-5.2,6.8-7.4c1.1-1,1.6-2.4,2.1-3.7c0.6-1.1,0.6-2.2,0.2-3.4c-0.2-2.8,1.5-4.8,3.4-6.5c0.9-0.8,1.9-1.5,2.9-2.1
		c0.3-0.2,0.6-0.4,0.9-0.5c2.9-0.6,5.7-1.3,6.2-4.9c0.4-1,0.3-2-0.1-3c-0.8-4.2-1.9-8.4-1.6-12.8c0.3-4.3,2.2-7.7,6.4-9
		c8.3-2.6,15.8-7,23.3-11.1c7.2-3.9,14.7-6.6,23-6.6c3.4,0,5.9-1.8,7.4-4.9c0.4-0.9,0.6-1.8,1-2.7c0.7-1.5,2-2.2,3.4-2.8
		c6.7-2.7,13.7-3.7,20.8-4.6c5.6-0.7,11.3-1.3,16.8-2.7c4.7-1.3,9.3-3,13.4-5.7c3.1-2.1,6.3-3.7,9.8-5.1c5.8-2.2,9.6-6.2,11.1-12.3
		c1.2-5,5-7.1,9.4-8.7C497.2,259.5,497.9,259.4,498.4,259.9z"/>
	<path class="st1" d="M737.5,1217.5c0,9.1,0,18.2,0,27.4c0,1.2-0.3,1.7-1.5,1.4c-0.2,0-0.5,0-0.7,0c-244.9,0-489.8,0-734.6,0
		c-0.5-1.6-0.2-3.2-0.2-4.7c0-6.9,0-13.9,0-20.8c-0.1-1.2,0.8-1.4,1.7-1.5c10.3-0.9,16.7-7.1,21.3-15.8c0.4-0.8,0.8-1.7,1.4-2.5
		c1.7-1.4,3.4-1,5,0.3c0.4,0.3,0.8,0.6,1,1c1.6,3.5,4.4,5.2,8.1,6.1c2.2,0.5,3.6,2.3,4.3,4.5c1.4,2.9,2.8,5.9,4.7,8.7
		c0.6-3.4,1.4-6.7,2-10.1c0.3-1.6,0.2-3.4,1.5-4.7c3.5,0.1,7-0.3,10.4,0.1c2.4,0.2,4.1,1.9,5.4,4c1.4,2.3,2.6,2.6,4.9,1.1
		c0.3-0.2,0.6-0.3,0.8-0.6c6.2-6,11.9-12.3,15.1-20.5c1.4-3.6,2.4-3.9,4.9-0.9c1.9,2.2,3.3,4.7,4.9,7.1c1.3,2,2.6,3.9,4.1,5.6
		c3.1,3.3,6.5,3.4,9.8,0.3c1.7-1.6,3.2-3.4,4.6-5.2c1.4-1.8,2.6-1.9,4.6-0.6c2.1,1.4,3.5,3.5,5.1,5.4c2.7,3.1,3.5,3.2,6.6,0.7
		c3.5-2.7,6.6-2.4,9.3,1c1.3,1.6,2.5,3.3,3.9,4.8c2,1.7,3.4,4,5.1,6c2.6,3.1,4.5,3.1,6.7-0.3c0.7-1.1,1.3-2.2,1.6-3.5
		c0.9-6.2,1.8-12.4,2.6-18.6c0.1-1,0.2-2.1,1-2.9c1.5-0.8,1.8,0.5,2.2,1.4c1,1.9,1.4,4.1,1.9,6.1c1,3.9,2.6,7.6,6,10.2
		c-0.1-0.6-0.4-1.1-0.6-1.7c-2.2-6.3-0.6-11.4,4.8-15.3c0.8-0.6,1.7-1.7,2.9-0.4c0.7,2.2,0.8,4.5,0.9,6.9c0.2,3.8,1.2,7.4,3.4,10.6
		c0.5,0.7,0.8,1.5,2.1,1.8c0.4-3.4,1.8-6.6,1.8-10.1c0-4,0-8,0-12c0-11.9,0.9-23.7,1.8-35.6c0.3-4,0.7-8.1,0.7-12.2
		c-0.2-4.6,0.3-9.2,0.5-13.8c0.2-3.7,0.3-7.3,0.3-11c-0.1-4.9,0.3-9.8,0.7-14.8c-0.1-7.7-0.7-15.4,0.6-23.1
		c0.7-4.1,0.7-8.4,1.4-12.5c0.5-7.9,1.3-15.9,1.9-23.8c0.4-4.4,0.7-8.7,0.7-13.1c0-9.4,0.8-18.8,0.6-28.2c0.5-3.7,0-7.3,0-11
		c-0.2-9,0.7-18,0.6-27c0-2.5-0.4-4.9-1.7-7.1c-1.4-2.4-2.4-5-3.8-7.4c-5.3-9.8-10.4-19.6-14.4-30c-1-2.6-1.9-5.3-2.5-8
		c-0.6-2.5-0.5-5,0.3-7.5c1.4-4.2,1.5-8.5,0.8-12.8c-0.7-4.2-1.1-8.4-1.1-12.6c0-11.7-0.1-23.5,0.1-35.2c-0.1-9.2-0.1-18.4,0-27.6
		c0-3.2,1.4-6,2.6-8.9c0.5-1.3,1.3-2.6,1.7-3.9c2.7-8,7.6-14.6,13.7-20.2c1.4-1.3,2.6-2.5,2-4.7c-0.3-1.1,0.6-1.9,1.4-2.6
		c1.9-1.5,3.9-2.8,6.2-3.6c5.8-2.1,10.8-5.9,16.6-8.1c7.9-3.1,15.7-6.9,24.3-8.1c3.9-0.6,7.1-2.4,8.9-6.1c0.2-0.4,0.7-0.7,0.6-1
		c-0.8-2.9,0.4-6.3-2-8.8c-1.4-1.4-2-3-2-5c-0.1-3.7-0.5-7.3-1.9-10.8c-0.4-1-0.6-2-0.4-3.1c0.7-4.8,1-9.6,2.1-14.4
		c0.7-2.9,1-5.9,2.2-8.7c1.6-3.7,3.5-6.8,8-7.4c1.4-0.2,2.7-1,3.5-2.3c1-1.5,2.3-2.6,4-3.3c4.7-0.8,9.2-2.5,13.9-3.3
		c2-0.4,4-0.3,5.8,0.8c1,0.6,2,0.9,3.1,0c1.1-0.9,2,0,2.6,0.8c1.1,1.5,2.5,2.1,4.3,2.3c0.9,0.1,2.1,0.2,2.7,0.9
		c1.5,1.9,3.4,1.9,5.5,1.9c2.6,0,5,1.1,6.4,3.6c1.6,1.8,3.6,3.3,4.1,5.8c0.4,1.9,0.4,3.9,1.6,5.6c0.7,0.9,0,2.2-0.6,3.1
		c-0.9,1.3-0.5,2.2,0.8,2.9c2.4,1.3,3.3,3.6,3.5,6.2c0.3,3.6-0.2,7-1.6,10.3c-1.2,2.9-2.3,5.8-2.3,9c0,1.1-0.5,2.1-1.5,2.5
		c-1.7,0.7-2,2.3-2.6,3.8c-1.6,4,0,6.6,2.7,9.7c5.4,6.2,12.7,9,19.5,12.8c5,2.8,10.3,4.9,15.4,7.3c5.4,2.1,10.6,4.5,15.9,6.6
		c1.6,0.6,2.6,1.8,3.6,3c5.8,6.7,10.4,14,13.8,22.3c4.2,10.5,5,21.6,7.2,32.4c0.8,4.3,1.2,8.7,1.8,13.1c0.2,1.4,0.3,2.7-0.1,4.1
		c-1.1,3.9-1.2,7.9-1.2,11.9c-0.1,10.3,0,20.6,0.6,30.9c0.3,5.1,0.6,10.2,0.9,15.3c0.2,2.3-0.5,4.2-2.2,5.8
		c-1.7,1.6-2.8,3.7-3.9,5.7c-6.3,12.4-12.4,24.9-18.1,37.6c-4,8.8-4.9,17.8-5.1,27.1c-0.2,10.9-0.2,21.9,1.3,32.8
		c3.1,14.4,6.5,28.8,7.7,43.6c0,0.3,0,0.6,0,0.8c1,7.3,1.8,14.5,2,21.9c1.3,6.3,3.6,12.4,4.6,18.9c2.5,10.5,3.9,21.2,4.9,31.9
		c0.2,2,0.7,3.9,0.4,6c0.5,4.7,0.8,9.4,1,14.1c0.1,1.3,0.3,2.6,0.6,3.8c2.2,7.6,3.1,15.3,2.7,23.2c-0.1,2.3,0.5,4.2,2.3,5.7
		c2.3,1.9,4,4.3,5.9,6.6c1.7,2,3.5,3.7,5.7,5.1c3.4,2,6.7,1.9,10-0.2c0.5-0.3,0.9-0.6,1.4-0.9c4.2-2.9,7-2.7,9.6,1.8
		c5,8.6,13.1,12.8,21.5,16.9c3.1,1.5,5.1,0.6,6.6-2.5c1.7-3.5,1.8-7.3,2.5-10.9c0.3-1.4,0.4-2.8,0.7-4.3c0.2-1,0.4-1.9,1-2.7
		c0.9-1.2,1.9-2.6,3.6-2.2c1.6,0.4,1.6,2,1.9,3.3c0.2,1,0.2,2.1,0.5,3.1c0.1,0.5,0.3,1.2,0.9,1.3c0.7,0.1,1.2-0.3,1.6-0.8
		c0.7-0.9,0.9-2,1.2-3.1c0.5-2.4,1-4.8,1.8-7.2c0.2-0.8,0.5-1.5,0.9-2.2c0.9-1.6,1.5-3.7,3.6-3.8c1.8-0.1,2.3,2,3.2,3.3
		c1.4,2.2,3,4.3,4,6.8c0.3,2.4-0.6,4.1-2.8,5.3c-2.9,1.6-4.6,4.3-5.8,7.4c-1,2.8-1.5,5.7-2,8.9c2.3-1.1,4.1-0.1,5.9,1
		c1.4,0.9,2.8,1.9,4.4,2.4c2.2,0.7,3,0.1,2.8-2.2c-0.3-3.8-0.9-7.6-1.3-11.4c-0.1-1.4-0.9-3.3,0.6-4.2c1.6-1,3,0.4,4.4,1.2
		c2.1,1.4,3.4,3.5,5.1,5.4c1.5,1.7,3.1,3.4,5.8,4.3c-1-10.3-5-19.1-9.8-27.7c-0.4-0.6-0.7-1.3-1-1.9c-0.6-1.3-1.2-2.6-0.1-3.8
		c1.1-1.2,2.5-0.8,3.8-0.5c3.7,1,6.7,3,9.2,5.8c3.4,3.8,5.9,8.1,8.3,12.6c0.9,1.8,1.8,3.6,3.1,5.1c1.5,1.8,2.2,1.8,3.8,0.2
		c0.4-0.5,0.8-1,1.5-1.2c1.4-0.1,2.3,0.9,3.3,1.7c2.3,1.9,4.5,4,7.2,6c0.9-5.5,1.5-11,6.3-14.6c0.2-0.1,0.4-0.2,0.7-0.2
		c2.1-0.2,3.9,0.8,5.6,1.8c5.9,3.3,11,7.7,16.1,12.1c3.1,2.7,6.2,5.3,9.8,8c-0.4-2.4-1.1-4.5-1.4-6.6c-0.8-5.4,1.1-8.8,6.1-10.8
		c1.5-0.6,3-1,4.6-1.5c2.3-0.7,4.4-1.8,6-3.7c1.2-1.5,2.3-1.4,3.5,0.1c1.2,1.5,1.7,3.2,1.8,5.1c0.1,2.1,0.4,4.1,0.7,6.2
		c0.3,1.7,0.8,3.4,2.7,3.9c2,0.5,3.2-0.8,4.1-2.2c2-3.3,4.2-6.4,5.6-10c2.6-6.8,4.5-7.6,10.8-4.1c4.6,2.5,5.6,2,6.6-3.2
		c0.2-1.2,0.4-2.4,0.8-3.5c0.2-0.6,0.5-1.3,1.2-1.3c0.8,0,0.9,0.8,1,1.4c1.1,5.9,3.5,11.5,4.3,17.4c0.3,2.5,0.4,2.5,2.7,1.7
		c1.4-0.5,2.8-0.2,4.2,0.2c1.8,0.5,3.4,1.3,5.2,1.9c2.5,0.7,4.1,0.1,5.4-2.2c0.7-1.2,1.1-2.5,1.4-3.8c0.6-2.1,1.8-3.7,3.5-5
		c4.5-3.6,9.7-2.7,12.6,2.2c0.9,1.5,1.6,3.1,2.2,4.8c1,2.9,3.1,4.6,6,5.2c2.3,0.5,4.7,0.7,7.1,1.1c1.9,0.3,2.9-0.6,3.2-2.4
		c0.6-3.7,1.3-7.4,1.6-11.1c0.2-2.4,0.6-4.8,1.8-6.9c1.4-2.6,3.7-3.8,6.7-3.8c2.8,0,4.3,1.7,5.4,4.1c0.5,1.2,1,2.4,1.3,3.6
		c1,3.3,2.2,6.4,4.8,8.7c0.7,0.6,1,1.6,1.5,2.4c1.3,3.1,2.2,6.3,4.4,8.9c0.9,1.1,1.8,2.7,3.3,2.4c1.6-0.3,1.6-2.2,2-3.5
		c0.6-2.2,0.7-4.4,0.3-6.6c-0.2-1-0.3-2.1,0.3-3c1.7-1.7,3.9-1.7,6.1-1.4c2.2,0.3,4.2,1,6.1,2.1c3.8,2.3,7.5,4.8,11.4,7.1
		C734.7,1211.3,735.7,1214.6,737.5,1217.5z"/>
	<path class="st2" d="M349.6,768.1c-9.8-3.8-19.1-8.9-28.3-14c-4.3-2.4-7.2-6.9-10.6-10.6c-0.2-0.2-0.3-0.7-0.2-0.8
		c1.3-1.6,1-3.7,1.6-5.5c0.5-1.6,0.6-3.5,3-3.6c0.5,0,1-0.6,1-1.2c-0.5-4.6,2-8.5,3.2-12.6c0.9-2.9,0.7-5.7,0.4-8.5
		c-0.2-2-1.2-3.8-3.3-4.6c-1.8-0.7-2-2.1-0.8-3.6c1.1-1.3,1.8-2.8-0.3-3.9c-0.5-0.3-0.8-0.7-0.7-1.4c0.8-3.5-0.8-5.8-3.5-7.7
		c-0.2-0.2-0.3-0.5-0.4-0.8c-0.3-1.2,0.7-1.7,1.4-2.2c8-5.5,16.4-10.3,25.1-14.5c13.2-6.3,26.9-11.2,41-14.7c3.2-0.8,6-2.1,8.5-4.3
		c0.7-0.6,1.5-1,2.3-1.3c6.7,0.5,13.2,1.9,19.8,3.1c9.7,1.7,19.4,3.6,29.4,3c7.6-0.4,15.1-1.1,21.6-5.7c1.2-0.9,2.7-1,4.1-1.1
		c0.7,0.3,1,1,1.3,1.7c2,5.6,6.1,8.9,11.6,10.6c7.1,2.2,14.1,4.6,21,7.6c19.2,8.5,36.8,19.5,52.8,33.2
		c23.6,20.3,42.5,44.5,57.7,71.5c16.6,29.5,28.1,60.9,35.1,94c3.1,14.5,5.2,29.1,6.3,43.9c0.2,3,0.5,6.1,0.3,9.1
		c-0.1,1.9-0.1,3.8,0.5,5.7c0.3,7,0.3,14,0,21c-0.6,1.9-0.6,3.9-0.4,5.9c0.1,9.5-1.3,19-2.6,28.4c-0.6,4.6-1.4,9.2-2,13.8
		c-1.2,9.7,1,13,10.7,14.8c6.4,1.2,12.8,1.8,19.1,3.3c1.6,0.4,3.3,0.8,4.7,1.8c5.4,3.7,11.5,5.5,18,5.9c1.9,0.1,3.7,0.9,5.7,0.6
		c3.6,0.2,7.1,1,10.6,1.6c6.4,1,12.9,1.7,19.4,1.7c1.3,0,2.7-0.2,3.8,0.9c0,9.4,0,18.9,0,28.3c-1.2,1.1-2.7,0.7-4.1,0.7
		c-44.8,0-89.5,0-134.3,0c-15,0-30.1,0-45.1,0c-5.5,0-9.9-2.5-13.9-6.1c0.5-1.5,1.9-1.4,3-1.6c13.7-2.9,27.4-5.7,41.1-8.6
		c7-1.5,14.1-2.8,21.1-4.7c10.4-2.9,13.7-7,14.3-17.9c0.1-1.3,0-2.6,0.2-3.8c0.6-1.9,0.5-3.9,0.2-5.8c-0.1-5.1-0.1-10.2,0-15.3
		c0.3-1.8,0.4-3.6-0.1-5.3c-0.6-13.3-2.4-26.4-4.6-39.5c-1.8-10.7-4-21.4-6.2-32c-0.9-4.2-2.8-8-4.3-12c-7.2-18.7-15.6-36.8-26-54
		c-7.9-13.1-17-25.3-27.4-36.6c-14.3-15.5-30.3-28.9-48.6-39.5c-21.3-12.3-44-20.1-68.6-22.2c-28.7-2.4-56.1,2.6-82.1,14.7
		C351.3,767.8,350.5,768,349.6,768.1z"/>
	<path class="st3" d="M698.6,1202.6c-0.1-0.2-0.3-0.4-0.4-0.6c-4.2-3.8-5.6-8.9-7.3-14c-0.7-2.1-2-3.8-4.7-3.8c-2.8,0-5,1.1-6.2,3.7
		c-1.7,3.5-1.4,7.3-2,11c-0.4,2.5-0.8,5-1.2,7.5c-0.3,1.9-1.6,2.7-3.5,2.3c-2.7-0.5-5.3-0.9-8-1.4c-3.2-0.6-5.2-2.5-6.3-5.6
		c-0.5-1.4-1-2.9-1.8-4.2c-1.6-2.8-3.7-5.1-7.2-4.6c-3.7,0.5-6.5,2.6-7.8,6.3c-0.5,1.5-0.9,3.1-1.6,4.5c-1.3,2.6-3.3,3.5-6.1,2.6
		c-1.4-0.5-2.8-1-4.3-1.6c-3.9-1.4-4.6-1.3-7.9,1.4c-0.9-8-3.7-15.3-5.2-23.1c-0.9,1.6-0.9,3.3-1.2,4.9c-1,5.9-2.4,6.6-7.6,3.7
		c-6.4-3.6-7.4-3.2-10,3.6c-1.4,3.8-3.9,7.2-5.9,10.6c-1,1.6-2.5,2.7-4.6,2.2c-2-0.5-2.9-2-3.2-3.8c-0.4-2.3-0.6-4.6-0.8-6.9
		c-0.1-1.2-0.3-2.4-0.7-3.5c-1.2-2.9-1.9-3-3.9-0.7c-1.1,1.3-2.6,2.1-4.2,2.6c-2.1,0.7-4.3,1.3-6.4,2.1c-4.3,1.7-6.1,5.1-5.3,9.6
		c0.3,1.5,0.5,3,0.9,4.5c0.3,1.4,0.8,2.7,1.4,4.5c-3.4-2.1-6-4.4-8.6-6.6c-6.2-5.1-12-10.8-19.1-14.8c-1.7-0.9-3.3-2-5.3-1.9
		c-0.9-0.7-0.9-1.8-1.2-2.7c-0.3-0.9-0.4-2-1.5-2.2c-1.1-0.2-1.3,0.9-1.9,1.4c-0.7,0.7-1.5,0.9-2.4,0.8c-3.7-0.2-5.6,2.1-7.2,4.9
		c-0.9,1.6-1.2,3.5-3,4.4c-3.1,4.5-4.4,4.5-7.2-0.4c-3.1-5.4-5.8-11.1-10-15.8c-2.7-3-5.8-5.2-9.8-6.1c-0.9-0.2-1.8-0.4-2.4,0.3
		c-0.7,0.8-0.3,1.8,0.1,2.7c0.4,0.8,0.7,1.6,1.1,2.4c-1.7,3.8-4.5,6.8-7.1,9.9c-0.2,0.3-0.7,0.4-1.1,0.2c-1.9-3-3.8-5.9-5.6-8.9
		c-0.8-1.4-1.3-1.2-2.2-0.1c-2.6,3.2-3.3,7.2-4.2,11.1c-0.4,1.6-0.6,3.1-1.4,4.5c-0.6,1-1.4,1.5-2.6,1.5c-1.3,0-1.4-1.2-1.6-2.1
		c-0.4-1.6-0.4-3.3-0.7-5c-0.3-1.8-1.1-1.8-2.5-0.8c-2.6,1.9-2.3,4.8-2.7,7.4c-0.7,3.8-0.9,7.8-2.4,11.4c-1.8,4.6-4.3,5.6-8.6,3.3
		c-5.8-3-11.9-5.6-16.5-10.5c-1.9-2-3.2-4.4-4.8-6.6c-2.6-3.8-4.6-4.1-8.3-1.4c-5.9,4.2-10.3,3.9-15.6-1.1c-3.2-3-5.5-6.9-8.9-9.7
		c-1.7-1.4-2.3-2.9-2.2-5.1c0.4-8.1-0.6-16-2.7-23.9c-1.5-5.7-1-11.7-1.5-17.6c0.6-0.7,1.5-0.9,2.4-0.9c0.9-0.1,1.8,0,2.6,0
		c97.9,0,195.8,0,293.7,0c0.7,0,1.4,0,2.2,0c1.1,0.2,2.2,0.2,3.3,0.2c15.3,0,30.5,0,45.8,0c1.2,0,2.6-0.3,3.7,0.7
		c0,21.4,0,42.9,0,64.3c-0.9,2.3-2.1,4.3-4.8,4.8c-3.7-1.6-6.9-4.2-10.4-6.3c-3.9-2.4-8-4-12.6-1.9c-1.3,1.1-3,1.1-4.5,1.2
		C703,1202.1,700.8,1202.2,698.6,1202.6z"/>
	<path class="st4" d="M737.5,1028.4c-9.8,0.2-19.5-0.8-29.1-2.7c-1.6-0.3-3.3-0.4-5-0.7c-2.2-0.1-2.6-1.2-2.5-3.3
		c0.5-12.5,2.2-24.9,3.3-37.4c0.8-8.4,1.6-16.8,1.6-25.3c0-1.2,0-2.4,0.2-3.6c0.8-3.1,0.5-6.2,0.3-9.3c-0.1-5.2-0.1-10.3,0-15.5
		c0.3-3,0.4-6-0.1-8.9c-0.5-4.2-0.4-8.4-0.6-12.7c-1-16-2.9-31.8-5.7-47.6c-3.5-19.9-8.6-39.5-15.1-58.7
		c-10.8-31.5-25.4-61.2-43.6-89.2c-4.4-6.8-9.3-13.2-13.3-20.2c-1.9-3.4-3.2-7.2-4-11c-0.2-0.8-0.4-1.7,0.4-2.5
		c1.1,0.2,2.3,0.3,3.4,0.5c1.9,0.3,3.8,0.3,5.7,0c9.4-0.8,17.9-4.5,26-9.1c3.4-1.9,6.7-4,10.1-6c10.3-6.4,20.9-6,31.6-1.3
		c11.9,5.3,23.3,11.5,34.5,18.2c0.7,0.4,1.2,1.1,2.1,1C737.5,798.3,737.5,913.4,737.5,1028.4z"/>
	<path class="st5" d="M684.7,1139.8c-100.3,0-200.6,0-300.9,0c-1.1-12.5-2.6-24.9-5.3-37.2c-0.1-0.4-0.1-0.8-0.1-1.2
		c0.6-0.7,1.3-0.7,2.1-0.6c3,0.6,6.1,0.4,9.1,0.2c3.6,0,7.2-0.2,10.9,0.2c5,0.9,10.1,0.6,15.1,0.2c8.2,0.2,16.5,0,24.7,0.1
		c4.2,0.2,8.3,0.5,12.5-0.3c2.4-0.3,4.7-0.2,7.1-0.2c2,0.3,3.9,0.3,5.8-0.2c5.8-0.6,11.6-1,17.4-1.1c4.4-0.1,8.3-0.8,10.4-5.3
		c0.2-0.4,0.6-0.7,1-1c1.5-0.6,2.8,0.1,4.2,0.5c10.9,3.1,21.9,5.5,33.1,6.5c20.7,1.9,41.2,0.5,61.2-5.7c5.6-1.7,11-3.8,16.4-6
		c2.1-0.9,4.3-1.9,6.6-1.9c2,0.1,4,0,6,0c4.8,0.4,9.1,2.5,13.3,4.5c1.9,0.9,3.5,1,5.4,0.2c7.8-3.1,15.8-3.4,24-2.4
		c10.2,1.2,20.5,2.2,30.8,2.4c0.5,0,1,0.1,1.4,0.2c1.8,0.6,3.6,0.5,5.4,0.3c2.4-0.1,4.7-0.2,7.1,0.2c3.8,0.8,7.7,0.5,11.6,0.3
		c4.3-0.1,8.6,0,12.9,0c1.2,0,2.4,0,3.3,0.9c0,15.4,0,30.7,0,46.1c-0.8,0.4-1.7,0.2-2.6,0.2c-15.9,0-31.8,0-47.6,0
		C686.4,1139.5,685.5,1139.3,684.7,1139.8z"/>
	<path class="st6" d="M697.1,1092.2c-9.1,0-18.1-1-27.1-1.8c-4.3-0.4-8.5-1.1-12.8-1.1c-6.1,0-12,1-17.6,3.5c-1.1,0.5-1.8,0.5-2.9,0
		c-4.6-2.4-9.4-4.4-14.5-5.4c-2.1-0.4-4.1-0.4-6.2,0c-4.1,0.7-7.8,2.7-11.7,4.2c-11,4.2-22.2,7.1-33.9,8.9
		c-10.7,1.6-21.5,1.7-32.2,1.2c-14.1-0.7-27.9-3.5-41.4-7.5c-0.8-0.2-1.5-0.4-2.3-0.5c-1.1,0.4-2.2,0.4-3.3,0.3
		c-15.7-2.2-31.4-4-47.1-5.5c-8.8-0.8-17.7-1.5-26.5-2.1c-11.5-0.8-23.1-1.1-34.6-2.1c-2.2-0.7-4.5-0.6-6.7-0.3
		c-1,0.1-1.8-0.3-2.5-0.9c-0.7-7.5-1.4-15-2.1-22.5c1-1,2.2-0.7,3.4-0.7c12.6,0,25.2,0,37.9,0c1,0,2.1,0.1,3.1-0.1
		c5.7-0.2,11.3-0.1,17-0.1c16.1,0,32.1,0,48.2,0c5.3,0,10.1-1,14.2-4.8c0.8-0.7,1.7-1.2,2.8-1.3c2.1-0.4,4.2-0.3,6.2-0.1
		c8.4,0.9,16.7,0.4,25-1.3c2.6-0.5,5.2-0.9,7.8-1.3c1-0.1,2.1-0.3,2.9,0.5c1-0.1,1.6,0.5,2.3,1c3.2,2.3,6.7,4,10.7,4.3
		c0.9,0.5,1.9,0.2,2.8,0.2c59.5,0,119.1,0,178.6,0c0.9,0,1.9-0.2,2.8,0.2c0,12,0,24,0,36c-5.4,0-10.9,0-16.3,0
		c-2.9-0.5-5.8-0.1-8.7-0.2c-0.9,0-1.9,0.2-2.8-0.2c-2.4,0-4.8,0-7.2,0C700.7,1092.1,698.9,1092.9,697.1,1092.2z"/>
	<path class="st7" d="M737.5,635.8c-1.6,2-1.6,4.6-2.2,7c-0.7,2.7-1.4,3.1-4.1,2.1c-7.7-2.9-12.3-9-16.2-15.7
		c-6.4-10.8-10.2-22.5-12-34.8c-0.9-6.7-0.8-13.3,1.7-19.8c1.9-5,4.1-6.2,9.2-5c8.3,1.9,15.9,5.6,23.6,9.1
		C737.5,597.7,737.5,616.7,737.5,635.8z"/>
	<path class="st8" d="M737.5,353.5c-2.4-1.9-4.9-3.8-7.3-5.7c-1.6-1.3-3.4-2.3-5.4-3.1c-2.4-1-4.1-2.7-4.1-5.6
		c-0.3-1.5-0.3-2.9,0-4.4c-0.1-3.9,1.9-7.2,2.7-10.9c0.5-2.4,0.4-4.6-1.2-6.6c-2.7-3.4-6.6-3.6-10-0.5c-1.4,1.2-2.5,2.6-4.1,3.6
		c-2.6,1.6-5.3,2.1-7.9,0.6c-4-2.2-7.9-4.5-11.2-7.7c-3.4-3.3-3.3-8.7-1.1-12.4c0.9-1.6,2.5-2.6,4.3-2.6c8.2,0.1,16-2.5,24-3.7
		c5-0.8,10-1.8,15.1-1.7c2.1-0.3,4.2-0.4,6.3,0C737.5,313.2,737.5,333.4,737.5,353.5z"/>
	<path class="st9" d="M712,494.1c1.3-12.8,4-25.1,12.7-35.1c3.3-3.8,7.4-6.6,12.8-6.6c0,9.1,0,18.2,0,27.4c-2.3,2.1-4.9,2.7-8,1.9
		c0,1.6,0.7,3.1,1.6,4.5c1.8,3.1,3.5,6.3,5.3,9.4c0.6,1.1,0.6,2.3,1.2,3.4c0,3.5,0,7,0,10.6c-2.8,6.1-6.9,7.1-11.9,6.6
		c-7.2-0.6-11.3-4.1-13-10.3c-0.3-1.1-0.6-2.3-0.5-3.5C711.7,499.6,711.7,496.8,712,494.1z"/>
	<path class="st10" d="M0.8,1219.9c0,8.8-0.1,17.6-0.1,26.4c-0.1-0.1-0.5,0.2-0.5-0.2c0-0.6,0-1.3,0-1.9c0-413.9,0-827.8,0-1241.8
		c0-1.8,0.4-2.2,2.2-2.2c244.3,0,488.6,0,733,0.1c0.7,0,1.6-0.6,2.2,0.5c-244.6,0-489.1,0-733.7,0c-3.1,0-3.1,0-3.1,3.1
		c0,160.6,0,321.1,0,481.7c0,1,0.1,1.9,0.1,2.9c0.9,0.9,0.9,2,0.9,3.1c0,22.6,0,45.3,0,67.9c0,1-0.3,1.9-0.2,2.9
		c0.2,0.9,0.2,1.7,0.2,2.6c0,100.3,0,200.6-0.1,301c0,4.4-0.3,8.8-0.1,13.2c0.2,0.8,0.2,1.6,0.2,2.4c0,32.6,0,65.1,0,97.7
		c0,0.2,0,0.5,0,0.7c-0.4,6.8-0.3,13.6-0.1,20.4c0.1,2.1,0.1,4.2,0.1,6.2c0,14.7,0,29.4,0,44.1c0,0.8,0,1.6-0.2,2.4
		c0,0.3,0,0.6,0,0.9c0.3,5.7,0.3,11.5,0,17.2c0.3,9.5,0.3,19,0,28.5c0,0.3,0,0.6,0,0.9c0.3,2.6,0.1,5.2,0.2,7.9c0,9.3,0,18.6,0,28
		c0,1.1,0,2.2-0.2,3.3c0.2,1,0.2,2.1,0.2,3.1c0,17.7,0,35.3,0,53c0,1.1,0,2.2-0.2,3.3c0.4,6.1,0.1,12.2,0.1,18.3
		C1.6,1218.4,1.4,1219.2,0.8,1219.9z"/>
	<path class="st1" d="M737.5,499c-5.2-7.5-8.7-14.8-9-19.2c3.2,3.3,6.1,0.6,9,0C737.5,486.2,737.5,492.6,737.5,499z"/>
	<path class="st11" d="M737.5,1057.2c-60.4,0-120.7,0-181.1,0c-1.1,0-2.3,0.4-3.2-0.5c61.4,0,122.9,0,184.3,0
		C737.5,1056.9,737.5,1057,737.5,1057.2z"/>
	<path class="st12" d="M732.7,1208.9c1.7-1.5,3.4-3,4.8-4.8c0,4.5,0,9,0,13.4C734.7,1215.3,734,1211.9,732.7,1208.9z"/>
	<path class="st13" d="M684.7,1139.8c0.8-0.8,1.8-0.5,2.7-0.5c16.7,0,33.4,0,50.1,0c0,0.2,0,0.3,0,0.5
		C719.9,1139.8,702.3,1139.8,684.7,1139.8z"/>
	<path class="st14" d="M737.5,167.3c-3.2,0-6.4,0-9.5-0.1c3.1-0.9,6.4-0.2,9.5-0.4C737.5,167,737.5,167.1,737.5,167.3z"/>
	<path class="st15" d="M737.5,293c-2.1,0-4.2,0-6.3,0c2.1-0.9,4.2-0.3,6.3-0.4C737.5,292.7,737.5,292.9,737.5,293z"/>
	<path class="st16" d="M0.8,562.3c0-19.9-0.1-39.7-0.1-59.6c0-4.8,0.1-9.6,0.1-14.4c9.7-14.7,19.8-29.2,30.6-43.1
		c6.1-7.9,12.5-15.5,18.9-23.1c8.8-10.4,18.4-19.9,28.1-29.4c6.7-6.5,13.8-12.5,21-18.4c9.4-7.7,18.8-15.4,28.4-22.9
		c8.7-6.8,17.5-13.4,26.4-19.8c12.6-9,25.5-17.5,38.9-25.3c10.7-6.2,21.7-11.9,33-16.9c16.9-7.5,34.1-14,51.7-19.6
		c18.4-5.9,37.1-10.5,56-14.3c10.6-2.1,21.3-3.7,32-5.2c6.4-0.9,12.8-1.3,19.2-2c6.7-0.7,13.4-1.5,20.2-1.4c1.4-0.6,2.9,0.2,4.3-0.5
		c1.6,0,3.2,0,4.9,0c2.2-0.6,4.5,0.2,6.7-0.5c3.4-0.3,6.8,0.5,10.1-0.5c3.8,0.5,7.6,0.1,11.4,0.2c2.4,0.1,4.9-0.3,7.3,0.2
		c11.1-0.2,21.7,2.3,32.4,4.5c4.8,1,9.6,1.9,14.5,2.7c3.2,0.5,3.2,0.5,2.2,3.5c-0.3,1.1-0.8,2.1-0.7,3.2c-5.6,1.5-9.8,4.3-11.1,10.5
		c-0.8,4-3.3,7.3-7,9c-6.8,3-13,7.1-19.7,10.2c-6.4,3-13.4,4-20.4,4.9c-8.5,1.1-17.1,1.9-25.1,5.3c-1.1,0.4-2,0.9-2.5,2
		c-1.5,0-2.4-1-2.8-2.2c-0.5-1.6-1.6-2.9-1.9-4.7c-0.1-0.8-0.5-1.4-1.3-1.6c-3.2-0.8-6.3-1.8-8.9-3.8c-0.5-0.4-0.9-0.2-1.3,0.2
		c-1,1.3-2.5,1.2-3.9,1.6c-5.4,1.3-11,2.3-16.3,3.9c-3.6,1.1-7.2,1.3-10.8,2c-9.6,1.6-19.2,3.5-28.8,5c-12.3,1.8-24.5,4.4-36.5,7.9
		c-1.9,0.6-3.8,1.2-5.7,1.8c-1.3,0.4-2.6,0.9-3.8-0.2c-0.4,1.5-1.6,2.1-3,2.4c-2.6,0.7-5,2.4-7.8,1.2c-0.3-0.1-0.5-0.2-0.5,0.4
		c0,1.4-1.2,1.8-2.3,2.1c-8.6,2.8-16.9,6.3-25.1,10c-0.5,0.2-1,0.5-1.6,0.4c-1-0.1-2.3-0.8-2.4,1.1c0,0.2-0.4,0.5-0.5,0.4
		c-3.3-0.6-5,4.2-8.6,2.5c-0.3-0.2-0.7,0.1-1,0.5c-1.9,3.5-5,4.5-8.7,4.3c-1.6-0.1-2.9,0.5-3.7,2.1c-1.3,2.5-5.4,4.6-8.2,4.2
		c-1.1-0.2-1.5,0.3-1.8,1.1c-0.6,1.4-1.5,2.2-3.1,2c-0.2,0-0.4-0.1-0.5-0.1c-1,2.4-3.9,2-5.4,3.5c-1,1-2.2,1.9-3.5,2.5
		c-5.4,2.7-10.3,6-15.2,9.4c-1.4,1-3,1.5-4.8,1.9c-2.6,0.5-5.2,1.7-6.3,4.7c-0.6,1.7-2.1,2.6-3.8,3c-1.1,0.2-2.2,0.2-2.5,1.6
		c0,0.1-0.2,0.3-0.3,0.4c-3.9,1.7-6.3,5.5-9.9,7.7c-3.6,2.3-6.9,4.9-10.2,7.5c-2.1,1.7-3.9,3.8-6.1,5.3c-0.8,0.6-1.5,1.5-2.6,1.6
		c-0.6,0.1-0.9,0.5-1.1,1.1c-0.3,0.9-0.9,1.5-1.8,1.7c-0.9,0.1-1.1,1-1.7,1.4c-1.9,1.6-4.4,2.6-5.5,5.1c-2.3,0.1-3.4,1.2-3.8,3.5
		c-0.2,1.1-1.4,1.5-2.5,1.6c-2,0.1-3.1,1.2-3.4,3.1c-0.3,1.9-1.5,2.8-3.4,3.2c-3.1,0.7-5,3-6.1,5.8c-1.2,2.9-2.9,5.1-6.1,5.7
		c-0.9,0.2-1.7,0.5-2.3,1.2c-2.1,2.3-4.7,4-5.5,7.6c-0.5,2.2-2.7,3.8-5.1,4.7c-3,1.1-5.3,3.1-6,6.4c-0.3,1.7-1.3,2.8-2.9,3.1
		c-2,0.4-3.1,1.4-3.3,3.5c-0.1,1.5-1,2.5-2.6,2.7c-1.5,0.2-2.2,1.1-2.3,2.6c0,0.2-0.1,0.5-0.1,0.7c-0.4,1.9-2.6,1.5-3.4,2.7
		c-0.7,1.2-0.6,3-2.4,3.5c-0.4,0.1-1.1,0.2-1.1,0.4c-0.2,2.4-2.9,3.1-3.6,5.1c-0.3,0.7-0.6,1.4-1.3,1.6c-1,0.3-1.4,0.9-1.6,1.9
		c0,0.3-0.2,0.6-0.4,0.8c-3.8,3-6.1,7.3-9.3,10.9c-2.8,3.1-5.3,6.7-8,10c-3.3,4-6.2,8.3-9.6,12.2c-4.6,5.4-8.3,11.6-12.4,17.3
		c-3.6,4.9-6.4,10.3-9.4,15.5c-0.3,0.5-0.6,1-1.2,1.2c-1.1,0.3-1.1,1-1.1,2c0.1,2-0.8,3.6-2.7,4.5c-1.8,0.9-2.3,2.2-2.2,4.2
		c0.2,3.3-1.9,5.8-3.7,8.4C1.9,562.8,1.2,562.8,0.8,562.3z"/>
	<path class="st17" d="M506.6,253.2c-1.4,0-2.8,0-4.3,0c-0.4,0-0.9,0.1-1.1-0.3c-0.2-0.5,0.1-0.9,0.4-1.3c0.9-1.1,2-1.2,3.1-0.4
		C505.5,251.8,506,252.6,506.6,253.2C506.6,253.2,506.6,253.2,506.6,253.2z"/>
	<path class="st18" d="M449.9,246c-5.4,0-10.8,0-16.2,0c-0.8,0-1.8,0.3-2.5-0.5c5.4,0,10.8,0,16.2,0
		C448.3,245.5,449.2,245.3,449.9,246z"/>
	<path class="st19" d="M421.1,246c-2.2,1-4.4,0.2-6.7,0.5C416.6,245.5,418.9,246.2,421.1,246z"/>
	<path class="st20" d="M409.6,246.5c-1.3,0.9-2.9,0.3-4.3,0.5C406.7,246,408.2,246.7,409.6,246.5z"/>
	<path class="st21" d="M722.2,167.3c-1.2,0.8-2.6,0.3-3.9,0.4C719.5,166.9,720.9,167.4,722.2,167.3z"/>
	<path class="st22" d="M0.8,562.3c1,0.1,1.4-0.5,1.8-1.3c0.8-1.6,1.6-3.1,2.3-4.7c0.4-0.9,1.2-1.8,0-3c-0.6-0.6,1.4-3.8,2.4-4.1
		c2.3-0.6,3.4-2.8,2.5-4.9c-0.4-1-0.1-1.4,0.9-1.3c1.1,0.1,1.9-0.5,1.9-1.4c0.1-2,1.6-3.4,2.5-4.9c3.1-5.6,6.8-10.9,10.5-16.2
		c2.2-3.2,4.4-6.4,6.7-9.5c1.6-2.1,3.3-4.4,5.3-6.3c0.5-0.4,0.9-0.8,1.2-1.5c1.6-3.8,5.8-5.7,6.9-9.8c3.3-1.4,3.8-5.4,6.2-7.2
		c1.5-1.2,2.7-2.7,3.5-4c1.1-1.7,4.1-2.4,3.3-5.3c-0.2-0.9,0.5-0.8,1-0.7c1.5,0.2,2.1-0.6,1.9-1.9c-0.1-1-0.3-1.8,1.2-1.4
		c0.2,0.1,0.5,0,0.7,0c2-0.5,0-3.3,1.5-3.3c2,0,2.7-0.6,2.3-2.5c-0.2-1.2,0.3-1.6,1.5-1.4c2,0.2,2.6-0.9,2.4-2.6
		c-0.2-1.5,0.2-1.8,1.7-1.7c1.6,0.2,2.3-0.9,2.2-2.4c-0.2-2,0.6-2.9,2.7-2.8c1.5,0.1,2.1-0.8,2.2-2.3c0.1-2.5,1.3-3.7,3.7-4
		c1.7-0.2,2.7-1.3,2.4-2.9c-0.2-1.1,0.2-1.8,1-2.5c2.1-1.6,3.3-4.1,6.6-4.6c1.8-0.3,4.5-2.4,3.9-5.5c-0.1-0.6,0.1-0.9,0.5-1.3
		c1.9-1.9,3.8-3.9,5.8-5.8c0.3-0.3,0.7-0.6,1-0.6c3.9-0.1,5.8-2.1,6.2-5.9c0.2-1.5,5.4-5.4,6.9-5.5c1.7-0.1,2.7-1,2.8-2.6
		c0.2-2.2,1.6-3.6,3.9-3.6c1.5,0,2.4-0.7,2.3-2.3c-0.1-1.8,0.8-2.7,2.5-2.5c1.6,0.1,2.5-0.2,2.2-2.1c-0.2-1.4,0.7-2,2.1-1.8
		c0.8,0.1,2.1,0.2,2-0.7c-0.1-2.3,1-2.4,2.7-2.3c0.2,0,0.8-0.6,0.7-0.8c-0.5-2.3,1.1-1.7,2.3-2.1c1.4-0.5,2.8-1.9,3.6-2.9
		c2.3-3.1,5.4-5.1,8.3-7.1c4-2.9,8-6,12.1-8.8c0.4-0.3,1.2-0.5,0.9-1.2c-0.6-1.7,0.3-1.7,1.5-1.5c1.1,0.2,2,0.4,1.6-1.5
		c-0.3-1.2,0.9-1.1,1.8-0.9c2.1,0.5,4.3-1.3,4.3-2.2c-0.2-3.7,3.3-3.1,4.7-4.8c0.7-0.9,1.7-1.3,3.3-0.8c1.7,0.5,3.2-1.5,4.7-2.5
		c3.5-2.5,7.1-4.7,10.8-6.8c2.1-1.2,4.1-2.3,6.2-3.5c0.4-0.2,0.7-0.5,0.6-0.9c-0.1-1.8,0.3-1.7,1.8-0.9c1.1,0.6,2.5-0.2,2.5-1.7
		c0.1-1.5,0.3-1.6,1.6-0.8c1.1,0.7,2.4,0.1,2.7-1.1c0.4-1.9,0.8-3,2.9-1.6c0.6,0.4,1.5,0,2-0.4c1.9-1.4,5-1.1,5.5-4.6
		c0.1-0.9,2.7-2.4,3.8-1.8c2.4,1.3,3.9-0.2,5.5-1.1c1.1-0.6,3.5-0.3,2.7-3c-0.1-0.3,1.4-1.2,2.6-0.6c2,0.9,3,0.1,3.5-2
		c0.3-1.2,1.1-0.6,1.8-0.3c1.8,0.7,2.2,0.4,2.5-1.6c0.1-0.7,0.7-0.9,0.9-0.7c2.7,1.9,4.7-0.5,6.7-1.4c5.4-2.3,10.9-4.5,16.4-6.6
		c2.1-0.8,4.1-1.7,6.3-2.1c1.5-0.3,0.3-2.3,1.8-2.4c1.1-0.1,1.9,1.1,3.1,0.6c1.9-0.8,3.9-1.3,5.9-2c0.6-0.2,1.5-0.5,1.3-1.2
		c-0.3-1.1,0-1.2,0.7-0.6c1.2,1,2.3,0.4,3.4,0c6.4-2.2,12.9-4,19.6-5.4c5.8-1.2,11.6-2.6,17.4-3.6c8.2-1.4,16.5-2.6,24.7-4.2
		c6.3-1.2,12.7-1.7,19-3.2c5.4-1.3,10.9-2.4,16.2-3.9c0.9-0.3,1.9-0.5,2.8-0.5c1,0,1.6-0.2,2-1.2c0.6-1.5,1.8-1.4,2.6-0.5
		c2.2,2.4,5.1,3.1,8.1,3.6c1.4,0.3,2.1,0.9,2.4,2.2c0.6,2.7,1.4,5.4,3.8,7.2c-0.7,5-5.2,8.5-10.5,8.2c-5.2-0.3-10.4,1.3-15.2,3.5
		c-6.2,2.8-12,6.3-17.9,9.4c-3.5,1.8-7.3,3.2-11.1,4.4c-4,1.3-6.2,4.4-6.4,8.6c-0.2,3.5,0.6,6.8,1.2,10.2c0.2,0.9,0.2,1.7,0.3,2.6
		c0.4,1,0.3,2,0,3c-0.3,3.5-2.3,5.1-6.7,5.2c-0.7-1.2,0.1-2.7-0.4-3.7c0.2,1.3,0.3,2.7-0.1,4.2c-1.5,1.6-3.7,2.5-4.9,4.4
		c-0.7,1.2-1.3,2.3-1.3,3.7c0.3,1.1,0.4,2.3,0,3.4c-0.5,2.5-2.2,4-3.7,5.8c-2.2,2.6-4.8,4.9-6.8,7.6c-0.8,1.1-0.6,2.4-0.1,3.7
		c0.8,2.2,1.4,4.6,1.9,6.9c0.9,4.4-1,7.6-5.4,8.6c-3.6,0.8-7.2,1.6-10.9,1.4c-2.8-0.2-5.4,1.4-8.3,0.6c-2-0.5-3.7-1.6-5.6-2.1
		c-1.7-1-2.2-2.8-3-4.4c-0.7-1.3-1.3-2.7-2.6-3.6c-1.3-0.9-2.3-0.9-2.9,0.8c-0.4,0.8-0.4,1.6,0,2.4c0.6,1.8,1.9,3.1,3.1,4.4
		c0.8,0.8,1.9,1.5,2.1,2.8c-0.6,2.6-1.2,5.3-1.8,7.9c-0.3,1.4-0.1,2.2,1.7,1.6c1.9-0.7,4-1.1,5.9-1.7c1.3,1.9,0.9,4,0.9,6.1
		c-8,1.5-15.7-0.8-23.4-2.1c-5-0.9-9.9-1.4-14.9-0.7c-0.9,0.1-1.8,0.5-2.7,0.9c-3.5,1.5-4.7,1.2-6.7-2c-0.8-1.3-1.4-1.8-2.9-1.4
		c-1,0.3-2.2,0.1-3.3,0.1c-2.7,0.1-3.6,1.3-2.9,3.9c0.2,0.7,0.4,1.4,0.8,2c1.6,2.3,0.8,3.6-1.4,4.9c-1.8,1.1-3.6,2.3-5.6,3.2
		c-2.9,1.3-5.9,1.6-8.7,0.1c-4.7-2.5-9.4-2.3-14.4-0.8c-4.5,1.4-8.8,3.4-13.5,4.2c-2.1,0.4-4.3,0.4-6.4,0c-2.2-0.4-3.1,0.3-3.3,2.5
		c-0.1,1.4,0.2,2.7,0.6,4c1,3.3,0,6-2.8,7.9c-1.3,0.9-2.8,1.6-4.2,2.3c-11,5.1-18.8,13.5-24.9,23.8c-3.3,5.6-6.2,11.5-10.9,16.3
		c-2.4,2.5-5.1,4.4-8.5,5.6c-10.2,3.7-15.1,12-17.9,21.8c-2.6,9.1-3.6,18.6-6.2,27.7c-1,3.4-2.3,6.6-2.9,10.1
		c-1,5.4,0.8,9.5,5.3,12.5c0.6,0.8,0.3,1.5-0.1,2.2c-0.9,1.8-2,3.4-3.2,5c-2.9,3.7-5.3,7.8-7.8,11.7c-1.3,2.1-2.9,4.1-4.4,6.2
		c-2.4,3.5-4.7,7.2-7.4,10.5c-3.3,4-6.1,8.3-8.7,12.8c-0.9,1.6-1.9,3.2-3,4.6c-4.7,6-8,12.9-12.1,19.3c-1.5,2.4-3.6,4.7-4,7.8
		c0,0.2-0.2,0.5-0.3,0.6c-3.8,3.9-4.7,9.3-7.2,14c-0.7,1.3-1.4,2.7-2.4,3.8c-0.4,0.4-0.8,0.8-1,1.4c-1,4.2-3.2,7.9-4.9,11.9
		c-1.7,3.9-3.5,7.7-5.2,11.6c-1.8,4.1-3.6,8.2-5.1,12.4c-1.7,4.7-4,9.1-5.6,13.7c-1.4,4.1-2.8,8.3-4.5,12.3
		c-2.5,6-3.9,12.3-6.3,18.3c-1.6,3.9-2.3,8.3-3.6,12.3c-3.1,9.9-5.8,20-8.3,30c-2,8.1-3.5,16.4-5.2,24.6c-3,14.7-5.1,29.6-7,44.5
		c-0.9,6.8-1.8,13.6-2.3,20.5c-0.1,1,0.4,2.6-1.6,2.4c0-0.8-0.1-1.6-0.1-2.4c0-104,0-208,0-312C0.7,563.9,0.7,563.1,0.8,562.3z"/>
	<path class="st23" d="M0.8,879.1c0.5-0.1,0.9-0.5,0.8-1c-0.3-2.6,0.4-5.2,0.4-7.8c0.1-3,0.8-6,1.2-9.1c1-7.9,2.1-15.7,3.2-23.6
		c0.4-3,1.2-6,1.4-9c0.1-3.2,0.7-6.4,1.4-9.3c1.3-4.8,1.9-9.8,3.2-14.6c1.2-4.6,2.4-9.3,3.1-14c0.7-4.6,2.3-9,3.3-13.5
		c1.2-5.2,2.3-10.4,4.1-15.4c1.5-3.8,2.6-7.8,3.5-11.7c1.5-6.1,4.8-11.5,5.6-17.8c0.2-2.1,2.1-3.5,2.5-5.6c0.7-4.1,2.8-7.8,4-11.8
		c1.2-4.4,3.7-8.5,5.4-12.8c1.7-4.3,3-8.8,5.1-12.9c1-2,2-4.1,2.8-6.2c1-2.7,3.4-4.9,3.3-8c0-0.6,0.4-1,0.8-1.4
		c1.4-1.7,2.4-3.6,2.8-5.9c0.3-1.9,1.2-3.7,2.5-5.3c2.2-2.7,3.8-5.8,4.6-9.3c0.5-2.3,1.7-4.3,3.3-6c0.8-0.8,1.6-1.7,1.6-2.6
		c0.1-3.2,2.6-5.1,3.8-7.7c1.1-2.3,3-4.4,4.2-6.8c2.9-5.6,7.1-10.4,10.2-15.8c2-3.6,4.9-6.7,6.5-10.6c0.3-0.7,0.9-1.3,1.5-1.8
		c2.8-2.1,3.7-5.6,5.8-8.2c1.7-2.1,3-4.5,4.6-6.5c1.9-2.4,3-5.3,5.4-7.3c0.8-0.7,1.2-2,1.8-3.1c2.3-3.8,5.4-7,7.5-11
		c0.2-0.3,0.2-0.8,0.3-1.1c1.8,0.5,3.6,0.6,5.4,0.5c2.7-0.2,4.9-1.3,6.2-3.8c0.8-1.5,1.7-2.9,3-4c1.7-1.7,3.7-2.2,5.9-1.1
		c5.6,2.8,11.1,2.2,16.5-0.5c3.6-1.8,7-3.8,10.5-5.7c2.4-1.3,4.9-2.3,7.6-2.7c1.1,0.5,1.3,1.5,1.7,2.5c2.1,5.2,4.2,10.5,6.3,15.7
		c0.4,1.1,1.1,2.2,0.2,3.4c-3,1.9-6.4,2.8-9.7,3.9c-4.3,1.4-8.2,3.6-11.5,6.7c-1.4,1.3-1.6,2.2,0.2,3.5c5.9,4.3,12.7,6.1,19.8,7.1
		c6.8,0.9,13.6,1.3,20.1,3.8c3.6,1.4,6.9,3.3,9.8,5.9c1.4,1.2,1.3,2.3,0.6,3.7c-1.6,3-3.9,5.4-6.5,7.6c-3.1,2.6-6.6,4.7-9.3,7.9
		c-3.5,4.2-4.8,8.9-4,14.2c0.1,0.4,0,0.8-0.3,1.1c-6.1-1.8-10.7,0.7-14.6,5.3c-8.2,9.6-15.2,20-22,30.5c-9.9,15.1-18.6,30.8-26.5,47
		c-10.4,21.6-19.1,43.8-26.2,66.7c-8.2,26.6-14.3,53.6-18.6,81.1c-2.1,13.3-3.8,26.7-4.8,40.2c-0.2,3.2-0.1,6.4-0.8,9.5
		c-0.3,1.3-0.2,2.7,0,4c0.1,2.2,0.1,4.3-0.3,6.5c-0.5,3.4-0.3,6.8-0.1,10.2c0.1,3.3,0.1,6.7,0,10c-0.2,3.7-0.5,7.4,0.3,11
		c0.3,1.9,0.3,3.8,0.2,5.7c-0.3,1.7-0.2,3.4,0.3,5c0.4,8.4,1.2,16.8,2.1,25.2c1.4,12.9,3.2,25.8,5.5,38.6c0.3,1.6,0.8,3.3,0.4,5
		c-1.5,2.3-3.6,3.7-6.3,4.4c-17.3,4.9-34.6,9.9-51.9,14.8c-1,0.2-2,0.1-2.9-0.1c-3-0.7-6-0.4-9-0.2c-3,0-6,0.2-9-0.2
		c-1-0.2-2-0.5-3.1-0.5c-1.9,0.1-2.5-1-2.5-2.7c0-2,0.2-4-0.4-5.9c-0.4-2.4-0.2-4.8-0.3-7.2c0.4-1.9,0.5-3.7-0.2-5.6
		c-0.2-1.4-0.3-2.7-0.2-4.1c0.3-1.5,0.2-3-0.3-4.4c-0.2-1.2-0.3-2.5-0.2-3.7c0.3-1.4,0.1-2.7-0.3-4c-0.2-1.1-0.3-2.2-0.2-3.3
		c0.3-1.3,0-2.4-0.4-3.6c-0.8-5.2-1-10.5-1-15.8c0-1.2,0.1-2.5-0.2-3.7c-0.1-1.1,0-2.1,0-3.2c-0.1-1.2,0.1-2.3-0.2-3.5
		c-0.2-1.1,0.1-2.3-0.2-3.4c0-11.9-0.1-23.8-0.1-35.7c0-20.8,0-41.7,0-62.5C0.7,880.9,0.7,880,0.8,879.1z"/>
	<path class="st24" d="M707.2,930.5c0,5.3,0,10.6,0,15.9c-0.5,2.2-0.1,4.4-0.2,6.6c-0.1,0.8,0.2,1.7-0.2,2.5
		c0.1,10.3-0.8,20.5-1.9,30.7c-0.7,6.9-1.3,13.7-2,20.6c-0.5,5.4-0.8,10.9-1.4,16.4c-0.2,1.7,1.3,1.3,1.9,2
		c-8.8-0.6-17.3-1.7-24.9-7.1c-2.8-2-6.7-1.8-10.1-2.5c-5.4-1.2-11-1.3-16.4-2.8c-5.2-1.5-7.5-4.4-7.6-9.8
		c-0.1-6.3,1.4-12.5,2.2-18.7c0.8-6.3,1.7-12.6,2.2-18.9c0.3-3.1,0.4-6.2,0.4-9.3c0.7-1.9-0.2-3.9,0.5-5.7c0-7.2,0-14.4,0-21.6
		c-0.6-1.9,0.2-3.9-0.5-5.7c-0.1-9-1.2-17.9-2.3-26.8c-1.7-13.5-4.3-26.7-7.7-39.8c-4.3-17-10-33.6-17-49.8
		c-8.2-19.1-18.1-37.1-30-54.1c-6.3-9-13.1-17.5-20.4-25.6c-14.1-15.7-29.9-29.2-47.7-40.4c-12.8-8-26.3-14.8-40.8-19.4
		c-2.5-0.8-5-1.6-7.5-2.5c-6.2-2.2-10.6-6.1-12-12.8c12.5-4.3,24.7-9.6,37.8-11.7c8.8-1.4,17.5-0.6,25.8,2.8
		c0.2,0.1,0.4,0.2,0.6,0.3c4.1,1.8,8.2,2.6,12.6,0.8c9.1-3.8,17.5-1.8,25.3,3.7c0.3,0.2,0.7,0.4,1,0.6c7.2,5.5,15.1,9.8,23.3,13.6
		c11.6,5.5,22.5,12.4,33.9,18.4c0.9,7.9,4.7,14.5,9.1,20.8c7.1,10,13.7,20.4,19.9,31c5.4,9.4,10.4,19,15.1,28.8
		c5.6,11.8,10.6,23.9,15.1,36.2c5.1,14.3,9.4,28.8,12.9,43.6c2.8,11.8,5,23.8,6.7,35.9c1.2,8.8,2.2,17.6,2.9,26.5
		c0.5,6.2,1,12.4,0.9,18.6c0.5,2.2,0.1,4.4,0.2,6.5C707.1,928.8,706.8,929.7,707.2,930.5z"/>
	<path class="st25" d="M80.4,914.2c1.1-2.9,0.6-6,0.8-9c0.9-11.4,2.3-22.8,3.9-34.1c2.8-20,6.7-39.9,11.6-59.5
		c5.9-23.8,13.5-47.1,22.8-69.8c5.5-13.2,11.5-26.2,18.2-38.8c11-20.8,23.7-40.7,37.9-59.5c2.1-2.7,4.2-5.4,6.9-7.5
		c3.2-2.5,6.8-3.8,10.9-2.7c0.6,0.2,1,0.4,1.1,1c-0.3,3.6-2.4,6.7-3.1,10.3c-1.1,5.3,2.8,11.6,8.1,12.7c2.2,0.4,4.1-0.2,5.8-1.6
		c1.7-1.4,3.2-2.9,4.4-4.7c2.8-3.8,6.7-5.5,11.2-5.1c9,0.8,16.9,3.9,22.5,11.4c-0.1,1.2-1,1.8-1.9,2.4c-5.3,4-10.4,8.3-15.2,12.8
		c-5.8,5.4-10.3,11.8-14.8,18.2c-13,18.7-24.7,38.1-34.9,58.5c-12.4,24.8-22.4,50.6-29.7,77.4c-5.4,19.7-9.2,39.7-11.6,60
		c-1,8.6-1.9,17.2-2.1,25.8c0,1.1-0.2,2.2-0.4,3.3c-0.3,1.8-0.2,3.6,0,5.4c-0.1,9.6-0.1,19.3,0,28.9c-0.3,1.9-0.4,3.8,0.1,5.6
		c0.8,3.6,0.5,7.3,0.7,11c1.2,17,3.3,33.8,6.2,50.5c0.2,1.3,0.5,2.5,0.3,3.8c-0.3,1.3-1.3,1.7-2.3,2.2
		c-14.6,6.3-29.6,11.4-45.4,13.7c-1.2,0.2-2.8,1.2-3.7-0.7c-0.8-5.2-1.7-10.4-2.5-15.5c-1.3-7.8-2.4-15.5-3.2-23.4
		c-0.8-7.8-1.6-15.6-2.3-23.5c-0.2-2.2,0-4.5-0.1-6.7c-0.6-1.5,0.2-3.2-0.5-4.8c0-1.9,0-3.9,0-5.8c-0.5-2.7-0.1-5.5-0.2-8.2
		c-0.1-0.9,0.2-1.9-0.2-2.8c0-3.4,0-6.7,0-10.1c0.4-3.5,0.4-7,0-10.5c0.9-2,0.3-4.2,0.5-6.3C80.7,917,80.7,915.6,80.4,914.2z"/>
	<path class="st26" d="M523.8,521.9c10.1-4.2,20.9-5.9,31.3-9.1c2.7-0.9,5.3-2.2,7.8-4.1c-3.4-1.7-6.7-1.6-9.8-0.9
		c-11,2.6-22.2,4.4-33.4,5.9c-7.8,1.1-15.7,1.6-23.6,2.2c-10.6,0.7-21.1-0.3-31.6-0.8c-12.8-0.5-25.1,0.9-36.5,7.2
		c-5.5,3-10.7,1.6-16.4-3.9c-3.7-3.6-6.7-7.8-10.8-10.8c-1-0.7-1.9-1.5-3-1.9c-2.5-0.9-2.6-2.7-1.9-4.6c1.4-3.6,3.1-7,5.2-10.2
		c2-2.9,4.6-3.9,8.1-2.9c4.8,1.4,9.6,2.9,14.4,4.5c4.4,1.5,6.6,0.3,7.9-4.2c0.6-2.1,0.9-4.2,1.5-6.3c1.3-3.9,3.5-5.5,7.4-4.2
		c5.6,1.8,10.8,1.4,16.3-0.1c8.9-2.3,15.2,0.9,19.4,9c0.8,1.6,1.3,3.4,2.4,4.9c0.9,1.2,2,2.5,3.7,2.3c1.9-0.2,2.5-1.8,3-3.4
		c0.5-1.7,0.7-3.4,1.1-5.1c1.5-6.2,5-8.4,11.1-6.4c5.9,1.9,11.9,3.7,18.1,4.2c5.2,0.4,10.3,1,15.5,0.4c3.9-0.4,7.8,0,11.7-0.7
		c8.9-1.4,17.4,0.5,26,2.5c4.1,1,7.9,0.2,11.6-1.7c2-1,3.7-0.5,5.4,1.4c1.4,1.7,1,3.2-0.2,5c-3.8,5.5-9.4,8.5-15,11.6
		c-2.7,1.5-4.9,3.5-6.9,6.1c0.8,0.3,1.3,0,1.8-0.2c11-4.4,22.3-6.2,34.2-5.4c9.1,0.7,17.7,2.9,26,6.4c6.7,2.8,11.3,8.2,16.1,13.4
		c4.3,4.8,9,9,14.8,11.9c11.7,5.9,21.3,14.1,27.2,26.1c3.1,6.4,5,13.2,5.5,20.2c0.4,6,0.1,12.1-0.2,18.2c-0.2,4.8,1.2,9.6,2.5,14.3
		c1.1,4.1,2,8.2,2.5,12.4c0.3,2.2-0.1,4.3-0.6,6.4c-1.4,5.7-4.4,7.5-10.3,6.3c-1.2-0.2-2.3-0.5-3.5-0.8c-3.2-0.9-6.1-0.5-8.9,1.4
		c-0.7,0.5-1.6,0.7-2.4,1.1c-1.2,0.3-1.5-0.8-1.8-1.5c-6.7-12.6-15.7-23.5-26.1-33.2c-5.3-4.9-10.6-9.7-16.2-14.3
		c-6.5-5.3-12.5-11.2-19.1-16.4c-14-11-28.8-20.7-44.3-29.5c-11.4-6.5-23.1-12.4-33.3-20.9C526.6,522.9,524.9,523.1,523.8,521.9z"/>
	<path class="st27" d="M523.8,521.9c2.7-0.5,4.5,1.3,6.3,2.8c7.8,6.2,16.4,11,25,15.8c10.7,6,21.3,12.2,31.4,19.2
		c10.3,7,20.2,14.4,29.4,22.8c7.7,7.1,16.1,13.6,23.8,20.7c7.9,7.3,15.2,15.2,21.2,24.3c2.6,4,4.8,8.3,7.5,12.2
		c-6.7,6.7-14,12.4-23,15.6c-10.4,3.6-20.8,3.1-30.8-1.3c-14.6-6.4-28.9-13.6-41.9-23c-9.2-6.6-17.4-14.3-24.2-23.4
		c-6.7-9.1-15.2-16.4-24.2-23c-5.7-4.2-11.3-8.3-17-12.5c-4.8-3.5-10-3.5-15.3-1.7c-3.8,1.3-7.4,2.9-11.1,4.4
		c-7.4,2.9-15.2,4.6-23.1,4.3c-12.6-0.4-23.7-5.2-33.8-12.6c-6.9-5-12.6-11.2-18.6-17.2c-1.9-1.9-2.5-4.2-1.7-6.8
		c0.8-2.7,1.8-5.3,3-7.8c3.4-6.8,5.4-6.7,10.6-6.3c1.3,0.3,2.5,0.3,3.8,0c8.5-0.5,16.5-3.1,24.7-5c7.1-1.7,14.2-2.3,21.5-1.4
		c4.4,0.5,8.9,0.5,13.3,0.7c4.3,0.3,8.6,0.3,12.9,0C503.7,522.3,513.7,521.8,523.8,521.9z"/>
	<path class="st28" d="M132.2,950.2c0-9.8,0-19.6,0-29.3c0.4-1.9,0.4-3.8,0-5.7c0.4-0.7,0.5-1.5,0.5-2.3c0.1-7.9,1-15.7,1.8-23.5
		c1-10.2,2.5-20.3,4.4-30.4c4.3-23.3,10.7-46.1,19-68.3c4.9-13.2,10.6-26,16.7-38.7c7.8-15.9,16.6-31.3,26.1-46.2
		c5.1-7.9,10.4-15.7,16-23.3c4.3-5.8,9.5-10.9,15.1-15.6c3.9-3.2,7.8-6.4,11.7-9.4c1.1,1,6.3,1.9,7.4,1.4c0.6-0.3,0.6-0.9,0.8-1.4
		c2.4-8,7.8-12.6,16.1-14.2c9.6-1.8,18.5-5.8,27.3-10c2.6-1.2,3.7-0.7,4.5,2.1c0.2,0.8,0.4,1.7,0.5,2.6c0.8,4.1,2.3,5.5,6.5,6.2
		c0.5,0.1,1.1,0.3,1.6,0.4c0.3,1.4-0.8,2-1.5,2.7c-5.6,5.6-11.6,10.7-17.5,15.9c-6.2,5.5-12.6,10.8-18.6,16.5
		c-1.1,1-2.5,1.6-3.5,2.9c-1.7,1-3.2,2.1-4.2,4c-0.8,1.5-2.9,1.9-4.6,2.1c-1,0.1-1.9,0.3-2.6,1c-3.3,3.6-5,7.7-5.3,12.6
		c-0.1,2.4-1.3,4.7-1.5,7.1c0,0.2-0.3,0.5-0.3,0.7c0.5,4.2-2,8.3,0.2,12.6c1.3,2.6,1.4,5.7,1.3,8.7c-0.1,2.3,0.6,4.1,2.4,5.5
		c1,0.8,1.4,1.6,1.2,2.8c-0.1,0.9,0.1,1.8,0.1,2.6c-0.1,1.4,1.7,2.8,0.5,4c-2.1,2.3-3,5.6-6.8,6.5c-4.7,1.1-9.6,1.7-14.1,3.6
		c-7.4,3.1-15.1,5.6-22,9.8c-3,1.9-6.5,3-9.7,4.6c-1.4,0.7-2.7,1.6-4.1,2.5c-1.1,0.7-2.1,1.5-0.9,3c0.7,0.9,0.1,1.6-0.6,2.3
		c-2.4,2.5-4.8,5.2-7.2,7.7c-2.6,2.6-4.4,5.7-5.9,9c-2.2,4.9-4.4,9.7-6,14.8c-0.4,1.2-0.5,2.3-0.5,3.5c0,8.9,0,17.9-0.1,26.8
		c-0.8,2.9-1.3,5.9-2,8.9c-2.8,12.5-5.4,25-6.9,37.7c-0.6,5.4-1.2,10.8-1.8,16.1c-0.3,3.2-0.2,6.3-0.8,9.5c-0.5,2.9,0.3,5.9-0.5,8.8
		c-0.5,2.1-0.5,4.3,0.1,6.4c0.6,6.4,0.4,12.9,0.1,19.3c-0.7,2.6-0.8,5.2-0.1,7.8c0.8,4.5,0.3,9,0.8,13.5c0.4,4.4,0.8,8.8,1.2,13.3
		c0.6,6.9,1.8,13.7,1.6,20.6c-0.1,1.6,0.3,3.2,0.6,4.7c0.2,1.4,0.3,2.7,0,4c-0.4,1.9-0.3,3.7,0.2,5.6c0.3,2,0.8,3.9,0.3,5.9
		c-0.5,2.2-1,2.7-3.3,2.4c-3.2-0.5-6.4-1.2-9.6-1.7c-4.2-0.8-8.5-1.1-12.8-1c-1.2,0-2.6,0.2-3.6-0.9c-1.9-10.3-3.5-20.7-4.7-31.1
		c-0.9-7.7-1.6-15.5-2.2-23.3c-0.3-3.6,0.3-7.3-0.8-10.9C132.6,954,132.6,952.1,132.2,950.2z"/>
	<path class="st28" d="M414.5,576.2c6,7,13,12.7,22,15.6c7.9,2.5,16,2.6,24.1,1.5c9.2-1.2,18-3.9,27.1-5.6
		c9.5-1.8,17.5,0.8,23.5,8.3c4.4,5.4,9.9,9.5,15.6,13.3c6.4,4.3,12.5,8.9,16.8,15.5c1.3,2,1,3.2-0.4,4.8c-2.7,3-6.2,3.3-9.7,2.5
		c-7.8-1.9-15.7-2.6-23.7-2.1c-6,0.4-11.8,1.9-17.6,3.2c-11.1,2.6-21.7,0.3-32-3.8c-9.3-3.7-17.6-9.4-26.1-14.6
		c-13.1-8-25.7-16.7-36.2-28.1c-1-1.1-2-2.2-3-3.4c-0.6-0.8-0.1-1.5,0.3-2.2c2.3-3.7,4.7-7.4,7-11.1c0.4-0.7,1-1.3,1.8-1.4
		c0.9,0.3,1.8,0.6,2.4,1.4c0.6,0.4,1.1,0.9,1.5,1.5c1.3,2.2,3.1,3.8,5.7,4.1C413.9,575.7,414.2,576,414.5,576.2z"/>
	<path class="st29" d="M185.5,569c-1-4.5-3.2-8.6-4.8-12.9c-1.1-2.9-2.2-5.8-3.3-8.7c4.3-4.2,9.1-7.5,15.3-8.1c2-0.3,3.9-0.3,5.9,0
		c5.3,0.4,9.5,3.1,13.3,6.5c4.1,3.5,7.2,7.9,10,12.4c2.2,3.4,4.4,6.9,7.9,9.2c4.2,2.8,9.3,2.1,12.4-1.7c0-0.3,0-0.6,0.1-1
		c0.8-4.5,0.4-5.2-3.8-6.3c-0.1-2-1-3.8-1.8-5.6c-0.6-1.7-2.3-1.6-3.7-1.4c-1.7,0.3-3.3,0.4-5,0.3c-2-0.1-3.5-1.1-3.7-3.3
		c-0.3-1.8-0.3-3.6,0-5.4c0.4-4.2,2.8-6.1,6.9-5c2.2,0.6,4.4,1.4,6.6,2.2c5.3,1.7,8.8,0.4,11.5-4.4c0.5-0.8,0.9-1.7,1.8-2.2
		c1.1-0.7,2.2-0.9,3.3,0c1.1,0.9,1.5,2.1,0.7,3.4c-0.5,0.8-0.9,1.7-1.4,2.5c-2,3.2-1.3,5.3,2,7.1c1.5,0.8,3,0.9,4.6,1
		c1.5,2.3,1,4.7,0.6,7.2c-0.6,1,0.1,1.7,0.4,2.4c1.4,3.7,3.1,7.3,3.4,11.4c0.2,3.3-1.3,5.5-3.9,7.1c-1.8,1.1-3.6,2.1-5.6,2.7
		c-5.9,1.9-11.2,5.1-16.3,8.5c-3.2,2.1-6.6,3.9-10.5,4.4c-1.8,0.2-3.4,0-4.9-0.5c-2.5-0.8-4.9-1.9-7.3-2.9c-1.6-0.7-2.3-1.9-1.2-3.5
		c3.5-5.4,2.9-11,0.8-16.7c-1.1-3-2.4-5.9-2.5-9.2c-0.5-1.3,0.1-2.6-0.4-3.9c0-0.1-0.1-0.1-0.2-0.1c-0.1,0-0.2,0.1-0.3,0.2
		c-3.1,7.6-8.9,11.5-16.8,12.8C192.2,568.1,188.9,568.5,185.5,569z"/>
	<path class="st30" d="M267.2,682.4c-0.6-0.5-0.1-0.9,0.3-1.1c5.9-5.2,11.9-10.3,17.8-15.5c4.5-4,9.1-8,13.5-12
		c3.3-3,6.8-5.8,9.6-9.3c4.2,2.3,8.9,2.5,13.5,3.5c4.3,0.9,7,3.7,8.2,7.8c0.5,1.6,1.2,2.4,2.9,2.6c1.6,0.2,2.6-0.4,3.4-1.9
		c3.3-5.8,8.5-7.9,15.1-7.4c3.9,0.3,7.8,0.8,11.7,0.7c4.2-0.1,7.8-1.5,10.7-4.5c2.5-2.6,4-2.5,6.7,0c2.7,2.5,4.8,5.7,8.4,6.9
		c-2.8,3.7-6.8,5.5-11.1,6.5c-13.6,3.3-26.7,8-39.3,14c-9.2,4.4-18.1,9.5-26.5,15.2c-0.5,0.4-1.1,0.7-1.4,1.3c-1.9-3-4.5-4-7.9-3.2
		c-1.3,0.3-2.4,0.4-3-1.3c-0.6-1.8-2.6-1.6-3.9-1.7c-2-0.1-3.2-0.8-4-2.5c-0.2-0.5-0.7-0.9-1.3-1.6c-0.9,2.8-2.2,2.4-4,1.1
		c-3.1-2.3-6.7-0.9-9.6,0.1C273.7,681.3,270.4,681.5,267.2,682.4z"/>
	<path class="st28" d="M380.3,625.6c0-5.1,0.5-10.2,1.9-15.1c0.4-1.5,0.9-2.9,1.6-4.2c2.8-5.8,7.6-7.5,13.6-4.9
		c6.4,2.8,12.2,6.6,17.9,10.6c9,6.3,17.7,13.1,27.4,18.4c5.1,2.7,10.3,5.1,15.9,6.5c0.6,0.1,1.2,0.4,2,0.7c-2.8,3.1-6,5.3-9.5,6.9
		c-7.8,3.5-15.9,4.3-24.3,3.4c-17.4-1.8-32.6-9.1-46.4-19.4C378.9,627.5,380.4,626.6,380.3,625.6z"/>
	<path class="st25" d="M403.9,568.6c-3.1,4.9-6.4,9.6-9.1,14.7c-2.4,0.4-4.6-0.2-6.7-1.3c-2.9-1.5-5.8-3-8.7-4.6
		c-4.1-2.2-6.9-1.8-10.2,1.4c-0.8,0.8-1.7,1.5-2.3,2.5c-3.4,5.3-8.7,6.6-14.4,7.3c-7.1,0.9-14.2-0.3-21.3-0.1
		c-1.7,0.1-3-0.8-3.5-2.3c-2.2-6.9-1.7-13.5,1.9-19.8c0.3-0.6,1-1.1,1.5-1.5c5.4-3.5,10.7-6.9,16.2-10.3c3.4-2.1,7-2.7,11.2-1.8
		c6.7,1.5,13.7,2.1,20.5,3.1C388.8,557.4,397.2,561.2,403.9,568.6z"/>
	<path class="st7" d="M510.4,441.8c9,0.1,16,1.9,23,3.2c7.5,1.4,14.9,2.2,22.1-0.9c1.3-0.5,1.7,0,1.5,1.1c-0.5,3.6-0.9,7.2-3,10.3
		c-3,4.6-7.7,5-12.3,4c-7.7-1.7-15.5-2-23.3-2.2c-9.3-0.3-18.4-1.7-27-5.7c-2.5-1.2-2.6-1.3-0.4-3
		C497.3,443.9,504.3,441.6,510.4,441.8z"/>
	<path class="st9" d="M632.9,454.7c-3.7,0.6-7.3,1.1-11-0.3c-1.5-0.6-3.5-0.2-5.2-0.1c-2.6,0.1-5.3-0.2-7.9-0.5
		c-2.8-0.3-5.1-2.6-5.2-5.4c-0.1-5.9,1.1-11.6,3.7-16.9c1.6-3.1,4.2-3.7,6.6-1.2c3.6,3.7,7.9,3.8,12.4,3.1c2.4-0.4,4.5-0.1,6.4,1.1
		c2.7,1.7,5.2,3.7,7.6,5.8c2.9,2.7,3.8,6,3.1,9.8c-0.5,2.6-1.9,3.9-4.8,4.2C636.7,454.9,634.8,454.2,632.9,454.7z"/>
	<path class="st5" d="M380.3,625.6c0.3,1-0.4,1.9,0,2.9c-0.8-0.1-1.3,0.4-1.9,0.9c-10.4,7.5-21.6,8.4-33.2,3.5
		c-2.6-1.1-4.8-2.9-6.1-5.5c-1.3-2.5-0.7-4.1,1.7-5.6c1.8-1.1,3.5-2.2,5.3-3.2c2.6-1.6,5.4-2.7,8.5-3.2c4.1-0.7,7,1.2,8,5.3
		c0.4,1.7,0.6,3.4,1,5.1c0.3,1.1,0.5,2.3,1.6,3.4c1-1.9,1.8-3.7,2.7-5.4c0.9-1.7,1.9-3.3,3.3-4.6c1.8-1.6,3.4-1.6,4.9,0.2
		c1.5,1.8,2.3,4,3,6.2C379.6,626.7,379.9,626.1,380.3,625.6z"/>
	<path class="st9" d="M660.7,493.9c0-3.1,1.3-4.4,4.5-5.2c1.9-0.4,3.8-0.1,5.7-0.6c0.8-0.2,1.3,0.5,1.9,0.9c5,3.5,10.2,6.4,16.4,7.3
		c2.9,0.4,5.7-0.1,8.5-0.8c1.8-0.5,2.6,0,3.1,1.8c1.1,4.5-2.1,11.1-6.9,13.9c-4.2,2.5-8.2,1.7-12.3-2.2c-1.6-1.6-3.1-3.2-4.8-4.6
		c-3.1-2.6-6.5-4.2-10.4-5C662,498.5,660.7,497,660.7,493.9z"/>
	<path class="st31" d="M650.6,407.2c3.2-2.7,6.4-5.6,10.3-7.3c3.6-1.6,6.7-1,9.4,1.8c3.3,3.6,5.7,7.9,6.6,12.8c0.4,2-1,4.3-3.3,5
		c-9.9,3-19.7,0.3-23.4-11.3C649.8,407.7,650.4,407.5,650.6,407.2z"/>
	<path class="st12" d="M641.4,407.7c-3.1,0-6.2,0.1-9.4,0c-1.6,0-2.7,0.2-2.7,2.1c0,0.5-0.2,0.9-0.4,1.4c-2.1,6.3-7.1,7.6-11.7,2.8
		c-3.1-3.2-6.8-5.3-11.1-6.3c-1.1-0.3-2.3-0.5-2.3-2c0-1.3,0.1-2.5,1.7-3c2.2-0.7,2.7-2.6,3-4.5c0.3-1.9,0.4-3.8,0.5-5.7
		c0.2-3.1,1.3-4.8,3.6-5.3c2.3-0.5,5.2,1.3,6.3,3.8c1,2.3,1.2,4.8,1.7,7.2c1,5.5,3.3,7.9,9,9.1c0.6-0.7,1.5-0.9,2.4-0.9
		c2.2-0.1,4.5-0.1,6.7,0C639.9,406.4,641.1,406.3,641.4,407.7z"/>
	<path class="st31" d="M641.4,407.7c-3-0.8-6-0.2-9-0.4c-0.9-0.1-1.7,0-2.6,0c-0.6-1.9-2-3.3-3-4.9c-1.7-2.6-1.5-4.3,0.5-6.7
		c3.9-4.8,8.9-5.5,14.5-4.1c2.2,0.5,4.5,1.2,6.7,1.9c2.8,0.9,3.6,2.5,2.8,5.3c-0.6,2.1-1.6,4.2-1.9,6.4c-0.1,1-0.3,1.9,1.1,2.1
		c-0.2,0.3-0.3,0.7-0.5,1C647.3,407.2,644.3,408.1,641.4,407.7z"/>
	<path class="st9" d="M736,533.9c-0.1,4.8-0.9,9.5-2.4,14c-1.6,4.7-7.4,5.8-10.6,2.2c-1.1-1.3-1.7-2.8-1.3-4.4
		c0.9-4.4,1.7-8.7,2.9-13c0.8-3.2,2.6-5.6,6.2-6.2c2.9-0.5,4.9,0.9,5.2,3.8C736.1,531.5,736,532.7,736,533.9z"/>
	<path class="st9" d="M696.2,538.4c-1.9-0.1-3.7-1.1-5.5-2.1c-3.8-2.1-7.2-4.7-10.1-8c-1.6-1.8-2.3-3.8-1.7-6.1
		c0.6-2.5,3.6-3.5,5.4-1.7c4.5,4.4,10.1,5.9,16.2,5.9c2.5,0,3.3,1.5,3.2,3.3c-0.3,3.5-2.1,6.3-4.8,8.5
		C698.1,538.5,697.3,538.3,696.2,538.4z"/>
	<path class="st31" d="M678.9,470.8c0-2.7,2.9-5.5,5.1-4.9c5.3,1.6,10.4,3.7,13.6,8.7c0.7,1.1,0.9,2.1,0.5,3.3
		c-0.8,2.7-1.5,5.4-3,7.8c-1.4,2.3-2.6,2.6-4.6,0.9c-5-4-8.6-9.2-11.3-14.9C679,471.4,679,471,678.9,470.8z"/>
	<path class="st9" d="M652,437.6c0-0.1,0-0.8,0.1-1.5c1.2-5.6,4.2-7.1,9.4-4.6c1.4,0.7,2.8,1.6,4.4,1.9c2,0.4,1.7,1.1,0.9,2.4
		c-1.1,2.1-2,4.4-3.1,6.5c-1.8,3.4-3.9,4.5-6.7,3.8c-2.7-0.7-4.8-3.4-5-6.6C652,439,652,438.6,652,437.6z"/>
	<path class="st31" d="M557.2,408.2c4.5,0,7.7,2.5,8.4,6.9c0.6,3.8-2.1,6.7-5.8,6.1c-1.7-0.3-3.4-0.8-5-1.6
		c-3.2-1.4-4.7-4.6-3.9-7.9C551.3,409.5,553.6,408.2,557.2,408.2z"/>
	<path class="st9" d="M297.3,403.9c-2.2-2.2-5.1-3.8-5.7-7.2c-0.4-0.8-0.4-1.6,0-2.4c0.5-2.6,1.8-3.1,3.9-1.6c1.3,1,2.1,2.4,2.8,3.8
		c0.8,1.6,1.6,3.3,2.4,4.9C299.5,402.3,298.4,403.1,297.3,403.9z"/>
	<path class="st9" d="M304,417.8c-1.8-1.8-0.6-4.1-0.9-6.1c0.8-0.1,1.6-0.1,2.4-0.3c3.2-0.6,4.5,0.5,4.4,3.7c0,1.9-0.8,2.8-2.7,2.8
		C306.1,417.8,305,417.8,304,417.8z"/>
	<path class="st32" d="M238.4,558.5c1.7-0.9,3.2-0.6,4.3,1.1c1.2,1.9,0.9,4.7-0.5,6.1C238.1,564.5,237.3,563,238.4,558.5z"/>
	<path class="st33" d="M260.9,554.7c-1.2-2.3-0.3-4.8-0.6-7.2c3.6-0.2,4.9,0.9,4.8,3.8C265,553.5,263.8,554.5,260.9,554.7z"/>
	<path class="st34" d="M414.5,576.2c-4.3,0-6.3-1.4-8.2-6.2C409.8,571,413.1,572.4,414.5,576.2z"/>
	<path class="st35" d="M493.6,522.6c-4.3,0.7-8.6,0.7-12.9,0C485,522.6,489.3,522.6,493.6,522.6z"/>
	<path class="st36" d="M712,494.1c0,2.8,0,5.5,0,8.3C711.3,499.6,711.3,496.8,712,494.1z"/>
	<path class="st37" d="M632.9,454.7c1.9-0.8,3.8-0.2,5.7-0.4C636.7,455.1,634.8,454.7,632.9,454.7z"/>
	<path class="st38" d="M198.5,539.2c-2,0-3.9,0-5.9,0C194.6,538.5,196.6,538.5,198.5,539.2z"/>
	<path class="st39" d="M633.3,680.5c-1.9,0.6-3.8,0.6-5.7,0C629.5,680.5,631.4,680.5,633.3,680.5z"/>
	<path class="st40" d="M212.4,554.8c0.2-0.3,0.5-1.4,0.8-0.2c0.3,1.3,0,2.6,0,4C212.3,557.5,213.4,555.9,212.4,554.8z"/>
	<path class="st41" d="M224.3,543.1c0,1.8,0,3.6,0,5.4C223.6,546.7,223.6,544.9,224.3,543.1z"/>
	<path class="st42" d="M345.8,357.4c0-1.4,0-2.8,0-4.2c0.2,0,0.3,0,0.5,0c0,1.2,0,2.5,0,3.7C346.1,357.1,346,357.2,345.8,357.4z"/>
	<path class="st43" d="M720.6,334.7c0,1.5,0,2.9,0,4.4C719.9,337.7,719.9,336.2,720.6,334.7z"/>
	<path class="st44" d="M421.1,528.3c-1.3,0.6-2.5,0.6-3.8,0C418.6,528.3,419.9,528.3,421.1,528.3z"/>
	<path class="st45" d="M339.6,368.9c0-1.1,0-2.3,0-3.4C340.2,366.6,340.2,367.8,339.6,368.9z"/>
	<path class="st16" d="M353,351.7c0-1,0-2,0-3C353.7,349.7,353.6,350.7,353,351.7z"/>
	<path class="st46" d="M540.2,1051.4c-6.5,1-13,2.1-19.5,3.1c-4.7,0.7-9.4,0.6-14.1,0.1c-2.7-0.2-5.4-0.2-8.1-0.3
		c-11.7-1.1-23.3-3.5-35.1-4.7c-9.6-1-19.2-2.6-28.5-5.4c-8.1-2.4-15.7-5.8-22.7-10.5c-9.1-6.2-18.7-11.4-29.4-14.4
		c-4.9-1.4-9.8-2.1-14.9-1.9c-1.3,0-2.8,0.3-3.9-0.8c-1.1-5.8-1.3-11.7-1.4-17.6c-0.2-10.6-0.3-21.2,1.3-31.8
		c0.4-2.9,1.8-5.4,2.9-8.1c5.4-13.3,11.7-26.2,18.3-39c1.7-3.2,3.4-6.4,6.2-8.8c0.9-0.8,0.7-1.7,0.6-2.6
		c-0.7-14.7-1.7-29.3-1.6-44.1c0.1-5.2,0-10.4,1.4-15.6c0.8-2.9-0.5-6.5-0.9-9.7c-1.3-10.9-3.1-21.8-5.8-32.5
		c-3-11.6-9.1-21.7-17.4-30.4c-0.6-0.6-1.3-0.8-2.1-1.2c-5.4-2.3-10.7-4.6-16.1-6.9c3.7-2.8,8.1-4.1,12.3-5.8
		c11-4.3,22.4-7.5,34.1-9.3c5.4-0.9,10.9-1.5,16.4-1.6c3.6-0.1,7.2,0,10.7,0c14.1-0.1,27.8,2.2,41.3,6.1c22,6.3,41.8,16.9,60,30.8
		c9,6.9,17.5,14.5,25.2,22.8c12.6,13.4,23.5,28.1,32.7,44.2c10.8,18.8,19.5,38.5,26.8,58.8c1.9,5.3,2.5,11,3.6,16.6
		c2.2,11,4.2,22.1,5.7,33.2c1,8.1,2.2,16.1,2.1,24.3c0.6,1.7-0.1,3.6,0.4,5.3c0,5.3,0,10.6,0,15.9c-0.6,1.9,0.2,3.9-0.4,5.8
		c0.1,3.3-0.3,6.5-0.9,9.7c-1.2,6-4.8,9.7-10.5,11.6c-7.8,2.5-15.9,3.8-24,5.5c-14.8,3.2-29.6,6.2-44.4,9.3
		C540.4,1051.2,540.3,1051.3,540.2,1051.4z"/>
	<path class="st3" d="M0.8,1199.3c0-9.5-0.1-19-0.1-28.4c0-10.4,0-20.7,0.1-31.1c0.6-0.7,1.5-0.9,2.4-0.9c0.8,0,1.6,0,2.4,0
		c60.4,0,120.9,0,181.3,0c1.6,0,3.4-0.4,4.8,0.9c0.1,6.1-0.6,12.1-1,18.1c-0.9,12.3-1.7,24.5-1.2,36.8c0.2,5.8-1.4,11.1-2.3,16.9
		c-3.7-2.9-5.8-6.6-6.4-10.9c-0.6-3.6-0.7-7.3-1.1-10.9c-1-1-0.7-2.4-0.7-3.6c-0.1-2.6-0.4-5.1-1.6-7.4c-0.9-1.7-2-1.8-2.6,0
		c-1.3,3.3-3.7,5-6.8,6.3c-2.2,0.9-3,3.2-4.4,4.9c-1.1,4.3-1.3,8.7-2,13.1c-0.5,3.1-1,6.2-1.5,9.3c-1.5,0.4-2.3-0.8-3.3-1.5
		c-0.7-0.4-1.3-1-1.9-1.5c-3.3-2.6-4.4-2.6-7.7-0.2c-0.5,0.3-0.9,0.6-1.5,0.7c-1.8-1.4-2.9-3.4-4.3-5.1c-2.6-3.2-5.3-3.4-8.4-0.6
		c-3,2.8-4.5,2.6-7.2-0.6c-1.7-2.1-3.2-4.4-5.6-5.9c-1.3-0.9-2.2-0.9-3.2,0.6c-1.4,2.2-3.1,4.1-5,5.8c-3.5,3-6.9,3-10.2-0.2
		c-2.2-2.2-3.8-4.9-5.5-7.5c-1.6-2.4-3-4.9-5.1-6.9c-0.8-0.8-1.4-1.4-1.9,0.3c-2.7,8.2-8.2,14.5-13.9,20.7c-1.1,1.2-2.4,2.2-3.8,2.9
		c-2.3,1.2-3.6,0.8-4.8-1.5c-1.8-3.8-5-4.8-8.8-4.1c-2.3,0.4-4.4,0-6.6-0.6c-0.9-0.7-0.7-1.7-0.8-2.6c-0.3-5-1.1-8.1-3-12.1
		c0.8,6.4,1.2,13.3-3.2,19.4c-0.5,0.7-0.8,1.8-2.1,1.6c-0.6-2.3-2.1-3.8-4.4-4.3c-3.3-0.8-5.9-2.1-7.6-5.5c-1.4-3-2.7-3.1-5.4-2.1
		c-2.2,0.8-4.4-0.1-6.6-0.3c-5.3-0.5-10.6-1.5-16-1.2C1.9,1199.8,1.3,1199.8,0.8,1199.3z"/>
	<path class="st47" d="M139.9,1021.2c8.4-0.5,16.6,0.9,24.8,2.5c3.3,0.6,4.5-0.6,3.8-4c-0.2-1.1-0.3-2.2-0.3-3.3
		c-0.7-1.9,0.2-3.9-0.5-5.7c1.1-1.9-0.1-3.7-0.2-5.6c-0.1-4-0.2-8-0.5-12c-0.1-2.1-0.6-4.1-0.8-6.2c-0.4-4.4-1.1-8.8-1.3-13.2
		c-0.1-2.5-0.1-5.2-0.6-7.4c-0.8-3.8,0.3-7.6-0.6-11.3c-0.4-2.5-0.4-5.1,0-7.6c0-5.6,0-11.1,0-16.7c0-1,0.1-2.1-0.5-3
		c0.7-2.2-0.2-4.5,0.5-6.7c0.8-3.7,0.1-7.5,0.5-11.3c0.3-2.7,0.6-5.5,0.6-8.4c0-2.2,0.3-4.6,0.7-7c0.6-2.9,0.9-5.8,1.1-8.8
		c0.3-3.8,1.1-7.5,1.7-11.3c0.8-4.8,1.7-9.7,2.7-14.4c1.3-6.2,2.8-12.3,4.2-18.4c0.1-0.5,0.4-0.8,0.9-1.1c0,11.2,0,22.4,0.1,33.6
		c0,5.1,0.5,10.2,1.2,15.2c0.6,4.5,0.7,9.2-1.5,13.6c-0.8,1.6-0.4,3.3,0,4.9c1.9,8.2,5.6,15.8,9.2,23.4c2.5,5.2,5.2,10.3,7.8,15.4
		c-0.3,1.4,0.7,2.6,0.9,3.9c0.4,4.5,0.1,9.1,0.6,13.6c0.4,4.2,0.7,8.4,1.1,12.6c0.7,7.3,1.9,14.5,2.4,21.8c0,0.3,0.2,0.6,0.4,0.9
		c0.2,21.8-1,43.6-3.4,65.3c-3.4,1.7-7.1,1.8-10.8,2.1c-2.4-0.7-4.3-2.3-6.7-3.1c-2.7-0.9-5.4-1.4-8.1-1.8c-1.3-0.4-2.7-0.4-4-0.2
		c-5.5,0-10.9,0.3-16.4-0.2c-3-0.9-6-0.5-9-0.5c-3.1,0-6.2-0.2-9.3,0.2c-6.1,0-12.1,0.3-18.2-0.2c-3-0.9-6-0.5-9-0.5
		c-3.1,0-6.2-0.2-9.3,0.2c-6.5,0-13.1,0.3-19.6-0.2c-2.1-0.7-4.2-0.5-6.4-0.5c-5,0-10-0.1-15,0.1c-4,0.2-7.9,0.2-11.9,0
		c-3.1-0.1-5.9-1.1-8.4-2.9c-0.9-0.6-1.9-1.3-1.6-2.7c8.8-2.6,17.6-5.1,26.4-7.7c9-2.6,17.9-5.2,26.9-7.7c1.8-0.5,2.4-2.7,4.2-2.9
		c3.2,0.6,6.3-0.4,9.3-1c14.2-2.7,27.8-7.5,41.1-13.3C139.6,1021.6,139.7,1021.4,139.9,1021.2z"/>
	<path class="st5" d="M191.7,1139.8c-63.6,0-127.3,0-190.9,0c0-13.1,0-26.2,0-39.3c0.9-0.9,2.1-0.7,3.2-0.7c7.1,0,14.2,0,21.3,0
		c55.6,0,111.2,0,166.8,0c0.3,0,0.6,0.1,0.9,0.2c-0.3,8.3-0.1,16.7-0.7,25C192,1129.9,191.9,1134.8,191.7,1139.8z"/>
	<path class="st26" d="M193,1099.9c-0.1,0-0.2,0-0.4,0c-0.8,0.4-1.7,0.2-2.6,0.2c-62.2,0-124.5,0-186.7,0c-0.9,0-1.8,0.2-2.6-0.2
		c0-9.6,0-19.2,0-28.8c0.7-0.7,1.5-0.8,2.4-0.7c14.9,0.8,29.5,3.2,43.5,8.7c17.1,6.7,35,8.8,53.2,7.8c17.8-1,35.1-5,52.1-10.5
		c9.1-2.9,18.2-6,27.2-9.5c1.6-0.6,3.1-1.3,4.8-1.1c3.7-0.2,7.2-1.5,11-1.5c-0.3,3.9-0.3,7.8-1,11.6c-1.3,7.3-0.6,14.7-0.9,22
		C193.1,1098.7,193.1,1099.3,193,1099.9z"/>
	<path class="st48" d="M364.1,1016.4c15.8-1.2,29.6,4.7,42.6,12.7c8.3,5.2,16.5,10.5,26.1,13.5c8.5,2.6,17.1,4.3,25.9,5.5
		c13.1,1.7,26.2,3,39.2,5.8c0.2,0,0.4,0.2,0.6,0.3c-1,0-1.7,0.4-2.3,1.1c-3.6,3.8-8.2,5.1-13.2,5.2c-22.2,0.1-44.4,0-66.6,0
		c-0.8-0.4-1.7-0.2-2.6-0.2c-13.1,0-26.3,0-39.4,0c-0.9,0-1.8,0.2-2.6-0.2c-1.2-7.7-2-15.5-3.3-23.2c-1.1-6.4-3.5-12.6-4.2-19.1
		C364.1,1017.3,364.1,1016.9,364.1,1016.4z"/>
	<path class="st3" d="M304.5,1139.8c3.8,12.1,6.9,24.4,9.2,36.9c0.9,4.8,1.3,9.6,1.8,14.5c0.2,1.5-0.2,2.8-1.2,4
		c-3.9,4.3-7.2,9-8.5,14.8c-0.2,0.9-0.7,1.8-1.2,2.6c-1.8,2.5-5.3,2.5-7.1-0.1c-1.3-1.9-1.9-4.2-2.5-6.4c-2.4-8.5-11.3-14.4-20-13.3
		c-2.6,0.3-4.8,1.7-6.4,3.8c-0.6,0.7-1,1.6-2.1,2.3c-0.2-2.6,0.5-4.9,0.9-7.3c2.6-16.5,4.9-33.1,7.1-49.7c0.1-0.6,0.3-1.2,0.4-1.9
		c0.9-0.9,2.2-1,3.4-1c7.7,0,15.3,0,23,0C302.3,1138.8,303.5,1138.8,304.5,1139.8z"/>
	<path class="st26" d="M373.9,1083.1c0.7,0.2,1.5,0.3,2.2,0.5c2.2-0.3,4.4-0.3,6.7,0c7.5,0.3,15.1,0.6,22.6,1
		c9.3,0.6,18.5,1.2,27.8,2c9.8,0.8,19.6,1.8,29.4,2.9c10.4,1.2,20.8,2.6,31.2,3.9c0.3,0,0.6,0.2,0.9,0.4c-1.7,5.2-5.7,6.7-10.8,6.8
		c-6,0.1-12,0.6-18,0.9c-1.9,0.6-3.9-0.2-5.7,0.5c-2.4,0-4.8,0-7.2,0c-3.2,0.5-6.4,0.1-9.7,0.2c-0.9,0-1.9-0.2-2.8,0.2
		c-7.3,0-14.6,0-21.9,0c-1,0-2.1,0.1-3-0.5c-5,0.4-9.9,0.4-14.9,0c-3.7,0-7.4,0-11,0c-2.2-0.5-4.4-0.1-6.6-0.2
		c-0.9-0.1-1.7,0.2-2.6-0.2c-0.6,0-1.3,0-1.9,0C376.9,1095.3,375.4,1089.2,373.9,1083.1z"/>
	<path class="st5" d="M304.5,1139.8c-9.9,0-19.8,0-29.7,0c1.9-8.7,1.3-17.4,1.4-26.2c0-4.4-0.1-8.8,0.6-13.2
		c1.5-1.4,3.4-0.8,5.2-0.9c3.9,0.4,7.8,0.1,11.7,0.1c0.3,0,0.6,0.1,0.8,0.3c1.6,5.5,2.7,11,3.6,16.6c1.2,7.2,4.1,13.9,5.9,20.9
		C304.1,1138.2,304.3,1139,304.5,1139.8z"/>
	<path class="st31" d="M478.8,1193.5c2.8-2.7,4.7-6.1,7.2-9.1c0.3-0.4,0.7-0.6,1-1c4,5.9,6.7,12.3,8.5,19.1c0.8,2.8,1.1,5.8,1.8,8.7
		c0.3,1.6-0.2,1.7-1.5,1.2c-2.5-1.1-4.3-2.9-6-5c-2-2.4-3.7-5-6.8-6.3c-1.4-0.6-2.1-0.6-1.8,1.2c0.6,5,1,10,1.7,14.9
		c0.2,1.6-0.4,2-1.7,2.1c-1.5,0.2-2.8-0.3-4.1-1.1c-1.2-0.7-2.4-1.6-3.7-2.3c-1.9-1.1-3.8-1.8-5.5,0.6c1.2-7.4,1.3-15.2,9.2-19.3
		C478.8,1196.6,478.3,1194.8,478.8,1193.5z"/>
	<path class="st5" d="M0.8,1199.3c5.7-1.3,11.4,0.2,17,0.7c2.5,0.3,5.1,0.1,7.4,1.2c-3.9,9.3-9.9,16.2-20.2,18.4
		c-1.4,0.3-2.8,0.2-4.3,0.3C0.8,1213.1,0.8,1206.2,0.8,1199.3z"/>
	<path class="st8" d="M163.5,1189.8c0-2.5,1.5-4.3,3.5-5.2c3.3-1.5,6.1-3.2,7.3-7c0.7-2,2.4-1.9,3.5,0c2.1,3.8,2.1,7.9,1.9,12.1
		c-3.4,2.4-6.4,5-7.3,9.4c-0.6,2.9,0.6,5.3,1.4,7.9c0.2,0.7,0.6,1.4,1.2,2.8c-2.9-1.6-4.7-3.4-6.1-5.7c-1.6-2.6-2.3-5.6-3.1-8.5
		C165.3,1193.5,164.8,1191.5,163.5,1189.8z"/>
	<path class="st26" d="M282,1100.4c-1.7,0-3.5,0-5.2,0c0.3-5.7,0.9-11.4,2.9-16.8c3-1.4,6-1.5,9.1,0c2.8,5.1,4.3,10.7,5.7,16.3
		c-0.1,0-0.3,0-0.4,0c-3.1,0.5-6.1,0.1-9.2,0.2C283.8,1100.2,282.8,1099.9,282,1100.4z"/>
	<path class="st49" d="M198.4,999.1c-1.8-1-0.8-2.9-1.1-4.3c-0.9-3.8-1-7.9-1.6-11.8c-0.3-2-0.3-4-0.7-6c-0.6-2.5-0.4-5.1-0.6-7.7
		c0-0.3,0.2-0.7,0.1-0.9c-1.6-3.1-0.8-6.6-1-9.8c-0.3-4.1-0.7-8.2-0.3-12.3c1.7,3.2,3.4,6.3,5.1,9.5c0.4,0.8,0.6,1.6,0.6,2.5
		C198.7,971.9,198.6,985.5,198.4,999.1z"/>
	<path class="st8" d="M515.3,1200.3c1.2-2.3,2.2-4.7,3.7-6.9c1.6-2.3,3.6-3.5,6.4-3.2c0.8,0.1,1.6,0.1,2.3-0.5
		c1.7,1.1,3.9,1.5,4.5,3.9c-4.4,4.2-5.2,9.8-5.8,15.8C522.4,1206.1,518.9,1203.2,515.3,1200.3z"/>
	<path class="st8" d="M42.5,1213.2c2.3-3.6,5.3-7,4.8-11.8c-0.2-1.7-0.2-3.5,0.4-5.2c0.4-1.2-0.2-2.3-0.8-3.4
		c-0.6-1.1-0.9-2.2,0.4-3.4c3.3,5.5,4.6,11.3,4.3,17.6c-1.1,5.5-2.1,11-3.3,17C45.8,1220.2,44.2,1216.7,42.5,1213.2z"/>
	<path class="st5" d="M698.6,1202.6c0.3-1.2,1.4-1.3,2.2-1.4c3-0.3,5.9-0.4,8.9-0.5c0,3.2,0.8,6.3-0.1,9.5c-0.5,1.8-0.6,4.3-2.6,4.7
		c-1.8,0.4-3.1-1.7-4.2-3.1C700.8,1209.1,699.5,1205.9,698.6,1202.6z"/>
	<path class="st8" d="M145.6,1209.8c3.6-4.3,5.7-4.5,9.9-0.8c1.4,1.2,2.9,2.2,4.4,3.3c-0.6,1.6-1.4,3.2-2.7,4.5
		c-2.3,2.3-4.2,2.2-6.2-0.3C149.3,1214.2,147.7,1211.8,145.6,1209.8z"/>
	<path class="st50" d="M288.7,1083.6c-3,0-6,0-9.1,0c0.8-2.2,1.4-5.1,4.2-5.2c2.8-0.2,3.6,2.8,4.8,4.7
		C288.7,1083.2,288.7,1083.4,288.7,1083.6z"/>
	<path class="st11" d="M371.7,1060.1c14,0,27.9,0,41.9,0c0.9,0,1.9-0.3,2.7,0.5c-14.9,0-29.7,0-44.6,0
		C371.8,1060.4,371.8,1060.2,371.7,1060.1z"/>
	<path class="st51" d="M532.1,1193.5c-1.2-1.7-3.9-1.6-4.5-3.9c0.4-1.2,0.8-2.3,2.3-2.2c1.4,0.2,1.8,1.4,2.1,2.5
		c0.2,1.1,0.4,2.3,0.6,3.5C532.4,1193.5,532.3,1193.5,532.1,1193.5z"/>
	<path class="st52" d="M126.5,1215.6c0,1.5-0.1,2.4-1.4,2.4c-1.6-0.1-1.8-1.3-1.9-2.5c-0.1-1.1,0.5-2.1,1.5-2
		C125.9,1213.5,126.4,1214.7,126.5,1215.6z"/>
	<path class="st53" d="M609.4,910.7c0-4.6,0-9.1,0-13.7c0.1,0,0.1,0,0.2,0c0,4.6,0,9.1,0,13.7C609.6,910.7,609.5,910.7,609.4,910.7z
		"/>
	<path class="st54" d="M649.2,922.8c1,1.8,0.3,3.8,0.5,5.7C648.7,926.7,649.4,924.7,649.2,922.8z"/>
	<path class="st55" d="M620.4,1015c0.2-1.9-0.5-3.9,0.4-5.8C620.7,1011.1,621.3,1013.1,620.4,1015z"/>
	<path class="st56" d="M649.6,950.2c-0.2,1.9,0.5,3.9-0.5,5.7C649.4,954,648.7,952,649.6,950.2z"/>
	<path class="st57" d="M620.8,993.3c-0.9-1.7-0.3-3.5-0.4-5.3C621.3,989.7,620.7,991.6,620.8,993.3z"/>
	<path class="st58" d="M411.7,698.2c1,0,2,0,3,0c0,0.1,0,0.2,0,0.2c-1,0-2,0-3,0C411.8,698.4,411.7,698.3,411.7,698.2z"/>
	<path class="st58" d="M433.5,698.6c-1,0-2,0-3,0c0-0.1,0-0.2,0-0.2c1,0,2,0,3,0C433.4,698.4,433.5,698.5,433.5,698.6z"/>
	<path class="st59" d="M706.8,955.4c0.3-3-0.5-6.1,0.5-9.1C707,949.4,707.8,952.4,706.8,955.4z"/>
	<path class="st60" d="M707.2,930.5c-1-3-0.2-6.1-0.5-9.1C707.8,924.4,707,927.4,707.2,930.5z"/>
	<path class="st61" d="M400.5,1101.8c5,0,9.9,0,14.9,0c-2.7,1-5.6,0.4-8.4,0.4C404.9,1102.3,402.6,1102.9,400.5,1101.8z"/>
	<path class="st61" d="M440.4,1102.3c1.9-1,4-0.3,6-0.4c2.1-0.1,4.3,0,6.4,0c-2.1,1-4.3,0.3-6.5,0.4
		C444.3,1102.4,442.3,1102.3,440.4,1102.3z"/>
	<path class="st62" d="M709.6,1092.7c3.1,0,6.2,0,9.3,0c0.8,0,1.6-0.2,2.2,0.5c-3.1,0-6.2,0-9.3,0
		C711.1,1093.2,710.3,1093.4,709.6,1092.7z"/>
	<path class="st63" d="M380.4,1101.4c3,0.2,6.1-0.6,9.1,0.5C386.5,1101.6,383.4,1102.4,380.4,1101.4z"/>
	<path class="st64" d="M616,1087.4c2.1-0.8,4.1-0.8,6.2,0C620.2,1087.4,618.1,1087.4,616,1087.4z"/>
	<path class="st61" d="M460.1,1101.8c1.8-1,3.8-0.3,5.7-0.5C463.9,1102.3,462,1101.6,460.1,1101.8z"/>
	<path class="st65" d="M697.1,1092.2c1.8,0.2,3.6-0.5,5.3,0.5C700.7,1092.5,698.8,1093.2,697.1,1092.2z"/>
	<path class="st66" d="M382.7,1083.6c-2.2,0-4.4,0-6.7,0C378.3,1082.9,380.5,1082.9,382.7,1083.6z"/>
	<path class="st6" d="M184.1,1065.9c-9.5,4.1-19.2,7.3-29,10.5c-13.3,4.5-26.9,7.9-40.8,10c-10.1,1.6-20.3,2-30.5,1.4
		c-14.5-0.9-28.5-4.2-42-9.6c-7.7-3.1-15.7-4.6-23.9-5.7c-5.7-0.8-11.4-1-17.1-1.4c0-5.8,0-11.5,0-17.3c0.7-0.7,1.6-0.8,2.4-0.7
		c2.4,0.4,4.7,0.3,7.1,0.7c3,0,6.1,0,9.1,0.1c3,0.6,6.1-0.2,9.1,0.4c1,0,1.9,0,2.9,0c2.6,3.3,6.2,4.6,10.2,4.8c3.8,0.2,7.6,0,11.4,0
		c4.7,0.5,9.3,0.1,14,0.2c2.5,0.1,5.1-0.3,7.6,0.2c6.6,0,13.1,0,19.7,0c3.8,0.5,7.6,0.1,11.4,0.2c2.3,0.1,4.6-0.3,6.9,0.2
		c6.1,0,12.2,0,18.2,0c3.8,0.5,7.6,0.1,11.4,0.2c2.3,0.1,4.6-0.3,6.9,0.2c5.6,0,11.2,0,16.8,0c1.2,0.6,2.6-0.2,3.8,0.5
		C174.9,1061.2,179.6,1063.1,184.1,1065.9z"/>
	<path class="st7" d="M3.6,1013c0,1.1,0,2.3,0,3.4c0.6,1.2-0.2,2.6,0.5,3.8c0,1.3,0,2.6,0,3.9c0.6,1.4-0.2,2.9,0.5,4.3
		c0,1.5,0,2.9,0,4.4c0.4,1.7,0.4,3.5,0,5.2c1,2.4,0.3,4.8,0.5,7.2c0.5,2.4,0.1,4.9,0.2,7.3c0,0.8-0.5,1.1-1.2,1.1
		c-1.1-0.1-2.2,0.3-3.3-0.3c0-12.5-0.1-24.9-0.1-37.4c0-12,0.1-24,0.1-36c0.7,1.1,0.2,2.2,0.4,3.4c0.6,1-0.2,2.3,0.5,3.3
		c0,1.1,0,2.2,0,3.4c0.6,1-0.2,2.3,0.5,3.3c-0.2,5.5,0.7,10.9,1,16.4C3.7,1010.7,2.9,1012,3.6,1013z"/>
	<path class="st67" d="M0.8,1099.9c62.8,0,125.7,0,188.5,0c1.1,0,2.2,0,3.4,0c-1,0.8-2.2,0.4-3.2,0.4c-62.9,0-125.8,0-188.7,0
		C0.8,1100.2,0.8,1100.1,0.8,1099.9z"/>
	<path class="st68" d="M0.8,1053.3c4.9-0.1,4.2,0.6,4.2-4.3c0-1.3,0-2.5,0-3.8c1,1.7,0.5,3.5,0.4,5.3c-0.1,2.3,0.6,3.2,2.9,2.9
		c0.7-0.1,1.4-0.1,2,0.4c-3.2,0-6.4,0-9.5,0C0.8,1053.7,0.8,1053.5,0.8,1053.3z"/>
	<path class="st23" d="M291.6,394.3c0,0.8,0,1.6,0,2.4C290.9,395.9,290.9,395.1,291.6,394.3z"/>
	<path class="st69" d="M79.9,945.4c1,2.4,0.3,5,0.5,7.5c0.1,1.2,0,2.4,0,3.6c-1-2.4-0.3-5-0.5-7.5C79.8,947.7,79.9,946.6,79.9,945.4
		z"/>
	<path class="st70" d="M79.9,924.7c0.8,3.5,0.8,7,0,10.5C79.9,931.8,79.9,928.2,79.9,924.7z"/>
	<path class="st71" d="M28.5,1054.3c-3-0.2-6.1,0.5-9.1-0.4C22.4,1054.1,25.5,1053.3,28.5,1054.3z"/>
	<path class="st72" d="M4.5,1038c0-1.7,0-3.5,0-5.2C5.3,1034.5,5.3,1036.2,4.5,1038z"/>
	<path class="st73" d="M80.4,962.2c1,1.5,0.3,3.2,0.5,4.8C79.9,965.4,80.6,963.8,80.4,962.2z"/>
	<path class="st74" d="M4.5,1028.4c-0.9-1.3-0.3-2.9-0.5-4.3C5,1025.4,4.3,1027,4.5,1028.4z"/>
	<path class="st75" d="M80.4,914.2c0.7,1.4,0.7,2.9,0,4.3C80.4,917,80.4,915.6,80.4,914.2z"/>
	<path class="st74" d="M4,1020.2c-0.9-1.2-0.3-2.5-0.5-3.8C4.5,1017.6,3.9,1019,4,1020.2z"/>
	<path class="st76" d="M1.6,986.6c-0.9-1-0.3-2.2-0.5-3.3C2,984.3,1.5,985.5,1.6,986.6z"/>
	<path class="st76" d="M2.1,993.3c-0.9-1-0.3-2.2-0.5-3.3C2.5,991,2,992.2,2.1,993.3z"/>
	<path class="st77" d="M3.6,1013c-0.9-1-0.3-2.2-0.5-3.3C4,1010.7,3.4,1011.9,3.6,1013z"/>
	<path class="st78" d="M683.4,933.2c0-1.8,0-3.7,0-5.5c0.1,0,0.2,0,0.2,0c0,1.8,0,3.7,0,5.5C683.5,933.2,683.4,933.2,683.4,933.2z"
		/>
	<path class="st79" d="M683.6,967.3c-0.3-1.3-0.5-2.5,0-4.1C683.6,964.9,683.6,966.1,683.6,967.3z"/>
	<path class="st60" d="M132.2,950.2c0.7,1.9,0.7,3.8,0,5.7C132.2,954,132.2,952.1,132.2,950.2z"/>
	<path class="st60" d="M132.2,915.1c0.7,1.9,0.7,3.8,0,5.7C132.2,918.9,132.2,917,132.2,915.1z"/>
	<path class="st79" d="M163.9,947.3c0,2.5,0,5.1,0,7.6C163.1,952.4,163.1,949.8,163.9,947.3z"/>
	<path class="st79" d="M163.9,920.9c-0.2,2.2,0.5,4.5-0.5,6.7C163.6,925.4,162.9,923.1,163.9,920.9z"/>
	<path class="st79" d="M167.7,1010.6c1,1.8,0.2,3.8,0.5,5.7C167.2,1014.5,168,1012.6,167.7,1010.6z"/>
	<path class="st80" d="M74.6,1059.6c-6.4,0-12.7,0-19.1,0c-0.8,0-1.8,0.3-2.5-0.5c6.4,0,12.7,0,19.1,0
		C73,1059.1,73.9,1058.9,74.6,1059.6z"/>
	<path class="st80" d="M149,1060.6c-5.2,0-10.5,0-15.7,0c-0.8,0-1.8,0.3-2.5-0.5c5.2,0,10.5,0,15.7,0
		C147.3,1060.1,148.3,1059.8,149,1060.6z"/>
	<path class="st80" d="M112.5,1060.1c-5.2,0-10.5,0-15.7,0c-0.8,0-1.8,0.3-2.5-0.5c5.2,0,10.5,0,15.7,0
		C110.9,1059.6,111.8,1059.3,112.5,1060.1z"/>
	<path class="st81" d="M169.6,1061c-1.3-0.2-2.6,0.4-3.8-0.5C167.1,1060.7,168.4,1060.1,169.6,1061z"/>
	<path class="st82" d="M282,1100.4c2.1-1,4.3-0.3,6.5-0.5c1.8-0.1,3.6,0,5.5,0c-2.3,1-4.7,0.3-7,0.4
		C285.3,1100.5,283.6,1100.4,282,1100.4z"/>
</g>
</svg>
