<?xml version="1.0" encoding="utf-8"?>
<!-- Generator: Adobe Illustrator 19.0.0, SVG Export Plug-In . SVG Version: 6.00 Build 0)  -->
<svg version="1.1" id="Layer_1" xmlns="http://www.w3.org/2000/svg" xmlns:xlink="http://www.w3.org/1999/xlink" x="0px" y="0px"
	 viewBox="0 0 490 841.9" style="enable-background:new 0 0 490 841.9;" xml:space="preserve" preserveAspectRatio="none">
<style type="text/css">
	.st0{fill:#E8DECD;}
	.st1{fill:#4A4849;stroke:#000000;stroke-miterlimit:10;}
	.st2{fill:#414042;stroke:#000000;stroke-miterlimit:10;}
	.st3{fill:#2D3232;}
	.st4{fill:#A7A9AC;}
	.st5{fill:#FCFBF2;}
	.st6{fill:#E5E4DC;}
	.st7{fill:#656565;}
	.st8{fill:url(#XMLID_266_);}
	.st9{fill:url(#XMLID_267_);}
	.st10{fill:url(#XMLID_268_);}
	.st11{fill:#DCE11F;}
	.st12{fill:url(#XMLID_269_);}
	.st13{fill:url(#XMLID_270_);}
	.st14{fill:#B6AFA7;}
	.st15{fill:url(#XMLID_271_);}
	.st16{fill:url(#XMLID_272_);}
	.st17{fill:url(#XMLID_273_);}
	.st18{fill:url(#XMLID_274_);}
	.st19{fill:url(#XMLID_275_);}
	.st20{fill:#39B54A;}
	.st21{fill:url(#XMLID_276_);}
	.st22{fill:#ED1C24;}
	.st23{fill:url(#XMLID_277_);}
	.st24{fill:url(#XMLID_278_);}
	.st25{fill:url(#XMLID_279_);}
	.st26{fill:url(#XMLID_280_);}
	.st27{fill:url(#XMLID_281_);}
	.st28{fill:url(#XMLID_282_);}
	.st29{fill:url(#XMLID_283_);}
	.st30{fill:#6D6E71;}
	.st31{fill:#58595B;}
	.st32{fill:#808285;}
	.st33{fill:#939598;}
	.st34{fill:#E5D5BF;}
	.st35{opacity:0.1;stroke:#000000;stroke-width:0.25;stroke-miterlimit:10;}
	.st36{opacity:0.1;fill:none;stroke:#000000;stroke-width:0.25;stroke-miterlimit:10;}
	.st37{fill:#202323;}
</style>
<rect id="XMLID_174_" x="195.5" class="st0" width="294.5" height="841.9"/>
<rect id="XMLID_164_" x="0" y="0" class="st1" width="178.1" height="841.9"/>
<rect id="XMLID_1_" x="178.1" class="st2" width="17.3" height="841.9"/>
<g id="XMLID_173_">
	<g id="XMLID_66_">
		<path class="st3" d="M242.1,239.7h26.8v9.6c0,0,4.8,8,12.8,0v-9.6h132.4v8c0,0,5.2,10,12,0.8v-8.8h27.6l-1.6,271.6h-27.2l0.4-9.2
			c0,0-4.8-9.6-12,0.4l-0.8,8.8H283.7l-0.4-7.6c0,0-5.2-9.6-12.8-2.4v10h-28.4V239.7z"/>
	</g>
	<g id="XMLID_5_">
		<path class="st4" d="M266.7,264.2h159c0,0,4.8,154.2,0,231.6h-159C266.7,495.7,260.7,378.8,266.7,264.2z"/>
	</g>
	<g id="XMLID_4_">
		<path class="st5" d="M293.5,274.6h108.4c0,0,4.4-1.6,4,5.6l0,46.8c0,0,1.2,3.2-3.2,3.6H289.9c0,0-4,1.6-4-5.2v-46c0,0,0.4-5.1,4-5
			C293.5,274.6,293.5,274.6,293.5,274.6z"/>
	</g>
	<g id="XMLID_27_">
		<path class="st6" d="M286.2,295.7c0,0,10-16.6,35.7-13.8l48.1-0.3c0,0,23.3-4.3,35.9,14.9l-0.1-18.6c0,0-0.5-4.2-4.1-3.2
			l-111.8-0.2c0,0-3.6-0.3-4,5.9L286.2,295.7z"/>
	</g>
	<g id="XMLID_29_">
		<g id="XMLID_28_">
			<path id="XMLID_261_" class="st7" d="M301.9,387.7h-12.4c-2.8,0-5-2.3-5-5v-13c0-2.8,2.3-5,5-5h12.4c2.8,0,5,2.3,5,5v13
				C306.9,385.4,304.6,387.7,301.9,387.7z"/>
			<linearGradient id="XMLID_266_" gradientUnits="userSpaceOnUse" x1="283.4873" y1="376.1541" x2="307.8838" y2="376.1541">
				<stop  offset="0" style="stop-color:#FFFFFF"/>
				<stop  offset="1" style="stop-color:#000000"/>
			</linearGradient>
			<path id="XMLID_262_" class="st8" d="M301.9,388.7h-12.4c-3.3,0-6-2.7-6-6v-13c0-3.3,2.7-6,6-6h12.4c3.3,0,6,2.7,6,6v13
				C307.9,386,305.2,388.7,301.9,388.7z M289.5,365.7c-2.2,0-4,1.8-4,4v13c0,2.2,1.8,4,4,4h12.4c2.2,0,4-1.8,4-4v-13
				c0-2.2-1.8-4-4-4H289.5z"/>
		</g>
		<g id="XMLID_9_">
			<path class="st7" d="M302.3,387h-13.2c-2.5,0-4.6-2.1-4.6-4.6v-12.4c0-2.5,2.1-4.6,4.6-4.6h13.2c2.5,0,4.6,2.1,4.6,4.6v12.4
				C306.9,384.9,304.8,387,302.3,387z"/>
		</g>
	</g>
	<g id="XMLID_13_">
		<g id="XMLID_26_">
			<path id="XMLID_257_" class="st7" d="M335.1,387h-12.4c-2.8,0-5-2.3-5-5v-13c0-2.8,2.3-5,5-5h12.4c2.8,0,5,2.3,5,5v13
				C340.1,384.7,337.8,387,335.1,387z"/>
			<linearGradient id="XMLID_267_" gradientUnits="userSpaceOnUse" x1="316.6826" y1="375.4541" x2="341.0801" y2="375.4541">
				<stop  offset="0" style="stop-color:#FFFFFF"/>
				<stop  offset="1" style="stop-color:#000000"/>
			</linearGradient>
			<path id="XMLID_258_" class="st9" d="M335.1,388h-12.4c-3.3,0-6-2.7-6-6v-13c0-3.3,2.7-6,6-6h12.4c3.3,0,6,2.7,6,6v13
				C341.1,385.3,338.4,388,335.1,388z M322.7,365c-2.2,0-4,1.8-4,4v13c0,2.2,1.8,4,4,4h12.4c2.2,0,4-1.8,4-4v-13c0-2.2-1.8-4-4-4
				H322.7z"/>
		</g>
		<g id="XMLID_20_">
			<path class="st7" d="M335.5,386.3h-13.2c-2.5,0-4.6-2.1-4.6-4.6v-12.4c0-2.5,2.1-4.6,4.6-4.6h13.2c2.5,0,4.6,2.1,4.6,4.6v12.4
				C340.1,384.2,338,386.3,335.5,386.3z"/>
		</g>
	</g>
	<g id="XMLID_30_">
		<g id="XMLID_32_">
			<path id="XMLID_253_" class="st7" d="M368.9,387h-12.4c-2.8,0-5-2.3-5-5v-13c0-2.8,2.3-5,5-5h12.4c2.8,0,5,2.3,5,5v13
				C373.9,384.7,371.6,387,368.9,387z"/>
			<linearGradient id="XMLID_268_" gradientUnits="userSpaceOnUse" x1="350.4785" y1="375.4541" x2="374.875" y2="375.4541">
				<stop  offset="0" style="stop-color:#FFFFFF"/>
				<stop  offset="1" style="stop-color:#000000"/>
			</linearGradient>
			<path id="XMLID_254_" class="st10" d="M368.9,388h-12.4c-3.3,0-6-2.7-6-6v-13c0-3.3,2.7-6,6-6h12.4c3.3,0,6,2.7,6,6v13
				C374.9,385.3,372.2,388,368.9,388z M356.5,365c-2.2,0-4,1.8-4,4v13c0,2.2,1.8,4,4,4h12.4c2.2,0,4-1.8,4-4v-13c0-2.2-1.8-4-4-4
				H356.5z"/>
		</g>
		<g id="XMLID_31_">
			<path class="st7" d="M369.3,386.3h-13.2c-2.5,0-4.6-2.1-4.6-4.6v-12.4c0-2.5,2.1-4.6,4.6-4.6h13.2c2.5,0,4.6,2.1,4.6,4.6v12.4
				C373.9,384.2,371.8,386.3,369.3,386.3z"/>
		</g>
	</g>
	<g id="XMLID_33_">
		<g id="XMLID_35_">
			<path id="XMLID_246_" class="st11" d="M402,387.7h-12.4c-2.8,0-5-2.3-5-5v-13c0-2.8,2.3-5,5-5H402c2.8,0,5,2.3,5,5v13
				C407,385.4,404.7,387.7,402,387.7z"/>
			<linearGradient id="XMLID_269_" gradientUnits="userSpaceOnUse" x1="383.5742" y1="376.1541" x2="407.9707" y2="376.1541">
				<stop  offset="0" style="stop-color:#FFFFFF"/>
				<stop  offset="1" style="stop-color:#000000"/>
			</linearGradient>
			<path id="XMLID_250_" class="st12" d="M402,388.7h-12.4c-3.3,0-6-2.7-6-6v-13c0-3.3,2.7-6,6-6H402c3.3,0,6,2.7,6,6v13
				C408,386,405.3,388.7,402,388.7z M389.6,365.7c-2.2,0-4,1.8-4,4v13c0,2.2,1.8,4,4,4H402c2.2,0,4-1.8,4-4v-13c0-2.2-1.8-4-4-4
				H389.6z"/>
		</g>
		<g id="XMLID_34_">
			<path class="st11" d="M402.4,387h-13.2c-2.5,0-4.6-2.1-4.6-4.6v-12.4c0-2.5,2.1-4.6,4.6-4.6h13.2c2.5,0,4.6,2.1,4.6,4.6v12.4
				C407,384.9,404.9,387,402.4,387z"/>
		</g>
	</g>
	<g id="XMLID_14_">
		<g id="XMLID_16_">
			<linearGradient id="XMLID_270_" gradientUnits="userSpaceOnUse" x1="284.4873" y1="474.5415" x2="308.8838" y2="474.5415">
				<stop  offset="0" style="stop-color:#FFFFFF"/>
				<stop  offset="1" style="stop-color:#000000"/>
			</linearGradient>
			<path id="XMLID_247_" class="st13" d="M302.9,487h-12.4c-3.3,0-6-2.7-6-6v-13c0-3.3,2.7-6,6-6h12.4c3.3,0,6,2.7,6,6v13
				C308.9,484.3,306.2,487,302.9,487z M290.5,464c-2.2,0-4,1.8-4,4v13c0,2.2,1.8,4,4,4h12.4c2.2,0,4-1.8,4-4v-13c0-2.2-1.8-4-4-4
				H290.5z"/>
		</g>
		<g id="XMLID_15_">
			<path class="st14" d="M303.3,485.3h-13.2c-2.5,0-4.6-2.1-4.6-4.6v-12.4c0-2.5,2.1-4.6,4.6-4.6h13.2c2.5,0,4.6,2.1,4.6,4.6v12.4
				C307.9,483.3,305.8,485.3,303.3,485.3z"/>
		</g>
	</g>
	<g id="XMLID_17_">
		<g id="XMLID_19_">
			<path id="XMLID_242_" class="st7" d="M335.9,486h-12.4c-2.8,0-5-2.3-5-5v-13c0-2.8,2.3-5,5-5h12.4c2.8,0,5,2.3,5,5v13
				C340.9,483.8,338.6,486,335.9,486z"/>
			<linearGradient id="XMLID_271_" gradientUnits="userSpaceOnUse" x1="317.4824" y1="474.5415" x2="341.8799" y2="474.5415">
				<stop  offset="0" style="stop-color:#FFFFFF"/>
				<stop  offset="1" style="stop-color:#000000"/>
			</linearGradient>
			<path id="XMLID_243_" class="st15" d="M335.9,487h-12.4c-3.3,0-6-2.7-6-6v-13c0-3.3,2.7-6,6-6h12.4c3.3,0,6,2.7,6,6v13
				C341.9,484.3,339.2,487,335.9,487z M323.5,464c-2.2,0-4,1.8-4,4v13c0,2.2,1.8,4,4,4h12.4c2.2,0,4-1.8,4-4v-13c0-2.2-1.8-4-4-4
				H323.5z"/>
		</g>
		<g id="XMLID_18_">
			<path class="st7" d="M336.3,485.3h-13.2c-2.5,0-4.6-2.1-4.6-4.6v-12.4c0-2.5,2.1-4.6,4.6-4.6h13.2c2.5,0,4.6,2.1,4.6,4.6v12.4
				C340.9,483.3,338.8,485.3,336.3,485.3z"/>
		</g>
	</g>
	<g id="XMLID_21_">
		<g id="XMLID_23_">
			<path id="XMLID_238_" class="st7" d="M368.9,486h-12.4c-2.8,0-5-2.3-5-5v-13c0-2.8,2.3-5,5-5h12.4c2.8,0,5,2.3,5,5v13
				C373.9,483.8,371.6,486,368.9,486z"/>
			<linearGradient id="XMLID_272_" gradientUnits="userSpaceOnUse" x1="350.4785" y1="474.5415" x2="374.875" y2="474.5415">
				<stop  offset="0" style="stop-color:#FFFFFF"/>
				<stop  offset="1" style="stop-color:#000000"/>
			</linearGradient>
			<path id="XMLID_239_" class="st16" d="M368.9,487h-12.4c-3.3,0-6-2.7-6-6v-13c0-3.3,2.7-6,6-6h12.4c3.3,0,6,2.7,6,6v13
				C374.9,484.3,372.2,487,368.9,487z M356.5,464c-2.2,0-4,1.8-4,4v13c0,2.2,1.8,4,4,4h12.4c2.2,0,4-1.8,4-4v-13c0-2.2-1.8-4-4-4
				H356.5z"/>
		</g>
		<g id="XMLID_22_">
			<path class="st7" d="M369.3,485.3h-13.2c-2.5,0-4.6-2.1-4.6-4.6v-12.4c0-2.5,2.1-4.6,4.6-4.6h13.2c2.5,0,4.6,2.1,4.6,4.6v12.4
				C373.9,483.3,371.8,485.3,369.3,485.3z"/>
		</g>
	</g>
	<g id="XMLID_24_">
		<g id="XMLID_36_">
			<path id="XMLID_234_" class="st7" d="M302.9,453.5h-12.4c-2.8,0-5-2.3-5-5v-13c0-2.8,2.3-5,5-5h12.4c2.8,0,5,2.3,5,5v13
				C307.9,451.3,305.6,453.5,302.9,453.5z"/>
			<linearGradient id="XMLID_273_" gradientUnits="userSpaceOnUse" x1="284.4873" y1="442.0454" x2="308.8838" y2="442.0454">
				<stop  offset="0" style="stop-color:#FFFFFF"/>
				<stop  offset="1" style="stop-color:#000000"/>
			</linearGradient>
			<path id="XMLID_235_" class="st17" d="M302.9,454.5h-12.4c-3.3,0-6-2.7-6-6v-13c0-3.3,2.7-6,6-6h12.4c3.3,0,6,2.7,6,6v13
				C308.9,451.9,306.2,454.5,302.9,454.5z M290.5,431.5c-2.2,0-4,1.8-4,4v13c0,2.2,1.8,4,4,4h12.4c2.2,0,4-1.8,4-4v-13
				c0-2.2-1.8-4-4-4H290.5z"/>
		</g>
		<g id="XMLID_25_">
			<path class="st7" d="M303.3,452.8h-13.2c-2.5,0-4.6-2.1-4.6-4.6v-12.4c0-2.5,2.1-4.6,4.6-4.6h13.2c2.5,0,4.6,2.1,4.6,4.6v12.4
				C307.9,450.8,305.8,452.8,303.3,452.8z"/>
		</g>
	</g>
	<g id="XMLID_37_">
		<g id="XMLID_39_">
			<path id="XMLID_230_" class="st7" d="M335.9,453.5h-12.4c-2.8,0-5-2.3-5-5v-13c0-2.8,2.3-5,5-5h12.4c2.8,0,5,2.3,5,5v13
				C340.9,451.3,338.6,453.5,335.9,453.5z"/>
			<linearGradient id="XMLID_274_" gradientUnits="userSpaceOnUse" x1="317.4824" y1="442.0454" x2="341.8799" y2="442.0454">
				<stop  offset="0" style="stop-color:#FFFFFF"/>
				<stop  offset="1" style="stop-color:#000000"/>
			</linearGradient>
			<path id="XMLID_231_" class="st18" d="M335.9,454.5h-12.4c-3.3,0-6-2.7-6-6v-13c0-3.3,2.7-6,6-6h12.4c3.3,0,6,2.7,6,6v13
				C341.9,451.9,339.2,454.5,335.9,454.5z M323.5,431.5c-2.2,0-4,1.8-4,4v13c0,2.2,1.8,4,4,4h12.4c2.2,0,4-1.8,4-4v-13
				c0-2.2-1.8-4-4-4H323.5z"/>
		</g>
		<g id="XMLID_38_">
			<path class="st7" d="M336.3,452.8h-13.2c-2.5,0-4.6-2.1-4.6-4.6v-12.4c0-2.5,2.1-4.6,4.6-4.6h13.2c2.5,0,4.6,2.1,4.6,4.6v12.4
				C340.9,450.8,338.8,452.8,336.3,452.8z"/>
		</g>
	</g>
	<g id="XMLID_40_">
		<g id="XMLID_42_">
			<path id="XMLID_226_" class="st7" d="M368.9,454.2h-12.4c-2.8,0-5-2.3-5-5v-13c0-2.8,2.3-5,5-5h12.4c2.8,0,5,2.3,5,5v13
				C373.9,452,371.6,454.2,368.9,454.2z"/>
			<linearGradient id="XMLID_275_" gradientUnits="userSpaceOnUse" x1="350.4785" y1="442.7456" x2="374.875" y2="442.7456">
				<stop  offset="0" style="stop-color:#FFFFFF"/>
				<stop  offset="1" style="stop-color:#000000"/>
			</linearGradient>
			<path id="XMLID_227_" class="st19" d="M368.9,455.2h-12.4c-3.3,0-6-2.7-6-6v-13c0-3.3,2.7-6,6-6h12.4c3.3,0,6,2.7,6,6v13
				C374.9,452.6,372.2,455.2,368.9,455.2z M356.5,432.2c-2.2,0-4,1.8-4,4v13c0,2.2,1.8,4,4,4h12.4c2.2,0,4-1.8,4-4v-13
				c0-2.2-1.8-4-4-4H356.5z"/>
		</g>
		<g id="XMLID_41_">
			<path class="st7" d="M369.3,453.5h-13.2c-2.5,0-4.6-2.1-4.6-4.6v-12.4c0-2.5,2.1-4.6,4.6-4.6h13.2c2.5,0,4.6,2.1,4.6,4.6V449
				C373.9,451.5,371.8,453.5,369.3,453.5z"/>
		</g>
	</g>
	<g id="XMLID_43_">
		<g id="XMLID_45_">
			<path id="XMLID_222_" class="st20" d="M402,485.2h-12.4c-2.8,0-5-2.3-5-5v-44.7c0-2.8,2.3-5,5-5H402c2.8,0,5,2.3,5,5v44.7
				C407,483,404.7,485.2,402,485.2z"/>
			<linearGradient id="XMLID_276_" gradientUnits="userSpaceOnUse" x1="383.5742" y1="457.8931" x2="407.9707" y2="457.8931">
				<stop  offset="0" style="stop-color:#FFFFFF"/>
				<stop  offset="1" style="stop-color:#000000"/>
			</linearGradient>
			<path id="XMLID_223_" class="st21" d="M402,486.2h-12.4c-3.3,0-6-2.7-6-6v-44.7c0-3.3,2.7-6,6-6H402c3.3,0,6,2.7,6,6v44.7
				C408,483.5,405.3,486.2,402,486.2z M389.6,431.5c-2.2,0-4,1.8-4,4v44.7c0,2.2,1.8,4,4,4H402c2.2,0,4-1.8,4-4v-44.7
				c0-2.2-1.8-4-4-4H389.6z"/>
		</g>
		<g id="XMLID_44_">
			<path class="st20" d="M402.4,483.6h-13.2c-2.5,0-4.6-2.1-4.6-4.6v-42.2c0-2.5,2.1-4.6,4.6-4.6h13.2c2.5,0,4.6,2.1,4.6,4.6V479
				C407,481.5,404.9,483.6,402.4,483.6z"/>
		</g>
	</g>
	<g id="XMLID_46_">
		<g id="XMLID_48_">
			<path id="XMLID_218_" class="st22" d="M402,420h-12.4c-2.8,0-5-2.3-5-5v-13c0-2.8,2.3-5,5-5H402c2.8,0,5,2.3,5,5v13
				C407,417.8,404.7,420,402,420z"/>
			<linearGradient id="XMLID_277_" gradientUnits="userSpaceOnUse" x1="383.5742" y1="408.5498" x2="407.9707" y2="408.5498">
				<stop  offset="0" style="stop-color:#FFFFFF"/>
				<stop  offset="1" style="stop-color:#000000"/>
			</linearGradient>
			<path id="XMLID_219_" class="st23" d="M402,421h-12.4c-3.3,0-6-2.7-6-6v-13c0-3.3,2.7-6,6-6H402c3.3,0,6,2.7,6,6v13
				C408,418.4,405.3,421,402,421z M389.6,398.1c-2.2,0-4,1.8-4,4v13c0,2.2,1.8,4,4,4H402c2.2,0,4-1.8,4-4v-13c0-2.2-1.8-4-4-4H389.6
				z"/>
		</g>
		<g id="XMLID_47_">
			<path class="st22" d="M402.4,419.3h-13.2c-2.5,0-4.6-2.1-4.6-4.6v-12.4c0-2.5,2.1-4.6,4.6-4.6h13.2c2.5,0,4.6,2.1,4.6,4.6v12.4
				C407,417.3,404.9,419.3,402.4,419.3z"/>
		</g>
	</g>
	<g id="XMLID_49_">
		<g id="XMLID_51_">
			<path id="XMLID_214_" class="st7" d="M368.9,420h-12.4c-2.8,0-5-2.3-5-5v-13c0-2.8,2.3-5,5-5h12.4c2.8,0,5,2.3,5,5v13
				C373.9,417.8,371.6,420,368.9,420z"/>
			<linearGradient id="XMLID_278_" gradientUnits="userSpaceOnUse" x1="350.4785" y1="408.5498" x2="374.875" y2="408.5498">
				<stop  offset="0" style="stop-color:#FFFFFF"/>
				<stop  offset="1" style="stop-color:#000000"/>
			</linearGradient>
			<path id="XMLID_215_" class="st24" d="M368.9,421h-12.4c-3.3,0-6-2.7-6-6v-13c0-3.3,2.7-6,6-6h12.4c3.3,0,6,2.7,6,6v13
				C374.9,418.4,372.2,421,368.9,421z M356.5,398.1c-2.2,0-4,1.8-4,4v13c0,2.2,1.8,4,4,4h12.4c2.2,0,4-1.8,4-4v-13c0-2.2-1.8-4-4-4
				H356.5z"/>
		</g>
		<g id="XMLID_50_">
			<path class="st7" d="M369.3,419.3h-13.2c-2.5,0-4.6-2.1-4.6-4.6v-12.4c0-2.5,2.1-4.6,4.6-4.6h13.2c2.5,0,4.6,2.1,4.6,4.6v12.4
				C373.9,417.3,371.8,419.3,369.3,419.3z"/>
		</g>
	</g>
	<g id="XMLID_52_">
		<g id="XMLID_54_">
			<path id="XMLID_210_" class="st7" d="M335.9,420h-12.4c-2.8,0-5-2.3-5-5v-13c0-2.8,2.3-5,5-5h12.4c2.8,0,5,2.3,5,5v13
				C340.9,417.8,338.6,420,335.9,420z"/>
			<linearGradient id="XMLID_279_" gradientUnits="userSpaceOnUse" x1="317.4824" y1="408.5498" x2="341.8799" y2="408.5498">
				<stop  offset="0" style="stop-color:#FFFFFF"/>
				<stop  offset="1" style="stop-color:#000000"/>
			</linearGradient>
			<path id="XMLID_211_" class="st25" d="M335.9,421h-12.4c-3.3,0-6-2.7-6-6v-13c0-3.3,2.7-6,6-6h12.4c3.3,0,6,2.7,6,6v13
				C341.9,418.4,339.2,421,335.9,421z M323.5,398.1c-2.2,0-4,1.8-4,4v13c0,2.2,1.8,4,4,4h12.4c2.2,0,4-1.8,4-4v-13c0-2.2-1.8-4-4-4
				H323.5z"/>
		</g>
		<g id="XMLID_53_">
			<path class="st7" d="M336.3,419.3h-13.2c-2.5,0-4.6-2.1-4.6-4.6v-12.4c0-2.5,2.1-4.6,4.6-4.6h13.2c2.5,0,4.6,2.1,4.6,4.6v12.4
				C340.9,417.3,338.8,419.3,336.3,419.3z"/>
		</g>
	</g>
	<g id="XMLID_55_">
		<g id="XMLID_57_">
			<path id="XMLID_180_" class="st7" d="M302.9,420h-12.4c-2.8,0-5-2.3-5-5v-13c0-2.8,2.3-5,5-5h12.4c2.8,0,5,2.3,5,5v13
				C307.9,417.8,305.6,420,302.9,420z"/>
			<linearGradient id="XMLID_280_" gradientUnits="userSpaceOnUse" x1="284.4873" y1="408.5498" x2="308.8838" y2="408.5498">
				<stop  offset="0" style="stop-color:#FFFFFF"/>
				<stop  offset="1" style="stop-color:#000000"/>
			</linearGradient>
			<path id="XMLID_207_" class="st26" d="M302.9,421h-12.4c-3.3,0-6-2.7-6-6v-13c0-3.3,2.7-6,6-6h12.4c3.3,0,6,2.7,6,6v13
				C308.9,418.4,306.2,421,302.9,421z M290.5,398.1c-2.2,0-4,1.8-4,4v13c0,2.2,1.8,4,4,4h12.4c2.2,0,4-1.8,4-4v-13c0-2.2-1.8-4-4-4
				H290.5z"/>
		</g>
		<g id="XMLID_56_">
			<path class="st7" d="M303.3,419.3h-13.2c-2.5,0-4.6-2.1-4.6-4.6v-12.4c0-2.5,2.1-4.6,4.6-4.6h13.2c2.5,0,4.6,2.1,4.6,4.6v12.4
				C307.9,417.3,305.8,419.3,303.3,419.3z"/>
		</g>
	</g>
	<g id="XMLID_6_">
		<g id="XMLID_8_">
			<linearGradient id="XMLID_281_" gradientUnits="userSpaceOnUse" x1="284.8867" y1="347.0579" x2="312.8838" y2="347.0579">
				<stop  offset="0" style="stop-color:#FFFFFF"/>
				<stop  offset="1" style="stop-color:#000000"/>
			</linearGradient>
			<path id="XMLID_204_" class="st27" d="M306.9,354.2h-16c-3.3,0-6-2.7-6-6V346c0-3.3,2.7-6,6-6h16c3.3,0,6,2.7,6,6v2.2
				C312.9,351.5,310.2,354.2,306.9,354.2z M290.9,342c-2.2,0-4,1.8-4,4v2.2c0,2.2,1.8,4,4,4h16c2.2,0,4-1.8,4-4V346c0-2.2-1.8-4-4-4
				H290.9z"/>
		</g>
		<g id="XMLID_7_">
			<path class="st14" d="M307.3,352.8h-16.8c-2.5,0-4.6-2.1-4.6-4.6v-2.3c0-2.5,2.1-4.6,4.6-4.6h16.8c2.5,0,4.6,2.1,4.6,4.6v2.3
				C311.9,350.7,309.8,352.8,307.3,352.8z"/>
		</g>
	</g>
	<g id="XMLID_58_">
		<g id="XMLID_60_">
			<linearGradient id="XMLID_282_" gradientUnits="userSpaceOnUse" x1="331.9141" y1="347.0579" x2="359.9111" y2="347.0579">
				<stop  offset="0" style="stop-color:#FFFFFF"/>
				<stop  offset="1" style="stop-color:#000000"/>
			</linearGradient>
			<path id="XMLID_201_" class="st28" d="M353.9,354.2h-16c-3.3,0-6-2.7-6-6V346c0-3.3,2.7-6,6-6h16c3.3,0,6,2.7,6,6v2.2
				C359.9,351.5,357.2,354.2,353.9,354.2z M337.9,342c-2.2,0-4,1.8-4,4v2.2c0,2.2,1.8,4,4,4h16c2.2,0,4-1.8,4-4V346c0-2.2-1.8-4-4-4
				H337.9z"/>
		</g>
		<g id="XMLID_59_">
			<path class="st14" d="M354.3,352.8h-16.8c-2.5,0-4.6-2.1-4.6-4.6v-2.3c0-2.5,2.1-4.6,4.6-4.6h16.8c2.5,0,4.6,2.1,4.6,4.6v2.3
				C358.9,350.7,356.8,352.8,354.3,352.8z"/>
		</g>
	</g>
	<g id="XMLID_61_">
		<g id="XMLID_63_">
			<linearGradient id="XMLID_283_" gradientUnits="userSpaceOnUse" x1="379.9746" y1="347.4292" x2="407.9707" y2="347.4292">
				<stop  offset="0" style="stop-color:#FFFFFF"/>
				<stop  offset="1" style="stop-color:#000000"/>
			</linearGradient>
			<path id="XMLID_198_" class="st29" d="M402,354.5h-16c-3.3,0-6-2.7-6-6v-2.2c0-3.3,2.7-6,6-6h16c3.3,0,6,2.7,6,6v2.2
				C408,351.8,405.3,354.5,402,354.5z M386,342.3c-2.2,0-4,1.8-4,4v2.2c0,2.2,1.8,4,4,4h16c2.2,0,4-1.8,4-4v-2.2c0-2.2-1.8-4-4-4
				H386z"/>
		</g>
		<g id="XMLID_62_">
			<path class="st14" d="M402.4,353.2h-16.8c-2.5,0-4.6-2.1-4.6-4.6v-2.3c0-2.5,2.1-4.6,4.6-4.6h16.8c2.5,0,4.6,2.1,4.6,4.6v2.3
				C407,351.1,404.9,353.2,402.4,353.2z"/>
		</g>
	</g>
	<g id="XMLID_69_">
	</g>
	<g id="XMLID_70_">
		<g id="XMLID_142_">
			<path d="M295.2,371.3h3.5v10.8h-2.2v-8.5h-1.3V371.3z"/>
		</g>
	</g>
	<g id="XMLID_71_">
		<g id="XMLID_140_">
			<path d="M328.9,375.9h-2.4c0-0.8,0-1.4,0.1-1.9c0.1-0.5,0.2-0.9,0.4-1.2c0.2-0.4,0.5-0.6,1-0.8c0.4-0.2,1-0.3,1.6-0.3
				c1,0,1.8,0.3,2.3,0.8c0.5,0.5,0.8,1.3,0.8,2.3c0,0.5-0.1,1.1-0.3,1.6s-0.5,1.2-0.9,1.9l-1.3,2.3h2.2v2.2h-6.2l3.5-6
				c0.4-0.7,0.6-1.4,0.6-2c0-0.3-0.1-0.5-0.2-0.7c-0.1-0.2-0.3-0.3-0.5-0.3c-0.3,0-0.5,0.1-0.6,0.4c-0.1,0.2-0.1,0.7-0.1,1.5V375.9z
				"/>
		</g>
	</g>
	<g id="XMLID_72_">
		<g id="XMLID_138_">
			<path d="M362.5,375.3h-2.4c0-0.6,0.1-1.1,0.2-1.4c0.1-0.3,0.3-0.7,0.5-1c0.2-0.3,0.6-0.6,1-0.8c0.4-0.2,0.8-0.3,1.3-0.3
				c0.8,0,1.5,0.3,2.1,0.9c0.5,0.6,0.8,1.4,0.8,2.3c0,1.1-0.4,1.9-1.2,2.5c1,0.5,1.5,1.4,1.5,2.7c0,0.5-0.1,1-0.4,1.5
				c-0.2,0.5-0.6,0.9-1,1.1c-0.5,0.2-1,0.3-1.6,0.3c-0.9,0-1.7-0.3-2.3-0.8s-0.9-1.3-0.9-2.2h2.3c0,0.7,0.3,1,0.8,1
				c0.5,0,0.8-0.5,0.8-1.4c0-0.4-0.1-0.7-0.2-0.9c-0.1-0.2-0.4-0.2-0.8-0.2h-0.7v-2.2h0.8c0.3,0,0.6-0.1,0.7-0.3
				c0.1-0.2,0.2-0.5,0.2-0.9c0-0.9-0.2-1.3-0.7-1.3c-0.2,0-0.4,0.1-0.5,0.3c-0.1,0.2-0.1,0.5-0.1,1V375.3z"/>
		</g>
	</g>
	<g id="XMLID_73_">
		<g id="XMLID_135_">
			<path d="M299.2,405.6h2.5v6.7h0.8v2h-0.8v2.2h-2.2v-2.2H296v-1.8L299.2,405.6z M299.4,408.9l-1.6,3.4h1.6L299.4,408.9
				L299.4,408.9z"/>
		</g>
	</g>
	<g id="XMLID_74_">
		<g id="XMLID_133_">
			<path d="M331.4,405.7h4.6l0,2.2h-2.8l-0.2,1.6c1,0,1.8,0.4,2.4,1c0.5,0.6,0.8,1.4,0.8,2.5c0,1.2-0.3,2.1-1,2.8
				c-0.6,0.7-1.5,1-2.6,1c-0.6,0-1.4-0.2-2.4-0.5l0.3-2.1c0.8,0.3,1.4,0.5,1.8,0.5c0.5,0,0.9-0.2,1.1-0.5s0.4-0.8,0.4-1.4
				c0-0.5-0.2-0.9-0.5-1.2c-0.3-0.3-0.8-0.4-1.5-0.4c-0.3,0-0.7,0-1.1,0.1L331.4,405.7z"/>
		</g>
	</g>
	<g id="XMLID_75_">
		<g id="XMLID_130_">
			<path d="M365.7,404.1h2.6c-0.9,1.9-1.5,3.3-1.9,4.1c0.1,0,0.2,0,0.3-0.1c0.2,0,0.3,0,0.5,0c0.9,0,1.6,0.3,2,0.9s0.7,1.4,0.7,2.5
				c0,1.2-0.3,2.1-1,2.8c-0.6,0.7-1.5,1-2.6,1c-1,0-1.8-0.3-2.4-1c-0.6-0.7-0.9-1.6-0.9-2.7c0-1.4,0.6-3.3,1.9-5.9L365.7,404.1z
				 M366.5,413.1c0.3,0,0.6-0.1,0.8-0.4c0.2-0.3,0.3-0.7,0.3-1.1c0-0.4-0.1-0.8-0.3-1.1c-0.2-0.3-0.5-0.5-0.8-0.5
				c-0.3,0-0.6,0.2-0.8,0.5c-0.2,0.3-0.3,0.7-0.3,1.2c0,0.5,0.1,0.8,0.3,1.1C365.9,413,366.2,413.1,366.5,413.1L366.5,413.1z"/>
		</g>
	</g>
	<g id="XMLID_76_">
		<g id="XMLID_128_">
			<path d="M300.4,434h6.4l-4.1,10.8h-2.5l3.2-8.6h-3V434z"/>
		</g>
	</g>
	<g id="XMLID_77_">
		<g id="XMLID_124_">
			<path d="M338.3,438.9c0.6,0.3,1.1,0.7,1.4,1.2c0.3,0.5,0.5,1.1,0.5,1.8c0,1-0.3,1.7-0.9,2.3c-0.6,0.6-1.4,0.9-2.4,0.9
				c-1,0-1.8-0.3-2.4-0.8c-0.6-0.6-0.9-1.3-0.9-2.3c0-0.2,0-0.5,0-0.7s0.1-0.4,0.1-0.6c0.1-0.2,0.2-0.4,0.3-0.5
				c0.1-0.2,0.2-0.3,0.4-0.5c0.1-0.1,0.3-0.3,0.5-0.4c0.2-0.1,0.4-0.2,0.6-0.4v0h0c0,0,0,0,0,0c0,0,0,0,0,0
				c-0.3-0.2-0.6-0.3-0.8-0.5c-0.2-0.2-0.4-0.4-0.5-0.8c-0.2-0.3-0.2-0.7-0.2-1.2c0-0.8,0.3-1.4,0.9-1.9c0.6-0.5,1.3-0.8,2.1-0.8
				c0.9,0,1.6,0.3,2.1,0.8c0.6,0.5,0.8,1.2,0.8,2c0,0.5-0.1,1-0.4,1.4C339.3,438.2,338.9,438.6,338.3,438.9z M337.8,441.7
				c0-1.1-0.3-1.6-0.9-1.6c-0.6,0-0.9,0.5-0.9,1.5c0,1,0.3,1.6,0.9,1.6C337.6,443.1,337.8,442.7,337.8,441.7z M337.6,436.8
				c0-0.8-0.2-1.2-0.6-1.2c-0.4,0-0.6,0.3-0.6,1c0,0.4,0,0.7,0.1,0.9c0.1,0.2,0.3,0.3,0.5,0.3C337.4,437.9,337.6,437.5,337.6,436.8z
				"/>
		</g>
	</g>
	<g id="XMLID_78_">
		<g id="XMLID_121_">
			<path d="M368.5,442.3l0.7-1.6c-0.4,0.1-0.7,0.2-1,0.2c-0.8,0-1.4-0.3-1.9-0.9c-0.5-0.6-0.7-1.4-0.7-2.5c0-1.1,0.3-2,0.9-2.7
				c0.6-0.7,1.5-1,2.5-1c1.1,0,1.9,0.3,2.5,1c0.6,0.7,0.9,1.6,0.9,2.7c0,0.4-0.1,0.9-0.2,1.6c-0.1,0.6-0.3,1.2-0.5,1.8
				c-0.2,0.6-0.8,1.9-1.8,4h-2.6L368.5,442.3z M370.2,437.3c0-0.5-0.1-0.8-0.3-1.1c-0.2-0.3-0.5-0.4-0.8-0.4c-0.3,0-0.6,0.1-0.8,0.4
				s-0.3,0.6-0.3,1.1c0,0.5,0.1,0.9,0.3,1.2c0.2,0.3,0.5,0.4,0.8,0.4c0.3,0,0.6-0.2,0.8-0.5C370.1,438.2,370.2,437.8,370.2,437.3z"
				/>
		</g>
	</g>
	<g id="XMLID_79_">
		<g id="XMLID_118_">
			<path d="M333.7,466.5c1.2,0,2.1,0.5,2.7,1.4c0.6,1,0.9,2.4,0.9,4.3c0,1.8-0.3,3.2-0.9,4.2c-0.6,1-1.5,1.5-2.6,1.5
				c-1.1,0-2-0.5-2.6-1.4c-0.6-0.9-1-2.4-1-4.4c0-1.8,0.3-3.2,0.9-4.1C331.7,467,332.6,466.5,333.7,466.5L333.7,466.5z M332.5,472.1
				c0,2.3,0.4,3.5,1.2,3.5c0.4,0,0.7-0.3,0.9-0.8c0.2-0.5,0.3-1.3,0.3-2.4c0-1.2-0.1-2.1-0.3-2.7c-0.2-0.6-0.5-0.8-0.9-0.8
				C332.9,468.9,332.5,469.9,332.5,472.1z"/>
		</g>
	</g>
	<g id="XMLID_80_">
		<g id="XMLID_116_">
			<path d="M299.5,475.3h-0.8c-0.2,0-0.5,0-0.7,0.1c-0.5,0.1-0.8,0.1-1,0.1c-0.5,0-0.8-0.1-1.1-0.3s-0.5-0.5-0.5-0.9
				c0-0.3,0.1-0.6,0.3-0.8c0.2-0.2,0.5-0.4,0.8-0.4c0.4,0,0.7,0.1,1.1,0.4c0.4,0.3,0.7,0.6,1,0.9c0.3,0.3,0.6,0.6,0.9,0.7
				c-0.2-0.5-0.3-0.8-0.5-1.2c-0.4-0.9-0.6-1.5-0.6-1.8c0-0.4,0.1-0.7,0.4-0.9c0.2-0.2,0.5-0.4,0.9-0.4c0.3,0,0.6,0.1,0.9,0.3
				c0.2,0.2,0.3,0.5,0.3,0.9c0,0.2,0,0.4-0.1,0.5c0,0.1-0.2,0.5-0.4,1c-0.3,0.7-0.5,1.2-0.6,1.4c0.3-0.2,0.7-0.5,1.1-0.9
				c0.4-0.4,0.7-0.6,1-0.8s0.5-0.2,0.9-0.2c0.3,0,0.6,0.1,0.8,0.3s0.4,0.5,0.4,0.9c0,0.8-0.6,1.1-1.7,1.1c-0.3,0-0.6,0-1-0.1
				c-0.6-0.1-1.1-0.1-1.4-0.1v0.1c1.5,0.9,2.4,1.4,2.5,1.7s0.3,0.5,0.3,0.8c0,0.3-0.1,0.6-0.3,0.8c-0.2,0.2-0.5,0.3-0.8,0.3
				c-0.4,0-0.8-0.2-1-0.6c-0.2-0.4-0.4-1-0.6-2c0-0.1-0.1-0.4-0.3-1c-0.1,0.3-0.2,0.6-0.3,1.1c-0.2,1.2-0.5,1.9-0.7,2.1
				c-0.2,0.2-0.5,0.3-0.9,0.3c-0.4,0-0.7-0.1-0.9-0.3c-0.2-0.2-0.3-0.5-0.3-0.9c0-0.6,0.6-1.2,1.8-1.8
				C298.6,475.8,298.9,475.6,299.5,475.3L299.5,475.3z"/>
		</g>
	</g>
	<g id="XMLID_81_">
		<g id="XMLID_113_">
			<path d="M363,469.4h2.5l0.7-3.1h1.5l-0.7,3.1h2.9l0.7-3.1h1.5l-0.7,3.1h1.4v1.5h-1.7l-0.5,2.5h2.2v1.5h-2.5l-0.7,3.1h-1.5
				l0.7-3.1h-2.9l-0.6,3.1h-1.5l0.6-3.1H363v-1.5h1.7l0.5-2.5H363V469.4z M366.8,470.9l-0.5,2.4h2.9l0.5-2.4H366.8z"/>
		</g>
	</g>
	<g id="XMLID_82_">
		<g id="XMLID_109_">
			<path d="M296.2,342.3h4.3v2h-2.1v1.7h1.9v1.9h-1.9v3.7h-2.1V342.3z"/>
		</g>
		<g id="XMLID_111_">
			<path d="M302.3,342.3h3.2v9.3h-2v-7.3h-1.2V342.3z"/>
		</g>
	</g>
	<g id="XMLID_83_">
		<g id="XMLID_105_">
			<path d="M343.8,342.3h4.3v2h-2.1v1.7h1.9v1.9h-1.9v3.7h-2.1V342.3z"/>
		</g>
		<g id="XMLID_107_">
			<path d="M351.3,345.8h-2c0-0.7,0-1.2,0.1-1.6c0.1-0.4,0.2-0.7,0.4-1c0.2-0.3,0.5-0.5,0.8-0.7c0.4-0.2,0.8-0.3,1.3-0.3
				c0.9,0,1.5,0.2,2,0.7c0.5,0.4,0.7,1.1,0.7,1.9c0,0.4-0.1,0.9-0.3,1.4c-0.2,0.5-0.4,1.1-0.8,1.7l-1.1,1.9h1.9v1.9h-5.3l3-5.2
				c0.4-0.6,0.6-1.2,0.6-1.7c0-0.3-0.1-0.5-0.2-0.6c-0.1-0.2-0.2-0.2-0.4-0.2c-0.3,0-0.4,0.1-0.5,0.3c-0.1,0.2-0.1,0.6-0.1,1.2
				V345.8z"/>
		</g>
	</g>
	<g id="XMLID_84_">
		<g id="XMLID_101_">
			<path d="M390.8,342.3h4.3v2h-2.1v1.7h1.9v1.9h-1.9v3.7h-2.1V342.3z"/>
		</g>
		<g id="XMLID_103_">
			<path d="M398.5,345.1h-2c0-0.5,0.1-0.9,0.1-1.2s0.2-0.6,0.4-0.9c0.2-0.3,0.5-0.5,0.8-0.7c0.3-0.2,0.7-0.3,1.1-0.3
				c0.7,0,1.3,0.3,1.8,0.8c0.5,0.5,0.7,1.2,0.7,1.9c0,0.9-0.4,1.6-1.1,2.2c0.8,0.4,1.2,1.2,1.2,2.3c0,0.4-0.1,0.9-0.3,1.3
				s-0.5,0.8-0.9,0.9c-0.4,0.2-0.9,0.3-1.4,0.3c-0.8,0-1.4-0.2-1.9-0.7c-0.5-0.5-0.8-1.1-0.8-1.9h2c0,0.6,0.2,0.9,0.7,0.9
				c0.4,0,0.7-0.4,0.7-1.2c0-0.4-0.1-0.6-0.2-0.8s-0.4-0.2-0.7-0.2h-0.6V346h0.7c0.3,0,0.5-0.1,0.6-0.2c0.1-0.2,0.2-0.4,0.2-0.8
				c0-0.8-0.2-1.1-0.6-1.1c-0.2,0-0.3,0.1-0.4,0.2c-0.1,0.2-0.1,0.4-0.1,0.8V345.1z"/>
		</g>
	</g>
	<g id="XMLID_85_">
		<g id="XMLID_95_">
			<path d="M393.9,377.8v2.2c-0.4,0.1-0.8,0.2-1.2,0.2c-1.2,0-2.2-0.5-3-1.4c-0.8-0.9-1.1-2.1-1.1-3.6c0-1.4,0.4-2.5,1.1-3.4
				s1.7-1.3,2.9-1.3c0.5,0,0.9,0.1,1.2,0.2v2.2c-0.4-0.1-0.8-0.2-1.1-0.2c-0.5,0-1,0.2-1.4,0.7c-0.4,0.5-0.5,1.1-0.5,1.9
				c0,0.8,0.2,1.5,0.5,2s0.8,0.7,1.5,0.7C393.1,378,393.5,377.9,393.9,377.8z"/>
		</g>
		<g id="XMLID_97_">
			<path d="M395.1,370.2h2v9.8h-2V370.2z"/>
		</g>
		<g id="XMLID_99_">
			<path d="M400.6,373.6v1.1h0c0.5-0.8,1-1.2,1.5-1.2c0.1,0,0.2,0,0.3,0v2c-0.2,0-0.5-0.1-0.7-0.1c-0.7,0-1.1,0.5-1.1,1.4v3.2h-2
				v-6.4H400.6z"/>
		</g>
	</g>
	<g id="XMLID_86_">
		<g id="XMLID_65_">
			<path d="M388.6,439.6h2.5v1.1h-1.2v1h1.1v1.1h-1.1v1h1.3v1.1h-2.5V439.6z"/>
		</g>
		<g id="XMLID_68_">
			<path d="M393.1,441.3v0.5h0c0.3-0.4,0.6-0.6,1-0.6c0.3,0,0.5,0.1,0.6,0.3c0.2,0.2,0.2,0.4,0.2,0.7v2.9h-1.2v-2.3
				c0-0.1,0-0.2-0.1-0.3c-0.1-0.1-0.1-0.1-0.2-0.1c-0.2,0-0.4,0.2-0.4,0.5v2.2h-1.2v-3.7H393.1z"/>
		</g>
		<g id="XMLID_88_">
			<path d="M396,440.3h1.2v1h0.5v1h-0.5v2.7H396v-2.7h-0.4v-1h0.4V440.3z"/>
		</g>
		<g id="XMLID_90_">
			<path d="M399.9,443.9h1c-0.2,0.8-0.7,1.2-1.4,1.2c-0.5,0-0.8-0.2-1.1-0.5c-0.3-0.4-0.4-0.9-0.4-1.5c0-0.6,0.1-1.1,0.4-1.4
				c0.3-0.4,0.6-0.5,1.1-0.5c0.3,0,0.5,0.1,0.8,0.3c0.3,0.2,0.4,0.4,0.6,0.7c0.1,0.3,0.2,0.7,0.2,1.3h-2c0,0.6,0.2,0.8,0.5,0.8
				c0.1,0,0.2,0,0.3-0.1C399.9,444.1,399.9,444,399.9,443.9z M399.1,442.8h0.9c0-0.3,0-0.5-0.1-0.6c-0.1-0.1-0.2-0.2-0.3-0.2
				c-0.2,0-0.3,0.1-0.3,0.2C399.1,442.3,399.1,442.5,399.1,442.8z"/>
		</g>
		<g id="XMLID_93_">
			<path d="M402.8,441.3v0.6h0c0.3-0.5,0.6-0.7,0.9-0.7c0,0,0.1,0,0.2,0v1.1c-0.1,0-0.3,0-0.4,0c-0.4,0-0.6,0.3-0.6,0.8v1.8h-1.2
				v-3.7H402.8z"/>
		</g>
	</g>
	<g id="XMLID_64_">
		<path id="XMLID_184_" d="M390,406v1.2c-0.2,0.1-0.5,0.1-0.7,0.1c-0.7,0-1.2-0.2-1.6-0.7s-0.6-1.2-0.6-2c0-0.8,0.2-1.4,0.6-1.9
			c0.4-0.5,0.9-0.7,1.6-0.7c0.2,0,0.5,0,0.7,0.1v1.2c-0.2-0.1-0.4-0.1-0.6-0.1c-0.3,0-0.5,0.1-0.7,0.4c-0.2,0.3-0.3,0.6-0.3,1
			c0,0.5,0.1,0.8,0.3,1.1c0.2,0.3,0.5,0.4,0.8,0.4C389.6,406.1,389.8,406.1,390,406z"/>
		<path id="XMLID_186_" d="M392.4,407.2v-0.5h0c-0.1,0.2-0.3,0.3-0.4,0.4c-0.1,0.1-0.3,0.1-0.4,0.1c-0.3,0-0.6-0.2-0.8-0.5
			c-0.2-0.3-0.3-0.8-0.3-1.4c0-0.6,0.1-1,0.3-1.3c0.2-0.3,0.5-0.5,0.8-0.5c0.2,0,0.3,0,0.4,0.1s0.2,0.2,0.4,0.4h0v-0.4h1.1v3.5
			H392.4z M392.4,405.4c0-0.6-0.1-0.9-0.4-0.9c-0.3,0-0.4,0.3-0.4,0.9c0,0.6,0.1,0.9,0.4,0.9C392.2,406.3,392.4,406,392.4,405.4z"/>
		<path id="XMLID_189_" d="M395.4,403.7v0.5h0c0.3-0.4,0.6-0.6,0.9-0.6c0.2,0,0.4,0.1,0.6,0.2s0.2,0.4,0.2,0.7v2.7h-1.1V405
			c0-0.1,0-0.2-0.1-0.3s-0.1-0.1-0.2-0.1c-0.2,0-0.4,0.1-0.4,0.4v2.1h-1.1v-3.5H395.4z"/>
		<path id="XMLID_191_" d="M399.9,406.1v0.9c-0.3,0.2-0.5,0.3-0.8,0.3c-0.4,0-0.7-0.2-0.9-0.5c-0.2-0.3-0.4-0.8-0.4-1.4
			c0-0.5,0.1-1,0.4-1.3s0.6-0.5,0.9-0.5c0.3,0,0.5,0.1,0.8,0.3v0.9c-0.1-0.1-0.3-0.1-0.4-0.1c-0.2,0-0.3,0.1-0.4,0.2
			c-0.1,0.1-0.2,0.3-0.2,0.6c0,0.3,0.1,0.4,0.2,0.6c0.1,0.1,0.3,0.2,0.4,0.2C399.6,406.2,399.7,406.2,399.9,406.1z"/>
		<path id="XMLID_193_" d="M402.2,406.1h0.9c-0.2,0.8-0.6,1.2-1.3,1.2c-0.4,0-0.8-0.2-1-0.5c-0.3-0.3-0.4-0.8-0.4-1.4
			c0-0.6,0.1-1,0.4-1.3c0.3-0.3,0.6-0.5,1-0.5c0.3,0,0.5,0.1,0.7,0.2c0.2,0.2,0.4,0.4,0.5,0.6s0.2,0.7,0.2,1.3h-1.8
			c0,0.5,0.2,0.8,0.4,0.8c0.1,0,0.2,0,0.3-0.1C402.1,406.3,402.1,406.2,402.2,406.1z M401.4,405.1h0.8c0-0.2,0-0.4-0.1-0.5
			c-0.1-0.1-0.2-0.2-0.3-0.2c-0.1,0-0.3,0.1-0.3,0.2C401.4,404.7,401.4,404.8,401.4,405.1z"/>
		<path id="XMLID_196_" d="M403.9,401.8h1.1v5.3h-1.1V401.8z"/>
	</g>
	<g id="XMLID_144_">
		<path id="XMLID_182_" d="M393.6,409.7h1.4c0.4,0.9,0.5,1.4,0.6,1.5h0c0,0,0.1-0.2,0.2-0.4l0.4-1.1h1.4l-1.3,2.6l1.4,2.9h-1.4
			c-0.4-1-0.7-1.6-0.7-1.7h0c0,0.2-0.1,0.4-0.2,0.5l-0.5,1.2h-1.4l1.4-2.9L393.6,409.7z"/>
	</g>
</g>
<g id="XMLID_3_">
	<rect id="XMLID_2_" x="0" y="14" class="st4" width="178.1" height="118"/>
	<polygon id="XMLID_12_" class="st30" points="0,27.6 3.3,27.6 165.3,27.6 178.1,14.9 0,14.9 	"/>
	<polygon id="XMLID_145_" class="st31" points="165.5,27.6 178.1,14.9 178.1,132.3 165.5,132.3 	"/>
	<path id="XMLID_156_" class="st32" d="M0,26.7c0,0,140.5,1.8,151,17.1c0,0,11,26.3,14.5,88.3V27.3L0,26.7z"/>
	<path id="XMLID_157_" class="st33" d="M0,26.7c0,0,124,0.8,165.5,105.3c0,0-4.4-82.9-17.4-90.7C148.1,41.3,129,27.8,0,26.7z"/>
</g>
<g id="XMLID_10_">
	<rect id="XMLID_149_" x="0" y="221" class="st4" width="178.1" height="118"/>
	<polygon id="XMLID_148_" class="st30" points="0,234.6 3.3,234.6 165.3,234.6 178.1,221.9 0,221.9 	"/>
	<polygon id="XMLID_147_" class="st31" points="165.5,234.5 178.1,221.9 178.1,339.3 165.5,339.3 	"/>
	<path id="XMLID_146_" class="st32" d="M0,233.6c0,0,140.5,1.8,151,17.1c0,0,11,26.3,14.5,88.3V234.2L0,233.6z"/>
	<path id="XMLID_11_" class="st33" d="M0,233.6c0,0,124,0.8,165.5,105.3c0,0-4.4-82.9-17.4-90.7C148.1,248.3,129,234.8,0,233.6z"/>
</g>
<g id="XMLID_150_">
	<rect id="XMLID_155_" x="0" y="430.8" class="st4" width="178.1" height="118"/>
	<polygon id="XMLID_154_" class="st30" points="0,444.4 3.3,444.4 165.3,444.4 178.1,431.8 0,431.8 	"/>
	<polygon id="XMLID_153_" class="st31" points="165.5,444.4 178.1,431.8 178.1,549.1 165.5,549.1 	"/>
	<path id="XMLID_152_" class="st32" d="M0,443.5c0,0,140.5,1.8,151,17.1c0,0,11,26.3,14.5,88.3V444.1L0,443.5z"/>
	<path id="XMLID_151_" class="st33" d="M0,443.5c0,0,124,0.8,165.5,105.3c0,0-4.4-82.9-17.4-90.7C148.1,458.1,129,444.7,0,443.5z"/>
</g>
<g id="XMLID_158_">
	<rect id="XMLID_163_" x="0" y="656.9" class="st4" width="178.1" height="118"/>
	<polygon id="XMLID_162_" class="st30" points="0,670.5 3.3,670.5 165.3,670.5 178.1,657.8 0,657.8 	"/>
	<polygon id="XMLID_161_" class="st31" points="165.5,670.4 178.1,657.8 178.1,775.2 165.5,775.2 	"/>
	<path id="XMLID_160_" class="st32" d="M0,669.5c0,0,140.5,1.8,151,17.1c0,0,11,26.3,14.5,88.3V670.1L0,669.5z"/>
	<path id="XMLID_159_" class="st33" d="M0,669.5c0,0,124,0.8,165.5,105.3c0,0-4.4-82.9-17.4-90.7C148.1,684.2,129,670.7,0,669.5z"/>
</g>
<path id="XMLID_165_" class="st30" d="M0,132c0,0,143.3-0.7,178.1,89.9v-89.6L0,132z"/>
<path id="XMLID_166_" class="st30" d="M0,339.7c0,0,143.3-0.7,178.1,89.9v-89.6L0,339.7z"/>
<path id="XMLID_167_" class="st30" d="M0,549.1c0,0,143.3-0.7,178.1,89.9v-89.6L0,549.1z"/>
<path id="XMLID_168_" class="st30" d="M0,775c0,0,143.3-0.7,178.1,89.9v-89.6L0,775z"/>
<path id="XMLID_170_" class="st31" d="M117,340l61.1,0.1v89.6C178.1,429.7,183,334.9,117,340z"/>
<path id="XMLID_169_" class="st31" d="M117,549.3l61.1,0.1V639C178.1,639,183,544.3,117,549.3z"/>
<path id="XMLID_171_" class="st31" d="M117,775.2l61.1,0.1v89.6C178.1,864.9,183,770.2,117,775.2z"/>
<path id="XMLID_172_" class="st31" d="M117,132.5l61.1,0.1v89.6C178.1,222.2,183,127.5,117,132.5z"/>
<path id="XMLID_176_" class="st34" d="M195.5,0v51l7.5,12c0,0-10-6,0-10s18-7,22-6s14,4,10,11s4.9,13,0.9,15s-1,9,1,18s15,15,8,21
	s-20,5-22,9s-9.5,7-1.7,11s12.7,3.6,15.7,0.3s14-14.3,15-6.3s7,15.8,7,8.9s-2-23.9,0-26.9s-18-9-9-19s9.1-20.2,9.1-20.2V42
	c0,0,8.9-11,11.9-1s4,25.6,5,27.8c1,2.2-11,21.2-6,28.2s10,27.6,14.5,35.3s-2.9,39.7,5.3,31.7s14.2-7,6.2-23s-9.4-18-6.2-25
	s8.9-12,8.1-21c-0.9-9-3.1-30,0-29c3.1,1,9,16.6,9,16.6s-2.1,24.4,1,14.4s13.5-19.8,9.8-23.4S341.8,52,340.9,59
	c-0.9,7-24.4,15.3-7.1,14.6C351,73,345.1,70,354.5,67c9.5-3,19.5,6,9.5-3s-8.5-11-12.3-15s-41-2-13.9-11s18.2-9,27.2-9s6.8,5,8.9,15
	s16.3-12,10.7,18c-5.6,30-28.5,24-18.1,41s21.3,15,25.4,21s4.1-2,9.1,8c5,10,1.9,13,6,19s16,0,13-11s-27.1-28-20.1-38S416,71,416,65
	s4.5-12,4.5-12s0.1-26,7.3-12c7.2,14-5.2,20.3,0,32.6C433,86,410,88,433,103s23.3,15.6,20.7,29.3s1.7,23.2,0,33
	c-1.7,9.7-5.1,19.7,1.1,21.7c6.2,2,10.2-7,13.2-15s-3-33,0-32s11-8,7,8s5.2,17,1.1,36c-4.1,19-0.7,28.4,1.1,38.2
	C479,232,490,241,490,244s0-15.8,0-15.8V0H195.5z"/>
<path id="XMLID_177_" class="st34" d="M242.1,511.2L473,533l-6-281l-13.3-12.3l-1.6,271.6h-27.2l0.4-9.2c0,0-4.9-9.3-12,0.4
	l-0.8,8.8H283.7l-0.4-7.6c0,0-5.6-9.4-12.8-2.4v10H242.1z"/>
<line id="XMLID_175_" class="st35" x1="369.1" y1="292" x2="334.9" y2="320"/>
<line id="XMLID_178_" class="st35" x1="370" y1="298.6" x2="348" y2="316.4"/>
<line id="XMLID_179_" class="st36" x1="368.8" y1="305.8" x2="355.4" y2="316.7"/>
<path id="XMLID_181_" class="st37" d="M425.7,264.2c0,0,21.2,67.3,0,231.6C425.7,495.7,428.8,387.3,425.7,264.2z"/>
</svg>
