<?xml version="1.0" encoding="utf-8"?>
<!-- Generator: Adobe Illustrator 21.0.0, SVG Export Plug-In . SVG Version: 6.00 Build 0)  -->
<svg version="1.1" id="Layer_1" xmlns="http://www.w3.org/2000/svg" xmlns:xlink="http://www.w3.org/1999/xlink" x="0px" y="0px"
	 viewBox="0 0 407.817 547.444" enable-background="new 0 0 407.817 547.444" xml:space="preserve" preserveAspectRatio="none">
<path fill="#CACCCA" stroke="#231F20" stroke-width="2" stroke-miterlimit="10" d="M47.854,127.157c0,0,11-126.157,132.333-126.157
	c115.02,17.961,100,141.491,100.333,141.157c0.333-0.333-26,0.001-26,0.001S132.52,87.491,47.854,127.157z"/>
<path fill="#9D9B98" stroke="#231F20" stroke-width="3" stroke-miterlimit="10" d="M275.408,411.469l-21.333,3.5
	c0,0-12,0.167-14.667,14.167h4.167c0,0-1.167,9-0.167,14c0,0-1,19.5,2.667,22.833h-1.333l0.995,20.329l1.392,22.236l9.113-1.231
	l-4.667-63.168l-0.833-4.5l1.5-6.333l-1-3.167l11.5,0.167v1.667l-2.667,8v3.833l-1.5,0.333l0.5,12.5l1,3.366l0.333,3.467
	l1.833,4.333l0.802,9.878l1.032,20.456l5.5-13.833l-3-39.667l-1-4l2.167-8.167l-0.167-2.167h3l-1.5,1.333l0.667,11.333l1.833,15.167
	l-0.667,7.833l-0.833,3.333l0.667,6.333l0.833,1.009l5-16.643l1.167-0.699l-2.167-29.667l-4.5-0.167c0,0-3.333-12.833-15-13.833
	l19.833-3L275.408,411.469z"/>
<path fill="#9D9B98" stroke="#231F20" stroke-width="3" stroke-miterlimit="10" d="M23.472,282.014l-5.667-3.333l-16.294-72
	c0,0-1.373-50,25.96-55.667h7.001h11.333v5.667c0,0-22,13.333-12.333,65l-7.667,50l-13-63c0,0-5-43.667,21.667-56l2.104-1.188
	l-3.771,0.063c0,0-23.018,5.644-22.5,50.958l14.5,71.375L23.472,282.014z"/>
<path fill="#4F5C88" d="M171.509,9.038c0,0,1.75-4.577,11-7.289c0,0,40.5,7.539,61,28.539
	C243.509,30.288,212.759,13.288,171.509,9.038z"/>
<path fill="#9D9B98" stroke="#231F20" stroke-width="2" stroke-miterlimit="10" d="M48.63,131.122L5.963,375.789
	c0,0,21.146-30.667,196.573,12.667l34.094,18.667c5.333,6.667,42.667-246,42.667-246S154.63,85.789,48.63,131.122z"/>
<path fill="#6F614F" d="M229.963,242.073l-11,74l9,2.333l10.333-73.41l5.333,3.076l-10,74.333l4.667,1.667l10-76l4.333,2.333
	l-9,75.333l3.333,3.667l10-76.667C256.963,252.74,241.63,242.74,229.963,242.073z"/>
<path fill="#9D9B98" stroke="#231F20" stroke-width="3" stroke-miterlimit="10" d="M252.878,146.189h36c0,0,24-8.8,36.8,96.8
	l-6.4,22.4l-5.6,16l16.8,79.2c0,0,2.4-5.6,8,8l4.8,38.663c0,0,11.2-6.663,16,10.937l-6.4,7.2c0,0-8,25.6-8.8,22.4
	c-0.8-3.2,15.2,0.277,15.2,0.277h5.6l41.44,60.523v7.2l-93.44,20l-77.6-3.2v-10.55l18.05-3.5c0,0,12-5.5,24-59.25l13-3.25
	l-5.25-4.75l-4-0.75l-4-22l3.25-0.75l-9.25-42c0,0-7-1.25,5-7.5l-18.25-88.25l-1.75-2.5l-4.75-0.25c0,0-3.167-1.917-2.333-5.667
	l-5.667-2l-13.917-69.667C229.411,209.955,223.678,155.089,252.878,146.189z"/>
<g>
	<path fill="#23355D" stroke="#231F20" stroke-width="3" stroke-miterlimit="10" d="M284.396,223.455c0,0,4.333,0.333,9.333-11.667
		h23.667c0,0-7.333,24.335-19.667,11.668L284.396,223.455z"/>
	<path fill="#23355D" stroke="#231F20" stroke-width="3" stroke-miterlimit="10" d="M317.396,279.789l4.5-15.5l-2-4.167
		l-1.833-10.833c0,0-2-3.833,3.167-6.833l-1.92-29.445c-0.136-0.024-0.281-0.032-0.409-0.067c-0.075-0.021-0.146-0.051-0.219-0.075
		c-2.107,3.958-10.17,17.367-21.285,14.242l3.5,28.012c0,0-5.167,1.667-3.5,8.333h-5l22.333,115.333c0,0,1,1,19-13L317.396,279.789z
		"/>
	<path fill="#23355D" stroke="#231F20" stroke-width="3" stroke-miterlimit="10" d="M284.396,225.789c0,0-3-0.167-1.833,5.5
		l10.833,57.833h-5.551l17.218,89.682h8l-20.667-115.349h5c0,0-1.333-7.5,3.5-8.333l-3.5-28.012L284.396,225.789z"/>
</g>
<g>
	<g>
		<path fill="#1D1E37" d="M120.41,52.316l2.375,5.625c0,0,40.625-0.5,60.5,6.875v-7.198c0,0-41.875-9.052-64.125-5.302"/>
		<path fill="#5E73A5" d="M142.645,16.066c0,0,37.25-0.75,49.5,3.75l-8.25,39.25c0,0-23.25-9.25-63.75-7.5L142.645,16.066z"/>
	</g>
	<linearGradient id="SVGID_1_" gradientUnits="userSpaceOnUse" x1="138.7938" y1="32.6231" x2="176.5854" y2="32.6231">
		<stop  offset="0" style="stop-color:#FFFFFF"/>
		<stop  offset="1" style="stop-color:#000000"/>
	</linearGradient>
	<path fill="url(#SVGID_1_)" stroke="#000000" stroke-width="3" stroke-miterlimit="10" d="M154.33,46.306c0,0-24.125-1.75-12.25-18
		c0,0,6.875-11.125,22.625-9.125c0,0,14.375,0.5,11.5,17C176.205,36.181,175.455,45.931,154.33,46.306z"/>
	<path fill="#282828" stroke="#000000" stroke-miterlimit="10" d="M141.455,39.033c0,0,0.25-12.852,18.125-13.852
		c0,0,14.375-1,14.625,11c0,0,4.625-14-10-15.5c0,0-10.37-1.896-17.375,4.75C146.83,25.431,137.272,33.781,141.455,39.033z"/>
</g>
<g>
	<path fill="#B3B1AC" stroke="#231F20" stroke-width="3" stroke-miterlimit="10" d="M67.569,437.18l-37.667-16.333l-15-28
		c0,0-12.667-7-7.667-12.333c0,0,0.833-11.333,67.333-8.167c0,0,88.146,7,127.906,23.667l33.427,16c0,0,15.333,8.667-7.5,15.333
		l-21.167,19.833l-6.833,5.167c0,0-3.833,2.333-26.833,2.667h-7.333h-18.833c0,0-3.5,9.667-14,12.167c0,0-13.167,5.333-21.5-25.5
		l5.833-22.02l-29.5-1.23c0,0-5,12.75-2.75,25.5L67.569,437.18z"/>
	<path fill="#B3B1AC" stroke="#231F20" stroke-width="3" stroke-miterlimit="10" d="M21.903,379.43c0,0,7.083-4.417,21.5-3.667
		c0,0,0.667-2.333,5.083-1.167l2.5,0.917l20.667,0.333v-0.917l5.583,0.333l2.5,1.083c0,0,31.583,1.667,45.75,3.917
		c0,0,3.333-0.75,7.333,1.083l25.917,5.083c0,0,2-1.25,7.417,1.167v1.083l65,30.333h3.667l-28.417,27.833l-54.333-21.917
		l13.667-36.333c0,0-1.5-1.917-6.583-1.667l-13.583,35.333l-19.5-2.603l6.917-37.73c0,0-3.083-1.583-6.833-1.25l-6.75,37.083
		l-36.5-3.333l-5.667-38.5c0,0-5.333-0.5-5.083-0.333c0.25,0.167,4.75,37.667,4.75,37.667l-17-0.25l-10.667-37.417
		c0,0-3.833-1.917-4.75,0.167l10.417,37.083c0,0-17.333,0.917-19.25,3l-17.167-37.5L21.903,379.43z"/>
	<polygon fill="#B3B1AC" stroke="#231F20" stroke-width="3" stroke-miterlimit="10" points="12.153,383.597 15.986,384.18 
		17.569,381.847 16.403,379.097 17.569,378.18 35.153,416.597 30.569,419.661 	"/>
</g>
<g>
	<g>
		<polygon fill="#B3B1AC" stroke="#231F20" stroke-width="2" stroke-miterlimit="10" points="100.129,467.533 87.129,467.533 
			37.129,533.033 39.629,541.033 113.129,546.441 184.629,541.033 187.629,534.033 144.629,467.533 119.129,467.533 
			108.129,467.533 99.629,487.033 89.629,487.533 		"/>
		<polygon fill="#B3B1AC" stroke="#231F20" stroke-width="2" stroke-miterlimit="10" points="118.129,469.366 113.796,539.033 
			80.296,536.533 99.212,488.866 87.296,489.199 68.962,535.199 39.962,533.533 88.129,467.533 100.129,467.533 89.629,487.533 
			99.629,487.033 108.129,467.533 118.129,468.033 		"/>
		<path fill="#B3B1AC" stroke="#231F20" stroke-width="2" stroke-miterlimit="10" d="M125.129,528.033c0,0,4.5-43.5,22-43.167
			c0,0,19.5-3.333,23.167,40l-11-0.5l-3-34.5c0,0-8.5-8.833-17.833,1l1.667,34.667L125.129,528.033z"/>
	</g>
	<path fill="#B3B1AC" stroke="#231F20" stroke-width="2" stroke-miterlimit="10" d="M140.962,484.807
		c0,0-23.833-6.774-17.167,37.559v5.667c0,0,7.951-43.827,21.809-43.08L140.962,484.807z"/>
</g>
<g>
	<path fill="#25437A" d="M215.185,67.049l20,9.178c0,0,4.667,28.21,0,34.21l-24-6.667L215.185,67.049z"/>
	<path fill="#25437A" d="M254.519,84.436l-12.736-7.129c-0.21,0.351-0.445,0.689-0.729,0.998c-0.1,0.109-0.222,0.186-0.332,0.281
		c2.458,9.745-0.87,34.517-0.87,34.517l14.667,8.151C258.519,90.739,254.519,84.436,254.519,84.436z"/>
	<path fill="#25437A" d="M259.852,88.743l11.333,5.694c0,0,0.667,7.333,0,34l-11.333-7.182
		C259.852,121.254,261.852,99.716,259.852,88.743z"/>
	<path fill="#25437A" d="M276.519,100.099v33.67l4.667,9.333v-32.667l-4.14-10.376C276.873,100.084,276.697,100.096,276.519,100.099
		z"/>
</g>
<g>
	<polygon fill="#C8CAC9" points="184.986,141.104 216.986,147.587 191.653,307.771 158.319,300.438 	"/>
	<path fill="#C8CAC9" d="M155.653,311.104c0,0,20.667,0.667,36.667,8v14l-36.667-8V311.104z"/>
	<polygon fill="#C8CAC9" points="110.986,199.104 160.986,205.771 145.653,296.438 98.986,288.92 	"/>
	<polygon fill="#C8CAC9" points="103.653,303.104 144.986,307.771 142.319,322.104 98.986,315.771 98.986,303.104 	"/>
	<polygon fill="#C8CAC9" points="49.653,303.104 87.653,303.104 84.319,315.771 46.986,315.771 	"/>
	<path fill="#C8CAC9" d="M26.986,307.771c0,0,2.667-4.667,12.667-4.667v12.667l-12.667,4V307.771z"/>
	<path fill="#C8CAC9" d="M212.986,337.771c0,0,25.333,6,30,16l-6,50.667l-31.333-16.667L212.986,337.771z"/>
	<path fill="#C8CAC9" d="M39.653,205.771c0,0,11.333-7.333,21.333-6.667l-5,28c0,0-18.333,2-22.667,8.333
		c-4.333,6.333,3.667-29.667,3.667-29.667H39.653z"/>
	<polygon fill="#C8CAC9" points="41.319,241.438 55.319,238.104 46.509,293.104 32.032,295.104 	"/>
	<polygon fill="#C8CAC9" points="89.986,322.104 112.319,323.771 106.819,362.438 84.319,360.438 	"/>
	<polygon fill="#C8CAC9" points="120.319,325.438 133.986,327.438 127.153,363.771 114.653,362.438 	"/>
	<polygon fill="#C8CAC9" points="140.319,329.104 153.986,331.771 148.653,368.104 135.653,365.771 	"/>
	<path fill="#C8CAC9" d="M16.319,329.104c0,0,2.333-3.667,24.667-7l-5.667,37.333c0,0-6.333-1.667-25,4.333L16.319,329.104z"/>
</g>
<polygon fill="#5E73A5" points="47.974,323.232 78.974,323.232 73.974,358.565 42.997,358.565 "/>
<g>
	<polygon fill="none" stroke="#231F20" stroke-width="3" stroke-miterlimit="10" points="164.428,343.784 175.428,335.618 
		192.428,339.701 199.428,350.951 197.095,370.284 189.095,377.618 169.814,374.951 162.428,362.951 	"/>
	<g>
		<linearGradient id="SVGID_2_" gradientUnits="userSpaceOnUse" x1="180.9281" y1="357.78" x2="199.4309" y2="357.78">
			<stop  offset="0" style="stop-color:#FFFFFF"/>
			<stop  offset="1" style="stop-color:#000000"/>
		</linearGradient>
		<path fill="url(#SVGID_2_)" stroke="#231F20" stroke-width="3" stroke-miterlimit="10" d="M180.928,338.951
			c0,0,13.5,5.333,11.167,17.667c0,0,2.539,11.667-10.23,20c0,0,14.564,2.667,17.564-17.333
			C199.428,359.284,200.095,336.951,180.928,338.951z"/>
	</g>
</g>
<g>
	<path fill="#C8CAC9" d="M172.415,130.117l-9.479,71.77c0,0-72.56-19.016-122.24,0l9.805-60.59l0.654-6.11
		C51.155,135.187,68.805,120.149,172.415,130.117z"/>
	<path fill="none" d="M47.887,173.957c0,0,28.212-13.823,119.023-2.157"/>
	<path fill="#2B58A8" d="M47.887,179.899l6.537-1.486l5.23-4.457l41.836-3.418v4.68c0,0,12.747-2.303,17.977,0l5.556-2.748
		l27.128,5.348v10.102h-29.089l-5.23-2.377c0,0-17.65-0.594-18.957-1.783v4.16c0,0-29.228-0.297-42.069,2.674l-4.016-1.189
		l-5.37,1.189L47.887,179.899z"/>
	<path fill="#2957A8" d="M83.84,145.432c0,0,39.548-1.783,50.988,0l7.517,4.754l14.708,1.783l-1.634,9.508h-14.054l-9.479,1.486
		c0,0-26.336-4.16-49.448-1.189v-3.566l-7.423,1.486l-4.903,0.297l-5.697,2.971l-13.26,1.332l1.307-9.828l13.728-6.064l3.922,1.783
		h5.556h6.77L83.84,145.432z"/>
	<path fill="#2D59A8" d="M56.058,135.033l-1.961,8.32c0,0,19.611-11.291,105.571-1.486l1.961-10.994
		C161.629,130.873,66.517,119.879,56.058,135.033z"/>
</g>
<g>
	<path fill="#2D4275" d="M67.89,202.138c0,0,6.333-4.957,38.333-1.624L91.89,296.181c0,0-29.667-2.333-39.333,0L67.89,202.138z"/>
	<g>
		<g>
			<path fill="#23355D" stroke="#231F20" stroke-width="2" stroke-miterlimit="10" d="M77.556,250.847c0,0,18.046-4.834,12.333,20
				c0,0-0.558,21.514-18.333,19.667c0,0-18.667,4.333-11.667-20.833C59.89,269.681,62.223,246.181,77.556,250.847z"/>
		</g>
		<path fill="#080914" d="M77.223,253.181l-7.667,35.333c0,0,14,8.667,20.333-17.667C89.89,270.847,92.891,244.242,77.223,253.181z"
			/>
	</g>
	<g>
		<path fill="#231F20" stroke="#231F20" stroke-width="3" stroke-miterlimit="10" d="M71.89,216.514h25
			c0,0,2.15-12.515-10.333-10.667C86.556,205.847,71.89,203.181,71.89,216.514z"/>
		<linearGradient id="SVGID_3_" gradientUnits="userSpaceOnUse" x1="66.0796" y1="222.014" x2="98.9425" y2="222.014">
			<stop  offset="0" style="stop-color:#FFFFFF"/>
			<stop  offset="1" style="stop-color:#000000"/>
		</linearGradient>
		<linearGradient id="SVGID_4_" gradientUnits="userSpaceOnUse" x1="64.0323" y1="222.014" x2="100.7256" y2="222.014">
			<stop  offset="0" style="stop-color:#FFFFFF"/>
			<stop  offset="1" style="stop-color:#000000"/>
		</linearGradient>
		<polygon fill="url(#SVGID_3_)" stroke="url(#SVGID_4_)" stroke-width="3" stroke-miterlimit="10" points="69.556,227.514 
			97.031,227.514 98.942,216.514 69.556,216.514 66.08,227.514 		"/>
		<linearGradient id="SVGID_5_" gradientUnits="userSpaceOnUse" x1="66.0796" y1="232.5081" x2="97.0309" y2="232.5081">
			<stop  offset="0" style="stop-color:#FFFFFF"/>
			<stop  offset="1" style="stop-color:#000000"/>
		</linearGradient>
		<polygon fill="url(#SVGID_5_)" stroke="#231F20" stroke-width="3" stroke-miterlimit="10" points="66.689,237.502 93.581,237.502 
			97.031,227.514 66.08,227.514 66.267,235.358 		"/>
		<path fill="none" stroke="#231F20" stroke-width="3" stroke-miterlimit="10" d="M79.39,244.847c0,0-19.167,4.371-11.5-24.148
			c0,0,2.667-19.186,18.667-16.852c0,0,16.667-3.623,11.333,20.522C97.89,224.369,95.89,246.514,79.39,244.847z"/>
	</g>
</g>
<g>
	<path fill="#A9A298" d="M183.921,82.617c0,0-5.5-3.167-2.167-10.667c0,0-0.167-2.5,8.833-6.167c0,0-14.167,1.089-14.667,14.128
		c0,0-1.167,9.539,11,15.539c0,0,8.5,4.833,17.833-2.5c0,0,5.667-4.333,3.5-14.5c0,0-1,8.311-5.833,10.739
		C202.421,89.189,192.421,97.95,183.921,82.617z"/>
	<path fill="#322C26" d="M196.921,64.95c0,0-15,0.729-5.833,16.448c0,0,9.5,7.641,15.5-1.487
		C206.587,79.911,211.921,68.117,196.921,64.95z"/>
	<path fill="#120E0D" d="M188.567,72.929c0,0,4.612-6.17,12.313,0.625c0,0,4.875,4.625,2.313,8.875c0,0,8.614-6,0.744-14.125
		C203.936,68.304,190.983,59.788,188.567,72.929z"/>
</g>
<g>
	<path fill="#20407B" d="M65.718,68.519c0,0,6.167-6.833,15.667-8.167c0,0-8.333,19.833-10.167,34.667c0,0-15.833,3-20,12
		C51.218,107.019,56.884,80.352,65.718,68.519z"/>
	<path fill="#233766" d="M84.051,59.519c0,0,4.5-1.333,7.667-1.333c0,0-7.333,15.333-10.333,34.833c0,0-6.667,0.667-7.5,1.667
		C73.884,94.685,78.718,70.685,84.051,59.519z"/>
	<path fill="#20407B" d="M94.551,57.519c0,0,11.333-2.167,20.833-1.667c0,0-7.333,17.5-9.5,35.333c0,0-17-0.5-22.167,2.167
		C83.718,93.352,87.718,69.352,94.551,57.519z"/>
	<path fill="#233766" d="M115.384,64.269h10.5c0,0-3.833,12.25-6.667,26.417h-10.833C108.384,90.685,112.051,69.352,115.384,64.269z
		"/>
	<path fill="#1D1E37" d="M128.718,64.269c0,0,16.833-0.25,43.167,4.583l-4.333,27c0,0-27.167-5.167-44.333-4.333L128.718,64.269z"/>
	<path fill="#F4A1AC" d="M153.218,71.352c0,0,10.502,1.655,8,12.333c0,0-2.833,6.667-11.833,5.833c0,0-10.333-1.583-7.5-12.042
		C141.884,77.477,145.384,69.352,153.218,71.352z"/>
	<g>
		<polygon fill="#DADCDB" points="91.718,70.352 107.051,69.185 110.551,58.185 95.718,59.519 		"/>
		<polygon fill="#737FA6" points="90.551,74.565 105.884,73.685 102.884,85.352 87.384,86.519 		"/>
	</g>
	<path fill="#20407B" stroke="#FFFFFF" stroke-miterlimit="10" d="M68.301,71.035c0,0-5.25,7.608-6.875,19.108"/>
</g>
<path fill="#4F5C88" d="M174.16,1.749c0,0-6.25,1.789-10,7.039c0,0-15.75-2.25-39.25,3C124.91,11.788,142.91,1.749,174.16,1.749z"/>
<g>
	<polygon fill="#3950A3" points="260.607,444.955 264.274,444.955 265.274,457.955 260.274,458.289 	"/>
	<polygon fill="#3D55A5" points="244.774,444.955 248.94,444.955 249.774,457.122 245.44,457.122 	"/>
</g>
<path fill="none" stroke="#231F20" stroke-width="2" stroke-miterlimit="10" d="M337.075,512.167c0,0,0.167-38.198,19.833-42.032
	c0,0,18.167-2.833,22.5,36.667l-42.333,8V512.167z"/>
<path fill="none" stroke="#231F20" stroke-width="2" stroke-miterlimit="10" d="M355.038,470.091h-10.63
	c0,0-18.93,3.17-8.473,41.884c0.135-0.043,0.27-0.076,0.404-0.105c0.564-6.598,3.968-37.338,18.75-41.605
	C355.073,470.206,355.051,470.15,355.038,470.091z"/>
<path fill="none" stroke="#231F20" stroke-width="2" stroke-miterlimit="10" d="M319.741,463.969l40.333-8.167
	c0,0,1.833-1.333,4.333,1.167l32,43.333c0,0,3.833,7.5-1.333,8.333c-5.167,0.833-72,15.167-72,15.167s-6.833,2.5-6.167-11
	l1.667-46.167C318.575,466.635,318.941,464.131,319.741,463.969z"/>
<polygon fill="#231F20" stroke="#231F20" stroke-width="2" stroke-miterlimit="10" points="237.908,528.635 311.408,532.302 
	403.075,511.975 403.075,514.802 311.741,535.969 237.908,532.302 "/>
<path fill="#2E1D16" d="M294.241,487.635c0,0-13.667-11-18.5-10.5c0,0-23.833-6.833-49.833,30.5c0,0-15.833,7.333-11,13.667
	c0,0-2,8.333,21.833-0.833c0,0,6.082,1.333,17.374-2.667l5.959-6.667c0,0-24.167,3.667-26.333,2.833c0,0,19.833-13.654,45.333-1.994
	l5.5,4.161c0,0,7.833-5.167,3.333-8.667c0,0-11.833-7.522-16.667-6.761c0,0-16.167-5.072-29.167,2.261l-2.5,0.5
	c0,0,13.167-18.333,30-19.167c0,0,2.833-2.673,16,5.414l6.333,5.253C291.908,494.969,299.408,489.469,294.241,487.635z"/>
<path fill="#77787C" d="M337.075,406.969l2.667,6l7.167-6c0,0,13.489-0.833,10.411,14.167l-41.244,33.5c0,0-6.833,5.833-13.333-4.5
	c0,0-2.833-8.5,3.667-10.667l11.333-8.833l6.5-14.833L337.075,406.969z"/>
<path fill="#232C4E" d="M322.983,417.418l5.043,17.5c0,0,2.255,6.898,0,8.729l14.996-12.18c0,0,4.294-3.215-1.873-11.215l-6-13
	L322.983,417.418z"/>
<path fill="#23355D" d="M118.144,422.972l9.5,4.25l3.75-4.25l20,8v7l13.5,5.5c0,0,8,14.25-8,16.75l-47.25-20.5
	C109.644,439.722,95.894,422.472,118.144,422.972z"/>
<linearGradient id="SVGID_6_" gradientUnits="userSpaceOnUse" x1="69.613" y1="449.172" x2="105.692" y2="449.172">
	<stop  offset="0" style="stop-color:#FFFFFF"/>
	<stop  offset="1" style="stop-color:#000000"/>
</linearGradient>
<path fill="url(#SVGID_6_)" stroke="#000000" stroke-width="2" stroke-miterlimit="10" d="M87.893,418.43v6.92l-8.75-3.46
	c0,0-10,1.331-9.25,10.114c0,0-2.25,8.517,6,9.582l9.5,3.992c0,0,3.5,16.502,12.75,20.761l1.75,4.525l2.25,9.049l3.549-8.251
	l-6.549-19.696c0,0-7-4.791-2.25-23.954l0.25-9.582H87.893z"/>
<ellipse fill="#FFFFFF" cx="198.629" cy="74.128" rx="1.341" ry="1.349"/>
<path fill="#20407B" d="M49.093,121.19c0,0,8.667-18.333,66.333-16.667c0,0,38.667-0.667,88.667,11.667
	c0,0,49.667,11.667,68.667,30.333h7c0,0,0.333-10-38.667-27.333c0,0-132-45-188.667-9.667L49.093,121.19z"/>
<g>
	<g>
		<path fill="#9D9B98" stroke="#231F20" stroke-width="3" stroke-miterlimit="10" d="M264.599,278.271l-15-75.333
			c0,0-3-47.333,23.667-59h17c0,0,15.333,0.333,24.667,40l11.667,58l-7.667,24.667l-11.667-58.667l-6.667-4.667
			c0,0,2.899-24.667-12.551-29.333c0,0-20.449,5.333-5.783,41.333l-3.667,10.333l11.333,61.333l-14.667-8L264.599,278.271z"/>
	</g>
	<path fill="none" stroke="#231F20" stroke-width="3" stroke-miterlimit="10" d="M284.863,145.604c0,0-25.669,6.708-19.333,69.833
		l12.333,63.5"/>
</g>
</svg>
